<?xml version="1.0" encoding="UTF-8" standalone="no"?>
<!DOCTYPE svg PUBLIC "-//W3C//DTD SVG 1.1//EN" "http://www.w3.org/Graphics/SVG/1.1/DTD/svg11.dtd">
<svg width="100%" height="100%" viewBox="0 0 360 360" version="1.1" xmlns="http://www.w3.org/2000/svg" xmlns:xlink="http://www.w3.org/1999/xlink" xml:space="preserve" xmlns:serif="http://www.serif.com/" style="fill-rule:evenodd;clip-rule:evenodd;">
    <g id="_1" serif:id="1" transform="matrix(4.17955,0,0,4.17955,-572.32,-572.781)">
        <g transform="matrix(0.998993,0,0,0.998993,0.181179,0.223797)">
            <path d="M184.497,171.808L174.187,154.269" style="fill:none;fill-rule:nonzero;stroke:rgb(0,0,255);stroke-width:1px;"/>
        </g>
        <g transform="matrix(0.998993,0,0,0.998993,0.181179,0.223797)">
            <path d="M172.87,153.224L174.187,154.269" style="fill:none;fill-rule:nonzero;stroke:rgb(0,0,255);stroke-width:1px;"/>
        </g>
        <g transform="matrix(0.998993,0,0,0.998993,0.181179,0.223797)">
            <path d="M188.885,188.632L195.137,221.841" style="fill:none;fill-rule:nonzero;stroke:rgb(0,0,255);stroke-width:1px;"/>
        </g>
        <g transform="matrix(0.998993,0,0,0.998993,0.181179,0.223797)">
            <path d="M190.42,188.522L195.247,221.841" style="fill:none;fill-rule:nonzero;stroke:rgb(0,0,255);stroke-width:1px;"/>
        </g>
        <g transform="matrix(0.998993,0,0,0.998993,0.181179,0.223797)">
            <path d="M180.219,173.127L188.885,188.632" style="fill:none;fill-rule:nonzero;stroke:rgb(0,0,255);stroke-width:1px;"/>
        </g>
        <g transform="matrix(0.998993,0,0,0.998993,0.181179,0.223797)">
            <path d="M188.775,170.488L190.42,188.522" style="fill:none;fill-rule:nonzero;stroke:rgb(0,0,255);stroke-width:1px;"/>
        </g>
        <g transform="matrix(0.998993,0,0,0.998993,0.181179,0.223797)">
            <path d="M188.775,170.488L180.219,173.127" style="fill:none;fill-rule:nonzero;stroke:rgb(0,0,255);stroke-width:1px;"/>
        </g>
        <g transform="matrix(0.998993,0,0,0.998993,0.181179,0.223797)">
            <path d="M164.753,149.155L169.909,138.159" style="fill:none;fill-rule:nonzero;stroke:rgb(0,0,255);stroke-width:1px;"/>
        </g>
        <g transform="matrix(0.998993,0,0,0.998993,0.181179,0.223797)">
            <path d="M191.956,155.973L191.956,139.809" style="fill:none;fill-rule:nonzero;stroke:rgb(0,0,255);stroke-width:1px;"/>
        </g>
        <g transform="matrix(0.998993,0,0,0.998993,0.181179,0.223797)">
            <path d="M167.496,155.973L164.753,149.155" style="fill:none;fill-rule:nonzero;stroke:rgb(0,0,255);stroke-width:1px;"/>
        </g>
        <g transform="matrix(0.998993,0,0,0.998993,0.181179,0.223797)">
            <path d="M180.878,152.564L191.956,155.973" style="fill:none;fill-rule:nonzero;stroke:rgb(0,0,255);stroke-width:1px;"/>
        </g>
        <g transform="matrix(0.998993,0,0,0.998993,0.181179,0.223797)">
            <path d="M180.878,152.564L167.496,155.973" style="fill:none;fill-rule:nonzero;stroke:rgb(0,0,255);stroke-width:1px;"/>
        </g>
        <g transform="matrix(0.998993,0,0,0.998993,0.181179,0.223797)">
            <path d="M195.137,221.341L195.173,221.342L195.209,221.346L195.244,221.352L195.345,221.386L195.49,221.487L195.592,221.633L195.637,221.841L195.605,222.016L195.49,222.194L195.312,222.309L195.209,222.336L195.173,222.34L195.137,222.341L194.962,222.309L194.783,222.194L194.668,222.016L194.637,221.841L194.682,221.633L194.783,221.487L194.929,221.386L195.03,221.352L195.065,221.346L195.101,221.342L195.137,221.341Z" style="fill:none;fill-rule:nonzero;stroke:rgb(0,0,255);stroke-width:1px;"/>
        </g>
        <g transform="matrix(0.998993,0,0,0.998993,0.181179,0.223797)">
            <path d="M195.247,221.341L195.454,221.386L195.6,221.487L195.701,221.633L195.747,221.841L195.715,222.016L195.6,222.194L195.454,222.296L195.247,222.341L195.211,222.34L195.175,222.336L195.072,222.309L194.893,222.194L194.778,222.016L194.747,221.841L194.792,221.633L194.893,221.487L195.039,221.386L195.072,221.372L195.105,221.361L195.14,221.352L195.175,221.346L195.211,221.342L195.247,221.341Z" style="fill:none;fill-rule:nonzero;stroke:rgb(0,0,255);stroke-width:1px;"/>
        </g>
        <g transform="matrix(0.998993,0,0,0.998993,0.181179,0.223797)">
            <path d="M188.885,188.132L189.092,188.177L189.238,188.279L189.353,188.457L189.385,188.632L189.353,188.807L189.238,188.986L189.092,189.087L188.991,189.121L188.956,189.127L188.921,189.131L188.885,189.132L188.71,189.101L188.531,188.986L188.416,188.807L188.385,188.632L188.416,188.457L188.531,188.279L188.615,188.211L188.645,188.193L188.71,188.164L188.885,188.132Z" style="fill:none;fill-rule:nonzero;stroke:rgb(0,0,255);stroke-width:1px;"/>
        </g>
        <g transform="matrix(0.998993,0,0,0.998993,0.181179,0.223797)">
            <path d="M190.42,188.022L190.628,188.067L190.774,188.169L190.875,188.315L190.92,188.522L190.889,188.697L190.774,188.876L190.628,188.977L190.527,189.011L190.492,189.017L190.456,189.021L190.42,189.022L190.245,188.991L190.067,188.876L189.952,188.697L189.92,188.522L189.965,188.315L190.067,188.169L190.245,188.054L190.349,188.027L190.384,188.023L190.42,188.022Z" style="fill:none;fill-rule:nonzero;stroke:rgb(0,0,255);stroke-width:1px;"/>
        </g>
        <g transform="matrix(0.998993,0,0,0.998993,0.181179,0.223797)">
            <path d="M180.219,172.627L180.427,172.672L180.573,172.774L180.674,172.92L180.688,172.952L180.699,172.986L180.708,173.021L180.719,173.127L180.688,173.302L180.573,173.481L180.519,173.528L180.489,173.548L180.459,173.566L180.427,173.582L180.219,173.627L180.045,173.596L179.866,173.481L179.751,173.302L179.719,173.127L179.765,172.92L179.866,172.774L180.045,172.659L180.219,172.627Z" style="fill:none;fill-rule:nonzero;stroke:rgb(0,0,255);stroke-width:1px;"/>
        </g>
        <g transform="matrix(0.998993,0,0,0.998993,0.181179,0.223797)">
            <path d="M188.775,169.988L188.983,170.033L189.129,170.135L189.23,170.281L189.275,170.488L189.243,170.663L189.129,170.842L188.983,170.943L188.882,170.977L188.847,170.983L188.811,170.987L188.775,170.988L188.6,170.957L188.421,170.842L188.307,170.663L188.295,170.629L188.287,170.595L188.28,170.56L188.275,170.488L188.32,170.281L188.421,170.135L188.567,170.033L188.775,169.988Z" style="fill:none;fill-rule:nonzero;stroke:rgb(0,0,255);stroke-width:1px;"/>
        </g>
        <g transform="matrix(0.998993,0,0,0.998993,0.181179,0.223797)">
            <path d="M169.909,137.659L170.084,137.691L170.262,137.806L170.377,137.984L170.409,138.159L170.364,138.367L170.262,138.513L170.116,138.614L169.909,138.659L169.701,138.614L169.669,138.598L169.639,138.58L169.609,138.56L169.555,138.513L169.454,138.367L169.409,138.159L169.454,137.952L169.555,137.806L169.701,137.704L169.909,137.659Z" style="fill:none;fill-rule:nonzero;stroke:rgb(0,0,255);stroke-width:1px;"/>
        </g>
        <g transform="matrix(0.998993,0,0,0.998993,0.181179,0.223797)">
            <path d="M191.956,139.309L192.164,139.354L192.31,139.455L192.411,139.601L192.456,139.809L192.411,140.016L192.31,140.162L192.164,140.263L192.063,140.297L191.992,140.307L191.956,140.309L191.92,140.307L191.884,140.303L191.781,140.277L191.602,140.162L191.488,139.983L191.456,139.809L191.501,139.601L191.602,139.455L191.748,139.354L191.956,139.309Z" style="fill:none;fill-rule:nonzero;stroke:rgb(0,0,255);stroke-width:1px;"/>
        </g>
        <g transform="matrix(0.998993,0,0,0.998993,0.181179,0.223797)">
            <path d="M164.753,148.655L164.928,148.687L164.961,148.701L164.993,148.716L165.023,148.735L165.107,148.802L165.208,148.948L165.253,149.155L165.222,149.33L165.107,149.509L165.023,149.576L164.993,149.594L164.961,149.61L164.928,149.624L164.753,149.655L164.546,149.61L164.4,149.509L164.285,149.33L164.253,149.155L164.299,148.948L164.4,148.802L164.546,148.701L164.753,148.655Z" style="fill:none;fill-rule:nonzero;stroke:rgb(0,0,255);stroke-width:1px;"/>
        </g>
        <g transform="matrix(0.998993,0,0,0.998993,0.181179,0.223797)">
            <path d="M191.956,155.473L191.992,155.474L192.063,155.485L192.164,155.518L192.31,155.62L192.411,155.766L192.456,155.973L192.411,156.181L192.31,156.327L192.164,156.428L191.956,156.473L191.781,156.442L191.602,156.327L191.488,156.148L191.456,155.973L191.467,155.866L191.476,155.832L191.488,155.798L191.501,155.766L191.602,155.62L191.781,155.505L191.884,155.478L191.92,155.474L191.956,155.473Z" style="fill:none;fill-rule:nonzero;stroke:rgb(0,0,255);stroke-width:1px;"/>
        </g>
        <g transform="matrix(0.998993,0,0,0.998993,0.181179,0.223797)">
            <path d="M167.496,155.473L167.703,155.518L167.849,155.62L167.95,155.766L167.975,155.832L167.984,155.866L167.996,155.973L167.964,156.148L167.849,156.327L167.703,156.428L167.496,156.473L167.321,156.442L167.142,156.327L167.027,156.148L166.996,155.973L167.041,155.766L167.142,155.62L167.226,155.552L167.256,155.534L167.288,155.518L167.321,155.505L167.496,155.473Z" style="fill:none;fill-rule:nonzero;stroke:rgb(0,0,255);stroke-width:1px;"/>
        </g>
        <g transform="matrix(0.998993,0,0,0.998993,0.181179,0.223797)">
            <path d="M180.878,152.064L181.052,152.096L181.231,152.211L181.332,152.357L181.378,152.564L181.372,152.636L181.366,152.671L181.357,152.705L181.346,152.739L181.231,152.918L181.052,153.033L180.878,153.064L180.67,153.019L180.524,152.918L180.409,152.739L180.398,152.705L180.389,152.671L180.383,152.636L180.377,152.564L180.423,152.357L180.524,152.211L180.67,152.109L180.878,152.064Z" style="fill:none;fill-rule:nonzero;stroke:rgb(0,0,255);stroke-width:1px;"/>
        </g>
        <g transform="matrix(0.998993,0,0,0.998993,0.181179,0.223797)">
            <path d="M172.87,152.724L173.078,152.769L173.224,152.871L173.339,153.049L173.37,153.224L173.325,153.432L173.271,153.523L173.248,153.551L173.224,153.578L173.078,153.679L172.87,153.724L172.663,153.679L172.517,153.578L172.415,153.432L172.37,153.224L172.402,153.049L172.517,152.871L172.695,152.756L172.87,152.724Z" style="fill:none;fill-rule:nonzero;stroke:rgb(0,0,255);stroke-width:1px;"/>
        </g>
    </g>
</svg>
