<?xml version="1.0" encoding="UTF-8" standalone="no"?>
<!DOCTYPE svg PUBLIC "-//W3C//DTD SVG 1.1//EN" "http://www.w3.org/Graphics/SVG/1.1/DTD/svg11.dtd">
<svg width="100%" height="100%" viewBox="0 0 360 360" version="1.1" xmlns="http://www.w3.org/2000/svg" xmlns:xlink="http://www.w3.org/1999/xlink" xml:space="preserve" xmlns:serif="http://www.serif.com/" style="fill-rule:evenodd;clip-rule:evenodd;">
    <g id="_1" serif:id="1" transform="matrix(4.18429,0,0,4.18429,-573.173,-573.4)">
        <g transform="matrix(0.985604,0,0,0.985604,2.59121,2.6293)">
            <path d="M176.308,169.586L198.737,158.332" style="fill:none;fill-rule:nonzero;stroke:rgb(0,0,255);stroke-width:1px;"/>
        </g>
        <g transform="matrix(0.985604,0,0,0.985604,2.59121,2.6293)">
            <path d="M191.969,142.095L198.737,158.332" style="fill:none;fill-rule:nonzero;stroke:rgb(0,0,255);stroke-width:1px;"/>
        </g>
        <g transform="matrix(0.985604,0,0,0.985604,2.59121,2.6293)">
            <path d="M164.115,158.108L161.431,142.543" style="fill:none;fill-rule:nonzero;stroke:rgb(0,0,255);stroke-width:1px;"/>
        </g>
        <g transform="matrix(0.985604,0,0,0.985604,2.59121,2.6293)">
            <path d="M180.336,195.173L178.658,221.6" style="fill:none;fill-rule:nonzero;stroke:rgb(0,0,255);stroke-width:1px;"/>
        </g>
        <g transform="matrix(0.985604,0,0,0.985604,2.59121,2.6293)">
            <path d="M177.092,170.65L164.115,158.108" style="fill:none;fill-rule:nonzero;stroke:rgb(0,0,255);stroke-width:1px;"/>
        </g>
        <g transform="matrix(0.985604,0,0,0.985604,2.59121,2.6293)">
            <path d="M175.525,168.522L180.336,195.173" style="fill:none;fill-rule:nonzero;stroke:rgb(0,0,255);stroke-width:1px;"/>
        </g>
        <g transform="matrix(0.985604,0,0,0.985604,2.59121,2.6293)">
            <path d="M175.525,168.522L177.092,170.65" style="fill:none;fill-rule:nonzero;stroke:rgb(0,0,255);stroke-width:1px;"/>
        </g>
        <g transform="matrix(0.985604,0,0,0.985604,2.59121,2.6293)">
            <path d="M176.644,144.558L164.339,138.4" style="fill:none;fill-rule:nonzero;stroke:rgb(0,0,255);stroke-width:1px;"/>
        </g>
        <g transform="matrix(0.985604,0,0,0.985604,2.59121,2.6293)">
            <path d="M178.434,146.126L160.871,142.655" style="fill:none;fill-rule:nonzero;stroke:rgb(0,0,255);stroke-width:1px;"/>
        </g>
        <g transform="matrix(0.985604,0,0,0.985604,2.59121,2.6293)">
            <path d="M198.346,159.004L176.644,144.558" style="fill:none;fill-rule:nonzero;stroke:rgb(0,0,255);stroke-width:1px;"/>
        </g>
        <g transform="matrix(0.985604,0,0,0.985604,2.59121,2.6293)">
            <path d="M199.129,157.66L178.434,146.126" style="fill:none;fill-rule:nonzero;stroke:rgb(0,0,255);stroke-width:1px;"/>
        </g>
        <g transform="matrix(0.985604,0,0,0.985604,2.59121,2.6293)">
            <path d="M199.129,157.66L198.346,159.004" style="fill:none;fill-rule:nonzero;stroke:rgb(0,0,255);stroke-width:1px;"/>
        </g>
        <g transform="matrix(0.985604,0,0,0.985604,2.59121,2.6293)">
            <path d="M161.431,142.043L161.638,142.088L161.784,142.189L161.885,142.335L161.931,142.543L161.899,142.718L161.851,142.813L161.831,142.842L161.809,142.87L161.784,142.896L161.638,142.998L161.537,143.031L161.502,143.038L161.467,143.042L161.431,143.043L161.256,143.011L161.223,142.998L161.191,142.982L161.161,142.964L161.077,142.896L160.962,142.718L160.951,142.684L160.942,142.65L160.936,142.614L160.93,142.543L160.976,142.335L161.03,142.244L161.052,142.216L161.077,142.189L161.256,142.074L161.431,142.043Z" style="fill:none;fill-rule:nonzero;stroke:rgb(0,0,255);stroke-width:1px;"/>
        </g>
        <g transform="matrix(0.985604,0,0,0.985604,2.59121,2.6293)">
            <path d="M178.658,221.1L178.694,221.102L178.764,221.112L178.865,221.146L179.011,221.247L179.126,221.426L179.158,221.6L179.112,221.808L179.011,221.954L178.865,222.055L178.658,222.1L178.483,222.069L178.304,221.954L178.203,221.808L178.158,221.6L178.189,221.426L178.304,221.247L178.483,221.132L178.658,221.1Z" style="fill:none;fill-rule:nonzero;stroke:rgb(0,0,255);stroke-width:1px;"/>
        </g>
        <g transform="matrix(0.985604,0,0,0.985604,2.59121,2.6293)">
            <path d="M164.115,157.608L164.29,157.64L164.469,157.754L164.584,157.933L164.615,158.108L164.57,158.316L164.516,158.407L164.493,158.435L164.469,158.462L164.29,158.576L164.115,158.608L163.94,158.576L163.762,158.462L163.66,158.316L163.615,158.108L163.647,157.933L163.762,157.754L163.94,157.64L164.009,157.619L164.044,157.613L164.115,157.608Z" style="fill:none;fill-rule:nonzero;stroke:rgb(0,0,255);stroke-width:1px;"/>
        </g>
        <g transform="matrix(0.985604,0,0,0.985604,2.59121,2.6293)">
            <path d="M180.336,194.673L180.543,194.718L180.689,194.82L180.79,194.966L180.836,195.173L180.79,195.381L180.689,195.527L180.543,195.628L180.336,195.673L180.3,195.672L180.229,195.662L180.128,195.628L179.982,195.527L179.881,195.381L179.836,195.173L179.881,194.966L179.982,194.82L180.128,194.718L180.229,194.685L180.264,194.678L180.3,194.675L180.336,194.673Z" style="fill:none;fill-rule:nonzero;stroke:rgb(0,0,255);stroke-width:1px;"/>
        </g>
        <g transform="matrix(0.985604,0,0,0.985604,2.59121,2.6293)">
            <path d="M177.092,170.15L177.299,170.195L177.445,170.296L177.56,170.475L177.592,170.65L177.56,170.825L177.445,171.003L177.299,171.105L177.092,171.15L176.917,171.118L176.738,171.003L176.623,170.825L176.592,170.65L176.623,170.475L176.671,170.38L176.713,170.323L176.738,170.296L176.764,170.272L176.792,170.249L176.822,170.229L176.917,170.181L177.092,170.15Z" style="fill:none;fill-rule:nonzero;stroke:rgb(0,0,255);stroke-width:1px;"/>
        </g>
        <g transform="matrix(0.985604,0,0,0.985604,2.59121,2.6293)">
            <path d="M175.525,168.022L175.733,168.067L175.879,168.169L175.98,168.314L176.025,168.522L175.994,168.697L175.879,168.876L175.853,168.9L175.825,168.923L175.795,168.943L175.7,168.991L175.632,169.011L175.597,169.017L175.525,169.022L175.419,169.011L175.384,169.002L175.318,168.977L175.172,168.876L175.057,168.697L175.046,168.663L175.037,168.629L175.031,168.594L175.025,168.522L175.071,168.314L175.172,168.169L175.318,168.067L175.525,168.022Z" style="fill:none;fill-rule:nonzero;stroke:rgb(0,0,255);stroke-width:1px;"/>
        </g>
        <g transform="matrix(0.985604,0,0,0.985604,2.59121,2.6293)">
            <path d="M164.339,137.9L164.547,137.945L164.693,138.046L164.794,138.192L164.839,138.4L164.794,138.607L164.778,138.639L164.76,138.67L164.74,138.699L164.693,138.753L164.547,138.854L164.339,138.9L164.164,138.868L163.985,138.753L163.871,138.574L163.839,138.4L163.884,138.192L163.985,138.046L164.164,137.931L164.339,137.9Z" style="fill:none;fill-rule:nonzero;stroke:rgb(0,0,255);stroke-width:1px;"/>
        </g>
        <g transform="matrix(0.985604,0,0,0.985604,2.59121,2.6293)">
            <path d="M160.871,142.155L161.046,142.186L161.079,142.2L161.111,142.216L161.141,142.234L161.225,142.301L161.326,142.447L161.371,142.655L161.366,142.726L161.36,142.762L161.34,142.83L161.292,142.925L161.249,142.982L161.225,143.008L161.046,143.123L160.871,143.155L160.664,143.11L160.518,143.008L160.403,142.83L160.371,142.655L160.416,142.447L160.518,142.301L160.664,142.2L160.871,142.155Z" style="fill:none;fill-rule:nonzero;stroke:rgb(0,0,255);stroke-width:1px;"/>
        </g>
        <g transform="matrix(0.985604,0,0,0.985604,2.59121,2.6293)">
            <path d="M176.644,144.058L176.852,144.104L176.998,144.205L177.099,144.351L177.144,144.558L177.099,144.766L177.065,144.828L177.045,144.858L176.998,144.912L176.852,145.013L176.644,145.058L176.436,145.013L176.291,144.912L176.189,144.766L176.144,144.558L176.189,144.351L176.205,144.319L176.223,144.288L176.244,144.259L176.291,144.205L176.436,144.104L176.644,144.058Z" style="fill:none;fill-rule:nonzero;stroke:rgb(0,0,255);stroke-width:1px;"/>
        </g>
        <g transform="matrix(0.985604,0,0,0.985604,2.59121,2.6293)">
            <path d="M178.434,145.626L178.642,145.671L178.787,145.773L178.889,145.919L178.922,146.019L178.929,146.055L178.933,146.09L178.934,146.126L178.889,146.334L178.873,146.366L178.855,146.396L178.834,146.425L178.787,146.48L178.642,146.581L178.434,146.626L178.226,146.581L178.08,146.48L177.979,146.334L177.934,146.126L177.935,146.09L177.939,146.055L177.945,146.019L177.979,145.919L178.08,145.773L178.226,145.671L178.259,145.658L178.293,145.646L178.327,145.638L178.434,145.626Z" style="fill:none;fill-rule:nonzero;stroke:rgb(0,0,255);stroke-width:1px;"/>
        </g>
        <g transform="matrix(0.985604,0,0,0.985604,2.59121,2.6293)">
            <path d="M198.346,158.504L198.382,158.505L198.417,158.509L198.452,158.515L198.553,158.549L198.585,158.565L198.616,158.583L198.645,158.603L198.699,158.65L198.814,158.829L198.846,159.004L198.801,159.211L198.699,159.357L198.553,159.459L198.346,159.504L198.171,159.472L197.992,159.357L197.891,159.211L197.846,159.004L197.877,158.829L197.907,158.764L197.925,158.734L197.945,158.705L197.968,158.677L197.992,158.65L198.171,158.535L198.346,158.504Z" style="fill:none;fill-rule:nonzero;stroke:rgb(0,0,255);stroke-width:1px;"/>
        </g>
        <g transform="matrix(0.985604,0,0,0.985604,2.59121,2.6293)">
            <path d="M199.129,157.16L199.304,157.192L199.482,157.307L199.597,157.485L199.629,157.66L199.584,157.868L199.482,158.014L199.336,158.115L199.129,158.16L198.921,158.115L198.889,158.099L198.859,158.081L198.83,158.061L198.775,158.014L198.674,157.868L198.629,157.66L198.66,157.485L198.69,157.421L198.708,157.39L198.775,157.307L198.921,157.205L199.129,157.16Z" style="fill:none;fill-rule:nonzero;stroke:rgb(0,0,255);stroke-width:1px;"/>
        </g>
        <g transform="matrix(0.985604,0,0,0.985604,2.59121,2.6293)">
            <path d="M191.969,141.595L192.144,141.626L192.323,141.741L192.438,141.92L192.47,142.095L192.424,142.302L192.323,142.448L192.239,142.516L192.209,142.534L192.177,142.55L192.144,142.563L191.969,142.595L191.762,142.55L191.616,142.448L191.515,142.302L191.469,142.095L191.501,141.92L191.616,141.741L191.762,141.64L191.969,141.595Z" style="fill:none;fill-rule:nonzero;stroke:rgb(0,0,255);stroke-width:1px;"/>
        </g>
    </g>
</svg>
