<?xml version="1.0" encoding="UTF-8" standalone="no"?>
<!DOCTYPE svg PUBLIC "-//W3C//DTD SVG 1.1//EN" "http://www.w3.org/Graphics/SVG/1.1/DTD/svg11.dtd">
<svg width="100%" height="100%" viewBox="0 0 360 360" version="1.1" xmlns="http://www.w3.org/2000/svg" xmlns:xlink="http://www.w3.org/1999/xlink" xml:space="preserve" xmlns:serif="http://www.serif.com/" style="fill-rule:evenodd;clip-rule:evenodd;">
    <g id="_1" serif:id="1" transform="matrix(4.12787,0,0,4.12787,-563.016,-563.018)">
        <path d="M184.352,172.292L164.433,154.14" style="fill:none;fill-rule:nonzero;stroke:rgb(0,0,255);stroke-width:1px;"/>
        <path d="M166.051,137.942L164.433,154.14" style="fill:none;fill-rule:nonzero;stroke:rgb(0,0,255);stroke-width:1px;"/>
        <path d="M185.691,195.918L189.82,222.058" style="fill:none;fill-rule:nonzero;stroke:rgb(0,0,255);stroke-width:1px;"/>
        <path d="M198.524,166.874L170.849,171.343" style="fill:none;fill-rule:nonzero;stroke:rgb(0,0,255);stroke-width:1px;"/>
        <path d="M184.352,173.018L185.691,195.918" style="fill:none;fill-rule:nonzero;stroke:rgb(0,0,255);stroke-width:1px;"/>
        <path d="M184.352,171.566L198.524,166.874" style="fill:none;fill-rule:nonzero;stroke:rgb(0,0,255);stroke-width:1px;"/>
        <path d="M184.352,171.566L184.352,173.018" style="fill:none;fill-rule:nonzero;stroke:rgb(0,0,255);stroke-width:1px;"/>
        <path d="M178.549,149.783L194.172,149.113" style="fill:none;fill-rule:nonzero;stroke:rgb(0,0,255);stroke-width:1px;"/>
        <path d="M182.567,140.288L197.185,149.783" style="fill:none;fill-rule:nonzero;stroke:rgb(0,0,255);stroke-width:1px;"/>
        <path d="M167.39,149.895L178.549,149.783" style="fill:none;fill-rule:nonzero;stroke:rgb(0,0,255);stroke-width:1px;"/>
        <path d="M161.476,158.385L182.567,140.288" style="fill:none;fill-rule:nonzero;stroke:rgb(0,0,255);stroke-width:1px;"/>
        <path d="M161.476,158.385L167.39,149.895" style="fill:none;fill-rule:nonzero;stroke:rgb(0,0,255);stroke-width:1px;"/>
        <path d="M189.82,221.558L189.995,221.59L190.174,221.704L190.275,221.85L190.32,222.058L190.289,222.233L190.174,222.412L189.995,222.526L189.82,222.558L189.613,222.513L189.467,222.412L189.352,222.233L189.32,222.058L189.365,221.85L189.467,221.704L189.613,221.603L189.713,221.569L189.748,221.563L189.784,221.559L189.82,221.558Z" style="fill:none;fill-rule:nonzero;stroke:rgb(0,0,255);stroke-width:1px;"/>
        <path d="M170.849,170.843L171.057,170.888L171.203,170.989L171.304,171.135L171.338,171.236L171.344,171.271L171.348,171.307L171.349,171.343L171.318,171.517L171.203,171.696L171.057,171.798L170.849,171.843L170.675,171.811L170.496,171.696L170.381,171.517L170.349,171.343L170.395,171.135L170.496,170.989L170.675,170.874L170.849,170.843Z" style="fill:none;fill-rule:nonzero;stroke:rgb(0,0,255);stroke-width:1px;"/>
        <path d="M185.691,195.418L185.866,195.45L186.045,195.565L186.16,195.744L186.191,195.918L186.146,196.126L186.045,196.272L185.866,196.387L185.798,196.407L185.763,196.413L185.691,196.418L185.484,196.373L185.338,196.272L185.236,196.126L185.191,195.918L185.223,195.744L185.338,195.565L185.484,195.463L185.584,195.43L185.655,195.42L185.691,195.418Z" style="fill:none;fill-rule:nonzero;stroke:rgb(0,0,255);stroke-width:1px;"/>
        <path d="M198.524,166.374L198.699,166.406L198.878,166.521L198.993,166.7L199.024,166.874L198.979,167.082L198.878,167.228L198.699,167.343L198.524,167.374L198.317,167.329L198.171,167.228L198.069,167.082L198.056,167.049L198.045,167.016L198.036,166.981L198.029,166.946L198.026,166.91L198.024,166.874L198.056,166.7L198.171,166.521L198.317,166.419L198.524,166.374Z" style="fill:none;fill-rule:nonzero;stroke:rgb(0,0,255);stroke-width:1px;"/>
        <path d="M184.352,172.518L184.388,172.52L184.459,172.53L184.56,172.563L184.706,172.665L184.807,172.811L184.852,173.018L184.821,173.193L184.706,173.372L184.527,173.487L184.424,173.513L184.388,173.517L184.352,173.518L184.144,173.473L183.999,173.372L183.884,173.193L183.852,173.018L183.897,172.811L183.999,172.665L184.144,172.563L184.245,172.53L184.316,172.52L184.352,172.518Z" style="fill:none;fill-rule:nonzero;stroke:rgb(0,0,255);stroke-width:1px;"/>
        <path d="M184.352,171.066L184.527,171.098L184.706,171.213L184.821,171.391L184.832,171.425L184.841,171.459L184.847,171.494L184.852,171.566L184.807,171.774L184.706,171.92L184.527,172.035L184.424,172.061L184.388,172.065L184.352,172.066L184.316,172.065L184.245,172.055L184.144,172.021L183.999,171.92L183.897,171.774L183.852,171.566L183.884,171.391L183.999,171.213L184.144,171.111L184.352,171.066Z" style="fill:none;fill-rule:nonzero;stroke:rgb(0,0,255);stroke-width:1px;"/>
        <path d="M194.172,148.613L194.38,148.658L194.526,148.759L194.627,148.905L194.672,149.113L194.627,149.32L194.526,149.466L194.38,149.568L194.172,149.613L193.997,149.581L193.819,149.466L193.704,149.288L193.677,149.184L193.674,149.149L193.672,149.113L193.717,148.905L193.819,148.759L193.997,148.644L194.172,148.613Z" style="fill:none;fill-rule:nonzero;stroke:rgb(0,0,255);stroke-width:1px;"/>
        <path d="M197.185,149.283L197.393,149.328L197.539,149.43L197.64,149.575L197.685,149.783L197.654,149.958L197.539,150.137L197.393,150.238L197.185,150.283L197.01,150.252L196.832,150.137L196.717,149.958L196.685,149.783L196.73,149.575L196.764,149.513L196.785,149.484L196.832,149.43L197.01,149.315L197.185,149.283Z" style="fill:none;fill-rule:nonzero;stroke:rgb(0,0,255);stroke-width:1px;"/>
        <path d="M178.549,149.283L178.757,149.328L178.903,149.43L179.004,149.575L179.038,149.676L179.048,149.747L179.049,149.783L179.018,149.958L178.903,150.137L178.757,150.238L178.549,150.283L178.374,150.252L178.196,150.137L178.081,149.958L178.054,149.855L178.051,149.819L178.049,149.783L178.094,149.575L178.196,149.43L178.374,149.315L178.549,149.283Z" style="fill:none;fill-rule:nonzero;stroke:rgb(0,0,255);stroke-width:1px;"/>
        <path d="M182.567,139.788L182.774,139.833L182.92,139.934L183.021,140.08L183.067,140.288L183.035,140.463L182.987,140.558L182.967,140.587L182.945,140.615L182.92,140.641L182.774,140.743L182.567,140.788L182.392,140.756L182.213,140.641L182.189,140.615L182.166,140.587L182.146,140.558L182.098,140.463L182.067,140.288L182.112,140.08L182.213,139.934L182.359,139.833L182.567,139.788Z" style="fill:none;fill-rule:nonzero;stroke:rgb(0,0,255);stroke-width:1px;"/>
        <path d="M167.39,149.395L167.565,149.426L167.744,149.541L167.845,149.687L167.879,149.788L167.889,149.859L167.89,149.895L167.859,150.07L167.744,150.248L167.565,150.363L167.39,150.395L167.182,150.35L167.12,150.316L167.091,150.295L167.037,150.248L166.935,150.102L166.89,149.895L166.935,149.687L167.037,149.541L167.182,149.44L167.39,149.395Z" style="fill:none;fill-rule:nonzero;stroke:rgb(0,0,255);stroke-width:1px;"/>
        <path d="M161.476,157.885L161.683,157.93L161.746,157.964L161.775,157.984L161.829,158.031L161.854,158.057L161.876,158.085L161.931,158.177L161.976,158.385L161.931,158.592L161.829,158.738L161.683,158.839L161.476,158.885L161.268,158.839L161.122,158.738L161.021,158.592L160.976,158.385L161.007,158.21L161.122,158.031L161.301,157.916L161.476,157.885Z" style="fill:none;fill-rule:nonzero;stroke:rgb(0,0,255);stroke-width:1px;"/>
        <path d="M166.051,137.442L166.226,137.474L166.405,137.588L166.519,137.767L166.551,137.942L166.506,138.15L166.405,138.296L166.226,138.41L166.051,138.442L166.015,138.441L165.979,138.437L165.944,138.431L165.843,138.397L165.697,138.296L165.596,138.15L165.551,137.942L165.583,137.767L165.697,137.588L165.843,137.487L166.051,137.442Z" style="fill:none;fill-rule:nonzero;stroke:rgb(0,0,255);stroke-width:1px;"/>
    </g>
</svg>
