<?xml version="1.0" encoding="UTF-8" standalone="no"?>
<!DOCTYPE svg PUBLIC "-//W3C//DTD SVG 1.1//EN" "http://www.w3.org/Graphics/SVG/1.1/DTD/svg11.dtd">
<svg width="100%" height="100%" viewBox="0 0 360 360" version="1.1" xmlns="http://www.w3.org/2000/svg" xmlns:xlink="http://www.w3.org/1999/xlink" xml:space="preserve" xmlns:serif="http://www.serif.com/" style="fill-rule:evenodd;clip-rule:evenodd;">
    <g id="_1" serif:id="1" transform="matrix(5.43653,0,0,5.43653,-798.575,-798.34)">
        <path d="M187.48,180L200.748,160.996" style="fill:none;fill-rule:nonzero;stroke:rgb(0,0,255);stroke-width:1px;"/>
        <path d="M205.226,161.051L200.748,160.996" style="fill:none;fill-rule:nonzero;stroke:rgb(0,0,255);stroke-width:1px;"/>
        <path d="M186.88,197.311L173.885,211.728" style="fill:none;fill-rule:nonzero;stroke:rgb(0,0,255);stroke-width:1px;"/>
        <path d="M170.172,192.287L152.372,204.52" style="fill:none;fill-rule:nonzero;stroke:rgb(0,0,255);stroke-width:1px;"/>
        <path d="M185.023,177.87L186.88,197.311" style="fill:none;fill-rule:nonzero;stroke:rgb(0,0,255);stroke-width:1px;"/>
        <path d="M189.937,182.13L170.172,192.287" style="fill:none;fill-rule:nonzero;stroke:rgb(0,0,255);stroke-width:1px;"/>
        <path d="M189.937,182.13L185.023,177.87" style="fill:none;fill-rule:nonzero;stroke:rgb(0,0,255);stroke-width:1px;"/>
        <path d="M185.242,155.262L176.615,148.272" style="fill:none;fill-rule:nonzero;stroke:rgb(0,0,255);stroke-width:1px;"/>
        <path d="M206.864,166.075L205.335,172.082" style="fill:none;fill-rule:nonzero;stroke:rgb(0,0,255);stroke-width:1px;"/>
        <path d="M193.869,158.648L185.242,155.262" style="fill:none;fill-rule:nonzero;stroke:rgb(0,0,255);stroke-width:1px;"/>
        <path d="M207.628,163.344L206.864,166.075" style="fill:none;fill-rule:nonzero;stroke:rgb(0,0,255);stroke-width:1px;"/>
        <path d="M207.628,163.344L193.869,158.648" style="fill:none;fill-rule:nonzero;stroke:rgb(0,0,255);stroke-width:1px;"/>
        <path d="M173.885,211.228L174.092,211.273L174.184,211.327L174.212,211.35L174.238,211.374L174.353,211.553L174.385,211.728L174.34,211.936L174.238,212.082L174.092,212.183L173.885,212.228L173.71,212.196L173.531,212.082L173.43,211.936L173.385,211.728L173.416,211.553L173.531,211.374L173.71,211.26L173.885,211.228Z" style="fill:none;fill-rule:nonzero;stroke:rgb(0,0,255);stroke-width:1px;"/>
        <path d="M152.372,204.02L152.58,204.065L152.726,204.166L152.75,204.192L152.773,204.22L152.793,204.25L152.84,204.345L152.872,204.52L152.84,204.694L152.726,204.873L152.58,204.974L152.372,205.02L152.197,204.988L152.018,204.873L151.904,204.694L151.872,204.52L151.904,204.345L152.018,204.166L152.197,204.051L152.372,204.02Z" style="fill:none;fill-rule:nonzero;stroke:rgb(0,0,255);stroke-width:1px;"/>
        <path d="M186.88,196.811L187.087,196.856L187.233,196.958L187.335,197.104L187.38,197.311L187.348,197.486L187.233,197.665L187.087,197.766L186.88,197.811L186.705,197.78L186.61,197.732L186.553,197.689L186.526,197.665L186.411,197.486L186.38,197.311L186.425,197.104L186.526,196.958L186.705,196.843L186.808,196.816L186.844,196.812L186.88,196.811Z" style="fill:none;fill-rule:nonzero;stroke:rgb(0,0,255);stroke-width:1px;"/>
        <path d="M170.172,191.787L170.379,191.832L170.525,191.934L170.572,191.988L170.593,192.017L170.611,192.048L170.627,192.079L170.672,192.287L170.627,192.495L170.525,192.641L170.379,192.742L170.172,192.787L169.997,192.756L169.818,192.641L169.794,192.614L169.771,192.586L169.751,192.557L169.703,192.462L169.672,192.287L169.717,192.079L169.818,191.934L169.997,191.819L170.172,191.787Z" style="fill:none;fill-rule:nonzero;stroke:rgb(0,0,255);stroke-width:1px;"/>
        <path d="M185.023,177.37L185.231,177.415L185.377,177.517L185.478,177.663L185.523,177.87L185.492,178.045L185.444,178.14L185.401,178.197L185.377,178.224L185.231,178.325L185.13,178.359L185.095,178.365L185.059,178.369L185.023,178.37L184.848,178.339L184.67,178.224L184.555,178.045L184.523,177.87L184.568,177.663L184.67,177.517L184.848,177.402L185.023,177.37Z" style="fill:none;fill-rule:nonzero;stroke:rgb(0,0,255);stroke-width:1px;"/>
        <path d="M189.937,181.63L190.112,181.661L190.291,181.776L190.406,181.955L190.437,182.13L190.392,182.337L190.291,182.483L190.112,182.598L189.937,182.63L189.73,182.585L189.584,182.483L189.537,182.429L189.516,182.4L189.498,182.369L189.482,182.337L189.437,182.13L189.469,181.955L189.516,181.86L189.559,181.803L189.584,181.776L189.73,181.675L189.937,181.63Z" style="fill:none;fill-rule:nonzero;stroke:rgb(0,0,255);stroke-width:1px;"/>
        <path d="M176.615,147.772L176.79,147.804L176.968,147.918L177.083,148.097L177.115,148.272L177.07,148.48L177.015,148.571L176.993,148.599L176.968,148.626L176.79,148.74L176.615,148.772L176.44,148.74L176.261,148.626L176.16,148.48L176.115,148.272L176.146,148.097L176.261,147.918L176.44,147.804L176.615,147.772Z" style="fill:none;fill-rule:nonzero;stroke:rgb(0,0,255);stroke-width:1px;"/>
        <path d="M205.335,171.582L205.406,171.587L205.442,171.593L205.476,171.602L205.51,171.613L205.688,171.728L205.803,171.907L205.835,172.082L205.79,172.289L205.688,172.435L205.542,172.537L205.335,172.582L205.127,172.537L204.981,172.435L204.88,172.289L204.835,172.082L204.866,171.907L204.981,171.728L205.16,171.613L205.335,171.582Z" style="fill:none;fill-rule:nonzero;stroke:rgb(0,0,255);stroke-width:1px;"/>
        <path d="M185.242,154.762L185.417,154.794L185.595,154.908L185.697,155.054L185.742,155.262L185.71,155.437L185.697,155.47L185.681,155.501L185.663,155.532L185.595,155.616L185.417,155.73L185.242,155.762L185.034,155.717L184.888,155.616L184.787,155.47L184.742,155.262L184.787,155.054L184.841,154.963L184.864,154.935L184.888,154.908L185.034,154.807L185.242,154.762Z" style="fill:none;fill-rule:nonzero;stroke:rgb(0,0,255);stroke-width:1px;"/>
        <path d="M206.864,165.575L206.935,165.58L206.97,165.586L207.005,165.595L207.038,165.606L207.217,165.721L207.332,165.9L207.364,166.075L207.319,166.282L207.217,166.428L207.038,166.543L206.864,166.575L206.757,166.563L206.722,166.554L206.656,166.529L206.51,166.428L206.409,166.282L206.364,166.075L206.395,165.9L206.51,165.721L206.656,165.62L206.864,165.575Z" style="fill:none;fill-rule:nonzero;stroke:rgb(0,0,255);stroke-width:1px;"/>
        <path d="M193.869,158.148L194.076,158.193L194.222,158.294L194.323,158.44L194.369,158.648L194.363,158.719L194.357,158.754L194.348,158.789L194.337,158.823L194.222,159.001L194.076,159.103L193.869,159.148L193.694,159.116L193.515,159.001L193.4,158.823L193.369,158.648L193.38,158.541L193.389,158.507L193.4,158.473L193.414,158.44L193.515,158.294L193.694,158.179L193.869,158.148Z" style="fill:none;fill-rule:nonzero;stroke:rgb(0,0,255);stroke-width:1px;"/>
        <path d="M207.628,162.844L207.803,162.876L207.982,162.991L208.096,163.169L208.128,163.344L208.083,163.552L207.982,163.698L207.803,163.813L207.628,163.844L207.521,163.833L207.487,163.824L207.42,163.799L207.274,163.698L207.173,163.552L207.128,163.344L207.133,163.273L207.14,163.237L207.148,163.203L207.16,163.169L207.274,162.991L207.42,162.889L207.628,162.844Z" style="fill:none;fill-rule:nonzero;stroke:rgb(0,0,255);stroke-width:1px;"/>
        <path d="M205.226,160.551L205.433,160.596L205.579,160.697L205.68,160.843L205.726,161.051L205.68,161.258L205.579,161.404L205.433,161.505L205.226,161.551L205.018,161.505L204.872,161.404L204.771,161.258L204.726,161.051L204.727,161.015L204.737,160.944L204.771,160.843L204.872,160.697L205.018,160.596L205.226,160.551Z" style="fill:none;fill-rule:nonzero;stroke:rgb(0,0,255);stroke-width:1px;"/>
    </g>
</svg>
