<?xml version="1.0" encoding="UTF-8" standalone="no"?>
<!DOCTYPE svg PUBLIC "-//W3C//DTD SVG 1.1//EN" "http://www.w3.org/Graphics/SVG/1.1/DTD/svg11.dtd">
<svg width="100%" height="100%" viewBox="0 0 360 360" version="1.1" xmlns="http://www.w3.org/2000/svg" xmlns:xlink="http://www.w3.org/1999/xlink" xml:space="preserve" xmlns:serif="http://www.serif.com/" style="fill-rule:evenodd;clip-rule:evenodd;">
    <g id="_1" serif:id="1" transform="matrix(4.50264,0,0,4.50264,-630.475,-630.113)">
        <path d="M173.81,180.2L176.006,157.068" style="fill:none;fill-rule:nonzero;stroke:rgb(0,0,255);stroke-width:1px;"/>
        <path d="M176.106,142.729L176.006,157.068" style="fill:none;fill-rule:nonzero;stroke:rgb(0,0,255);stroke-width:1px;"/>
        <path d="M159.033,199.784L169.716,218.47" style="fill:none;fill-rule:nonzero;stroke:rgb(0,0,255);stroke-width:1px;"/>
        <path d="M172.612,205.38L181.897,213.973" style="fill:none;fill-rule:nonzero;stroke:rgb(0,0,255);stroke-width:1px;"/>
        <path d="M169.816,179.5L159.033,199.784" style="fill:none;fill-rule:nonzero;stroke:rgb(0,0,255);stroke-width:1px;"/>
        <path d="M177.803,180.899L172.612,205.38" style="fill:none;fill-rule:nonzero;stroke:rgb(0,0,255);stroke-width:1px;"/>
        <path d="M177.803,180.899L169.816,179.5" style="fill:none;fill-rule:nonzero;stroke:rgb(0,0,255);stroke-width:1px;"/>
        <path d="M160.83,152.522L156.037,141.53" style="fill:none;fill-rule:nonzero;stroke:rgb(0,0,255);stroke-width:1px;"/>
        <path d="M197.473,157.418L203.963,147.825" style="fill:none;fill-rule:nonzero;stroke:rgb(0,0,255);stroke-width:1px;"/>
        <path d="M170.615,155.919L160.83,152.522" style="fill:none;fill-rule:nonzero;stroke:rgb(0,0,255);stroke-width:1px;"/>
        <path d="M181.398,158.217L197.473,157.418" style="fill:none;fill-rule:nonzero;stroke:rgb(0,0,255);stroke-width:1px;"/>
        <path d="M181.398,158.217L170.615,155.919" style="fill:none;fill-rule:nonzero;stroke:rgb(0,0,255);stroke-width:1px;"/>
        <path d="M169.716,217.97L169.924,218.015L170.07,218.116L170.171,218.262L170.216,218.47L170.184,218.644L170.07,218.823L169.924,218.924L169.716,218.97L169.541,218.938L169.362,218.823L169.248,218.644L169.216,218.47L169.261,218.262L169.362,218.116L169.446,218.049L169.477,218.031L169.541,218.001L169.716,217.97Z" style="fill:none;fill-rule:nonzero;stroke:rgb(0,0,255);stroke-width:1px;"/>
        <path d="M181.897,213.473L182.072,213.505L182.251,213.62L182.352,213.766L182.397,213.973L182.365,214.148L182.251,214.327L182.072,214.442L181.897,214.473L181.689,214.428L181.543,214.327L181.442,214.181L181.397,213.973L181.442,213.766L181.496,213.674L181.519,213.646L181.543,213.62L181.689,213.518L181.897,213.473Z" style="fill:none;fill-rule:nonzero;stroke:rgb(0,0,255);stroke-width:1px;"/>
        <path d="M159.033,199.284L159.24,199.329L159.272,199.345L159.303,199.363L159.332,199.384L159.386,199.431L159.488,199.577L159.533,199.784L159.488,199.992L159.386,200.138L159.332,200.185L159.303,200.205L159.272,200.223L159.24,200.239L159.033,200.284L158.858,200.253L158.679,200.138L158.564,199.959L158.533,199.784L158.578,199.577L158.679,199.431L158.825,199.329L159.033,199.284Z" style="fill:none;fill-rule:nonzero;stroke:rgb(0,0,255);stroke-width:1px;"/>
        <path d="M172.612,204.88L172.683,204.885L172.718,204.891L172.786,204.912L172.965,205.026L173.08,205.205L173.112,205.38L173.066,205.588L173.012,205.679L172.99,205.707L172.965,205.733L172.819,205.835L172.612,205.88L172.404,205.835L172.258,205.733L172.157,205.588L172.112,205.38L172.143,205.205L172.258,205.026L172.404,204.925L172.612,204.88Z" style="fill:none;fill-rule:nonzero;stroke:rgb(0,0,255);stroke-width:1px;"/>
        <path d="M169.816,179L170.023,179.046L170.169,179.147L170.271,179.293L170.316,179.5L170.311,179.572L170.304,179.607L170.284,179.675L170.169,179.854L170.023,179.955L169.816,180L169.641,179.969L169.608,179.955L169.577,179.939L169.546,179.921L169.462,179.854L169.347,179.675L169.316,179.5L169.361,179.293L169.462,179.147L169.608,179.046L169.816,179Z" style="fill:none;fill-rule:nonzero;stroke:rgb(0,0,255);stroke-width:1px;"/>
        <path d="M177.803,180.399L178.011,180.444L178.157,180.546L178.258,180.692L178.303,180.899L178.272,181.074L178.157,181.253L178.011,181.354L177.803,181.399L177.732,181.394L177.697,181.388L177.629,181.368L177.45,181.253L177.335,181.074L177.303,180.899L177.305,180.863L177.309,180.828L177.315,180.793L177.349,180.692L177.45,180.546L177.629,180.431L177.803,180.399Z" style="fill:none;fill-rule:nonzero;stroke:rgb(0,0,255);stroke-width:1px;"/>
        <path d="M156.037,141.03L156.212,141.062L156.391,141.177L156.492,141.323L156.537,141.53L156.506,141.705L156.391,141.884L156.307,141.951L156.277,141.969L156.245,141.985L156.212,141.999L156.037,142.03L155.83,141.985L155.684,141.884L155.569,141.705L155.537,141.53L155.583,141.323L155.684,141.177L155.83,141.076L156.037,141.03Z" style="fill:none;fill-rule:nonzero;stroke:rgb(0,0,255);stroke-width:1px;"/>
        <path d="M203.963,147.325L204.137,147.357L204.316,147.472L204.431,147.651L204.463,147.825L204.417,148.033L204.316,148.179L204.137,148.294L203.963,148.325L203.755,148.28L203.693,148.246L203.663,148.226L203.609,148.179L203.508,148.033L203.463,147.825L203.494,147.651L203.609,147.472L203.755,147.371L203.963,147.325Z" style="fill:none;fill-rule:nonzero;stroke:rgb(0,0,255);stroke-width:1px;"/>
        <path d="M160.83,152.022L161.038,152.067L161.183,152.168L161.285,152.314L161.33,152.522L161.325,152.593L161.318,152.628L161.31,152.663L161.298,152.697L161.183,152.875L161.038,152.977L160.83,153.022L160.655,152.99L160.476,152.875L160.361,152.697L160.33,152.522L160.375,152.314L160.476,152.168L160.56,152.101L160.591,152.083L160.622,152.067L160.655,152.053L160.83,152.022Z" style="fill:none;fill-rule:nonzero;stroke:rgb(0,0,255);stroke-width:1px;"/>
        <path d="M197.473,156.918L197.648,156.949L197.743,156.997L197.772,157.017L197.8,157.04L197.826,157.064L197.941,157.243L197.973,157.418L197.928,157.625L197.826,157.771L197.648,157.886L197.473,157.918L197.298,157.886L197.119,157.771L197.018,157.625L196.984,157.525L196.974,157.454L196.973,157.418L197.004,157.243L197.119,157.064L197.298,156.949L197.473,156.918Z" style="fill:none;fill-rule:nonzero;stroke:rgb(0,0,255);stroke-width:1px;"/>
        <path d="M170.615,155.419L170.789,155.451L170.968,155.565L171.083,155.744L171.115,155.919L171.113,155.955L171.109,155.991L171.103,156.026L171.069,156.127L170.968,156.273L170.789,156.387L170.615,156.419L170.407,156.374L170.261,156.273L170.16,156.127L170.115,155.919L170.12,155.847L170.126,155.812L170.135,155.778L170.146,155.744L170.261,155.565L170.407,155.464L170.615,155.419Z" style="fill:none;fill-rule:nonzero;stroke:rgb(0,0,255);stroke-width:1px;"/>
        <path d="M181.398,157.717L181.605,157.762L181.751,157.864L181.866,158.042L181.893,158.146L181.897,158.181L181.898,158.217L181.866,158.392L181.751,158.571L181.605,158.672L181.398,158.717L181.223,158.686L181.044,158.571L180.929,158.392L180.898,158.217L180.903,158.146L180.909,158.11L180.929,158.042L181.044,157.864L181.223,157.749L181.398,157.717Z" style="fill:none;fill-rule:nonzero;stroke:rgb(0,0,255);stroke-width:1px;"/>
        <path d="M176.106,142.229L176.281,142.261L176.46,142.376L176.561,142.522L176.606,142.729L176.575,142.904L176.46,143.083L176.281,143.198L176.106,143.229L176.07,143.228L175.999,143.218L175.898,143.184L175.753,143.083L175.638,142.904L175.606,142.729L175.651,142.522L175.753,142.376L175.898,142.275L176.106,142.229Z" style="fill:none;fill-rule:nonzero;stroke:rgb(0,0,255);stroke-width:1px;"/>
    </g>
</svg>
