<?xml version="1.0" encoding="UTF-8" standalone="no"?>
<!DOCTYPE svg PUBLIC "-//W3C//DTD SVG 1.1//EN" "http://www.w3.org/Graphics/SVG/1.1/DTD/svg11.dtd">
<svg width="100%" height="100%" viewBox="0 0 360 360" version="1.1" xmlns="http://www.w3.org/2000/svg" xmlns:xlink="http://www.w3.org/1999/xlink" xml:space="preserve" xmlns:serif="http://www.serif.com/" style="fill-rule:evenodd;clip-rule:evenodd;">
    <g id="_1" serif:id="1" transform="matrix(6.40066,0,0,6.40066,-972.118,-971.808)">
        <path d="M193.876,184.743L177.105,175.956" style="fill:none;fill-rule:nonzero;stroke:rgb(0,0,255);stroke-width:1px;"/>
        <path d="M172.862,180.499L177.105,175.956" style="fill:none;fill-rule:nonzero;stroke:rgb(0,0,255);stroke-width:1px;"/>
        <path d="M177.954,193.681L164.876,206.063" style="fill:none;fill-rule:nonzero;stroke:rgb(0,0,255);stroke-width:1px;"/>
        <path d="M183.244,188.987L190.831,206.163" style="fill:none;fill-rule:nonzero;stroke:rgb(0,0,255);stroke-width:1px;"/>
        <path d="M189.034,184.194L177.954,193.681" style="fill:none;fill-rule:nonzero;stroke:rgb(0,0,255);stroke-width:1px;"/>
        <path d="M198.718,185.292L183.244,188.987" style="fill:none;fill-rule:nonzero;stroke:rgb(0,0,255);stroke-width:1px;"/>
        <path d="M198.718,185.292L189.034,184.194" style="fill:none;fill-rule:nonzero;stroke:rgb(0,0,255);stroke-width:1px;"/>
        <path d="M166.673,190.984L161.282,153.837" style="fill:none;fill-rule:nonzero;stroke:rgb(0,0,255);stroke-width:1px;"/>
        <path d="M171.565,160.028L162.381,154.836" style="fill:none;fill-rule:nonzero;stroke:rgb(0,0,255);stroke-width:1px;"/>
        <path d="M174.759,181.897L166.673,190.984" style="fill:none;fill-rule:nonzero;stroke:rgb(0,0,255);stroke-width:1px;"/>
        <path d="M179.451,170.014L171.565,160.028" style="fill:none;fill-rule:nonzero;stroke:rgb(0,0,255);stroke-width:1px;"/>
        <path d="M179.451,170.014L174.759,181.897" style="fill:none;fill-rule:nonzero;stroke:rgb(0,0,255);stroke-width:1px;"/>
        <path d="M164.876,205.563L165.051,205.594L165.23,205.709L165.254,205.736L165.297,205.793L165.345,205.888L165.376,206.063L165.331,206.271L165.23,206.416L165.051,206.531L164.876,206.563L164.669,206.518L164.523,206.416L164.421,206.271L164.376,206.063L164.421,205.855L164.523,205.709L164.669,205.608L164.876,205.563Z" style="fill:none;fill-rule:nonzero;stroke:rgb(0,0,255);stroke-width:1px;"/>
        <path d="M190.831,205.663L191.039,205.708L191.185,205.809L191.286,205.955L191.331,206.163L191.286,206.37L191.185,206.516L191.039,206.618L190.831,206.663L190.656,206.631L190.478,206.516L190.363,206.338L190.331,206.163L190.376,205.955L190.478,205.809L190.561,205.742L190.592,205.724L190.624,205.708L190.656,205.694L190.831,205.663Z" style="fill:none;fill-rule:nonzero;stroke:rgb(0,0,255);stroke-width:1px;"/>
        <path d="M177.954,193.181L178.161,193.226L178.307,193.327L178.332,193.353L178.354,193.381L178.408,193.473L178.454,193.681L178.408,193.888L178.307,194.034L178.161,194.135L177.954,194.181L177.746,194.135L177.6,194.034L177.575,194.008L177.553,193.98L177.499,193.888L177.454,193.681L177.485,193.506L177.6,193.327L177.779,193.212L177.954,193.181Z" style="fill:none;fill-rule:nonzero;stroke:rgb(0,0,255);stroke-width:1px;"/>
        <path d="M183.244,188.487L183.452,188.532L183.598,188.634L183.645,188.688L183.665,188.717L183.683,188.748L183.699,188.78L183.724,188.846L183.733,188.88L183.744,188.987L183.713,189.162L183.598,189.341L183.452,189.442L183.419,189.456L183.386,189.467L183.351,189.476L183.244,189.487L183.07,189.456L182.974,189.408L182.945,189.388L182.917,189.365L182.891,189.341L182.776,189.162L182.744,188.987L182.79,188.78L182.891,188.634L183.07,188.519L183.244,188.487Z" style="fill:none;fill-rule:nonzero;stroke:rgb(0,0,255);stroke-width:1px;"/>
        <path d="M189.034,183.694L189.209,183.726L189.388,183.84L189.489,183.986L189.534,184.194L189.533,184.23L189.529,184.266L189.523,184.301L189.489,184.402L189.388,184.548L189.209,184.662L189.034,184.694L188.827,184.649L188.681,184.548L188.656,184.521L188.634,184.493L188.579,184.402L188.534,184.194L188.579,183.986L188.681,183.84L188.827,183.739L189.034,183.694Z" style="fill:none;fill-rule:nonzero;stroke:rgb(0,0,255);stroke-width:1px;"/>
        <path d="M198.718,184.792L198.925,184.838L199.071,184.939L199.172,185.085L199.218,185.292L199.186,185.467L199.071,185.646L198.925,185.747L198.718,185.792L198.543,185.761L198.364,185.646L198.249,185.467L198.238,185.434L198.229,185.399L198.223,185.364L198.218,185.292L198.219,185.256L198.223,185.221L198.229,185.186L198.263,185.085L198.364,184.939L198.543,184.824L198.718,184.792Z" style="fill:none;fill-rule:nonzero;stroke:rgb(0,0,255);stroke-width:1px;"/>
        <path d="M161.282,153.337L161.49,153.382L161.636,153.484L161.737,153.63L161.782,153.837L161.737,154.045L161.636,154.191L161.49,154.292L161.389,154.326L161.354,154.332L161.318,154.336L161.282,154.337L161.108,154.306L160.929,154.191L160.814,154.012L160.782,153.837L160.814,153.662L160.929,153.484L161.108,153.369L161.282,153.337Z" style="fill:none;fill-rule:nonzero;stroke:rgb(0,0,255);stroke-width:1px;"/>
        <path d="M162.381,154.336L162.555,154.367L162.734,154.482L162.835,154.628L162.881,154.836L162.849,155.011L162.82,155.075L162.801,155.106L162.734,155.189L162.555,155.304L162.381,155.336L162.173,155.291L162.027,155.189L161.912,155.011L161.881,154.836L161.926,154.628L162.027,154.482L162.173,154.381L162.381,154.336Z" style="fill:none;fill-rule:nonzero;stroke:rgb(0,0,255);stroke-width:1px;"/>
        <path d="M166.673,190.484L166.881,190.53L166.972,190.584L167,190.606L167.027,190.631L167.128,190.777L167.173,190.984L167.128,191.192L167.027,191.338L166.881,191.439L166.673,191.484L166.465,191.439L166.32,191.338L166.218,191.192L166.173,190.984L166.218,190.777L166.32,190.631L166.465,190.53L166.566,190.496L166.601,190.49L166.637,190.486L166.673,190.484Z" style="fill:none;fill-rule:nonzero;stroke:rgb(0,0,255);stroke-width:1px;"/>
        <path d="M171.565,159.528L171.772,159.574L171.918,159.675L172.019,159.821L172.065,160.028L172.033,160.203L171.918,160.382L171.892,160.407L171.864,160.429L171.772,160.483L171.565,160.528L171.39,160.497L171.211,160.382L171.096,160.203L171.065,160.028L171.11,159.821L171.126,159.789L171.144,159.758L171.164,159.729L171.211,159.675L171.39,159.56L171.565,159.528Z" style="fill:none;fill-rule:nonzero;stroke:rgb(0,0,255);stroke-width:1px;"/>
        <path d="M174.759,181.397L174.866,181.409L174.9,181.418L174.934,181.429L174.967,181.442L175.113,181.544L175.228,181.722L175.259,181.897L175.214,182.105L175.113,182.251L174.967,182.352L174.759,182.397L174.584,182.366L174.489,182.318L174.432,182.275L174.406,182.251L174.304,182.105L174.259,181.897L174.291,181.722L174.406,181.544L174.584,181.429L174.759,181.397Z" style="fill:none;fill-rule:nonzero;stroke:rgb(0,0,255);stroke-width:1px;"/>
        <path d="M179.451,169.514L179.659,169.559L179.805,169.661L179.906,169.807L179.951,170.014L179.919,170.189L179.805,170.368L179.659,170.469L179.451,170.514L179.276,170.483L179.243,170.469L179.212,170.453L179.181,170.435L179.097,170.368L178.983,170.189L178.951,170.014L178.996,169.807L179.097,169.661L179.124,169.636L179.152,169.614L179.181,169.593L179.276,169.546L179.451,169.514Z" style="fill:none;fill-rule:nonzero;stroke:rgb(0,0,255);stroke-width:1px;"/>
        <path d="M172.862,179.999L173.07,180.044L173.162,180.099L173.19,180.121L173.216,180.146L173.331,180.324L173.362,180.499L173.317,180.707L173.216,180.853L173.07,180.954L172.862,180.999L172.688,180.968L172.509,180.853L172.408,180.707L172.362,180.499L172.394,180.324L172.509,180.146L172.688,180.031L172.862,179.999Z" style="fill:none;fill-rule:nonzero;stroke:rgb(0,0,255);stroke-width:1px;"/>
    </g>
</svg>
