<?xml version="1.0" encoding="UTF-8" standalone="no"?>
<!DOCTYPE svg PUBLIC "-//W3C//DTD SVG 1.1//EN" "http://www.w3.org/Graphics/SVG/1.1/DTD/svg11.dtd">
<svg width="100%" height="100%" viewBox="0 0 360 360" version="1.1" xmlns="http://www.w3.org/2000/svg" xmlns:xlink="http://www.w3.org/1999/xlink" xml:space="preserve" xmlns:serif="http://www.serif.com/" style="fill-rule:evenodd;clip-rule:evenodd;">
    <g id="_1" serif:id="1" transform="matrix(4.72586,0,0,4.72586,-670.655,-670.776)">
        <path d="M177.275,186.058L180.864,162.957" style="fill:none;fill-rule:nonzero;stroke:rgb(0,0,255);stroke-width:1px;"/>
        <path d="M185.516,156.633L180.864,162.957" style="fill:none;fill-rule:nonzero;stroke:rgb(0,0,255);stroke-width:1px;"/>
        <path d="M179.269,201.77L163.852,206.563" style="fill:none;fill-rule:nonzero;stroke:rgb(0,0,255);stroke-width:1px;"/>
        <path d="M183.256,200.571L178.339,216.682" style="fill:none;fill-rule:nonzero;stroke:rgb(0,0,255);stroke-width:1px;"/>
        <path d="M175.282,186.857L179.269,201.77" style="fill:none;fill-rule:nonzero;stroke:rgb(0,0,255);stroke-width:1px;"/>
        <path d="M179.269,185.259L183.256,200.571" style="fill:none;fill-rule:nonzero;stroke:rgb(0,0,255);stroke-width:1px;"/>
        <path d="M179.269,185.259L175.282,186.857" style="fill:none;fill-rule:nonzero;stroke:rgb(0,0,255);stroke-width:1px;"/>
        <path d="M181.528,152.905L183.655,143.318" style="fill:none;fill-rule:nonzero;stroke:rgb(0,0,255);stroke-width:1px;"/>
        <path d="M190.034,155.168L196.148,146.114" style="fill:none;fill-rule:nonzero;stroke:rgb(0,0,255);stroke-width:1px;"/>
        <path d="M177.94,164.222L181.528,152.905" style="fill:none;fill-rule:nonzero;stroke:rgb(0,0,255);stroke-width:1px;"/>
        <path d="M183.788,161.692L190.034,155.168" style="fill:none;fill-rule:nonzero;stroke:rgb(0,0,255);stroke-width:1px;"/>
        <path d="M183.788,161.692L177.94,164.222" style="fill:none;fill-rule:nonzero;stroke:rgb(0,0,255);stroke-width:1px;"/>
        <path d="M163.852,206.063L164.027,206.094L164.206,206.209L164.307,206.355L164.321,206.388L164.332,206.422L164.341,206.456L164.352,206.563L164.307,206.77L164.206,206.916L164.06,207.018L163.852,207.063L163.677,207.031L163.499,206.916L163.384,206.738L163.352,206.563L163.384,206.388L163.499,206.209L163.677,206.094L163.852,206.063Z" style="fill:none;fill-rule:nonzero;stroke:rgb(0,0,255);stroke-width:1px;"/>
        <path d="M178.339,216.182L178.445,216.193L178.48,216.202L178.514,216.214L178.546,216.227L178.692,216.328L178.794,216.474L178.839,216.682L178.807,216.857L178.692,217.036L178.514,217.15L178.339,217.182L178.164,217.15L177.985,217.036L177.87,216.857L177.839,216.682L177.87,216.507L177.985,216.328L178.131,216.227L178.339,216.182Z" style="fill:none;fill-rule:nonzero;stroke:rgb(0,0,255);stroke-width:1px;"/>
        <path d="M179.269,201.27L179.477,201.315L179.623,201.416L179.724,201.562L179.769,201.77L179.724,201.977L179.623,202.123L179.444,202.238L179.269,202.27L179.094,202.238L178.915,202.123L178.801,201.944L178.789,201.911L178.781,201.876L178.774,201.841L178.769,201.77L178.801,201.595L178.915,201.416L179.094,201.301L179.128,201.29L179.162,201.281L179.197,201.275L179.269,201.27Z" style="fill:none;fill-rule:nonzero;stroke:rgb(0,0,255);stroke-width:1px;"/>
        <path d="M183.256,200.071L183.431,200.103L183.61,200.218L183.725,200.396L183.756,200.571L183.725,200.746L183.61,200.925L183.464,201.026L183.256,201.071L183.149,201.06L183.115,201.051L183.081,201.04L183.049,201.026L182.903,200.925L182.788,200.746L182.756,200.571L182.788,200.396L182.903,200.218L183.081,200.103L183.115,200.092L183.149,200.083L183.185,200.076L183.256,200.071Z" style="fill:none;fill-rule:nonzero;stroke:rgb(0,0,255);stroke-width:1px;"/>
        <path d="M175.282,186.357L175.457,186.389L175.635,186.504L175.737,186.649L175.75,186.682L175.762,186.716L175.77,186.75L175.782,186.857L175.737,187.065L175.635,187.211L175.49,187.312L175.423,187.337L175.389,187.346L175.282,187.357L175.074,187.312L174.928,187.211L174.813,187.032L174.782,186.857L174.813,186.682L174.928,186.504L175.107,186.389L175.282,186.357Z" style="fill:none;fill-rule:nonzero;stroke:rgb(0,0,255);stroke-width:1px;"/>
        <path d="M179.269,184.759L179.444,184.791L179.623,184.906L179.724,185.052L179.769,185.259L179.724,185.467L179.623,185.613L179.444,185.728L179.41,185.739L179.376,185.748L179.341,185.754L179.269,185.759L179.094,185.728L178.915,185.613L178.848,185.529L178.83,185.499L178.814,185.467L178.801,185.434L178.769,185.259L178.801,185.084L178.915,184.906L179.094,184.791L179.269,184.759Z" style="fill:none;fill-rule:nonzero;stroke:rgb(0,0,255);stroke-width:1px;"/>
        <path d="M183.655,142.818L183.862,142.863L184.008,142.964L184.11,143.11L184.155,143.318L184.11,143.526L184.008,143.672L183.83,143.786L183.655,143.818L183.583,143.813L183.548,143.807L183.514,143.798L183.48,143.786L183.301,143.672L183.186,143.493L183.155,143.318L183.186,143.143L183.301,142.964L183.447,142.863L183.655,142.818Z" style="fill:none;fill-rule:nonzero;stroke:rgb(0,0,255);stroke-width:1px;"/>
        <path d="M196.148,145.614L196.323,145.646L196.501,145.761L196.603,145.907L196.648,146.114L196.603,146.322L196.501,146.468L196.355,146.569L196.148,146.614L195.973,146.583L195.878,146.535L195.849,146.515L195.821,146.492L195.794,146.468L195.679,146.289L195.648,146.114L195.679,145.939L195.794,145.761L195.973,145.646L196.148,145.614Z" style="fill:none;fill-rule:nonzero;stroke:rgb(0,0,255);stroke-width:1px;"/>
        <path d="M181.528,152.405L181.6,152.41L181.635,152.416L181.67,152.425L181.703,152.436L181.882,152.551L181.983,152.697L182.028,152.905L181.983,153.112L181.882,153.258L181.703,153.373L181.528,153.405L181.457,153.399L181.422,153.393L181.387,153.384L181.354,153.373L181.175,153.258L181.06,153.079L181.028,152.905L181.06,152.73L181.175,152.551L181.354,152.436L181.528,152.405Z" style="fill:none;fill-rule:nonzero;stroke:rgb(0,0,255);stroke-width:1px;"/>
        <path d="M190.034,154.668L190.209,154.7L190.304,154.747L190.333,154.768L190.361,154.79L190.388,154.815L190.489,154.961L190.534,155.168L190.489,155.376L190.388,155.522L190.209,155.637L190.034,155.668L189.859,155.637L189.764,155.589L189.707,155.546L189.681,155.522L189.566,155.343L189.534,155.168L189.566,154.993L189.681,154.815L189.859,154.7L190.034,154.668Z" style="fill:none;fill-rule:nonzero;stroke:rgb(0,0,255);stroke-width:1px;"/>
        <path d="M177.94,163.722L178.012,163.727L178.047,163.734L178.081,163.742L178.115,163.754L178.294,163.869L178.361,163.952L178.379,163.983L178.395,164.014L178.408,164.047L178.44,164.222L178.408,164.397L178.294,164.576L178.148,164.677L177.94,164.722L177.732,164.677L177.586,164.576L177.485,164.43L177.44,164.222L177.485,164.014L177.586,163.869L177.765,163.754L177.94,163.722Z" style="fill:none;fill-rule:nonzero;stroke:rgb(0,0,255);stroke-width:1px;"/>
        <path d="M183.788,161.192L183.963,161.224L184.058,161.271L184.115,161.314L184.141,161.339L184.243,161.485L184.288,161.692L184.243,161.9L184.141,162.046L183.995,162.147L183.788,162.192L183.613,162.161L183.434,162.046L183.367,161.962L183.349,161.932L183.333,161.9L183.319,161.867L183.288,161.692L183.319,161.517L183.434,161.339L183.613,161.224L183.788,161.192Z" style="fill:none;fill-rule:nonzero;stroke:rgb(0,0,255);stroke-width:1px;"/>
        <path d="M185.516,156.133L185.723,156.178L185.869,156.279L185.984,156.458L186.016,156.633L185.984,156.808L185.869,156.986L185.69,157.101L185.516,157.133L185.341,157.101L185.246,157.054L185.216,157.033L185.188,157.011L185.162,156.986L185.047,156.808L185.015,156.633L185.047,156.458L185.162,156.279L185.308,156.178L185.516,156.133Z" style="fill:none;fill-rule:nonzero;stroke:rgb(0,0,255);stroke-width:1px;"/>
    </g>
</svg>
