<?xml version="1.0" encoding="UTF-8" standalone="no"?>
<!DOCTYPE svg PUBLIC "-//W3C//DTD SVG 1.1//EN" "http://www.w3.org/Graphics/SVG/1.1/DTD/svg11.dtd">
<svg width="100%" height="100%" viewBox="0 0 360 360" version="1.1" xmlns="http://www.w3.org/2000/svg" xmlns:xlink="http://www.w3.org/1999/xlink" xml:space="preserve" xmlns:serif="http://www.serif.com/" style="fill-rule:evenodd;clip-rule:evenodd;">
    <g id="_1" serif:id="1" transform="matrix(4.23261,0,0,4.23261,-581.87,-581.766)">
        <path d="M180.05,170.653L177.005,143.71" style="fill:none;fill-rule:nonzero;stroke:rgb(0,0,255);stroke-width:1px;"/>
        <path d="M174.809,139.061L177.005,143.71" style="fill:none;fill-rule:nonzero;stroke:rgb(0,0,255);stroke-width:1px;"/>
        <path d="M186.289,196.246L197.171,220.939" style="fill:none;fill-rule:nonzero;stroke:rgb(0,0,255);stroke-width:1px;"/>
        <path d="M182.496,196.146L184.792,212.941" style="fill:none;fill-rule:nonzero;stroke:rgb(0,0,255);stroke-width:1px;"/>
        <path d="M174.709,170.852L186.289,196.246" style="fill:none;fill-rule:nonzero;stroke:rgb(0,0,255);stroke-width:1px;"/>
        <path d="M185.391,170.453L182.496,196.146" style="fill:none;fill-rule:nonzero;stroke:rgb(0,0,255);stroke-width:1px;"/>
        <path d="M185.391,170.453L174.709,170.852" style="fill:none;fill-rule:nonzero;stroke:rgb(0,0,255);stroke-width:1px;"/>
        <path d="M162.829,157.356L170.816,148.758" style="fill:none;fill-rule:nonzero;stroke:rgb(0,0,255);stroke-width:1px;"/>
        <path d="M193.078,154.657L179.601,150.058" style="fill:none;fill-rule:nonzero;stroke:rgb(0,0,255);stroke-width:1px;"/>
        <path d="M169.318,144.56L162.829,157.356" style="fill:none;fill-rule:nonzero;stroke:rgb(0,0,255);stroke-width:1px;"/>
        <path d="M184.692,142.86L193.078,154.657" style="fill:none;fill-rule:nonzero;stroke:rgb(0,0,255);stroke-width:1px;"/>
        <path d="M184.692,142.86L169.318,144.56" style="fill:none;fill-rule:nonzero;stroke:rgb(0,0,255);stroke-width:1px;"/>
        <path d="M197.171,220.439L197.378,220.484L197.524,220.585L197.626,220.731L197.671,220.939L197.639,221.114L197.524,221.292L197.346,221.407L197.171,221.439L196.963,221.394L196.817,221.292L196.702,221.114L196.671,220.939L196.716,220.731L196.817,220.585L196.963,220.484L196.996,220.47L197.03,220.459L197.064,220.45L197.171,220.439Z" style="fill:none;fill-rule:nonzero;stroke:rgb(0,0,255);stroke-width:1px;"/>
        <path d="M184.792,212.441L184.967,212.473L185.145,212.587L185.26,212.766L185.292,212.941L185.247,213.149L185.145,213.295L184.967,213.409L184.792,213.441L184.584,213.396L184.438,213.295L184.337,213.149L184.292,212.941L184.323,212.766L184.438,212.587L184.584,212.486L184.685,212.453L184.72,212.446L184.756,212.442L184.792,212.441Z" style="fill:none;fill-rule:nonzero;stroke:rgb(0,0,255);stroke-width:1px;"/>
        <path d="M186.289,195.746L186.497,195.791L186.643,195.892L186.744,196.038L186.789,196.246L186.758,196.42L186.643,196.599L186.559,196.666L186.529,196.685L186.497,196.7L186.464,196.714L186.289,196.746L186.082,196.7L185.936,196.599L185.834,196.453L185.789,196.246L185.834,196.038L185.936,195.892L186.082,195.791L186.114,195.777L186.148,195.766L186.183,195.757L186.289,195.746Z" style="fill:none;fill-rule:nonzero;stroke:rgb(0,0,255);stroke-width:1px;"/>
        <path d="M182.496,195.646L182.532,195.647L182.567,195.651L182.671,195.677L182.849,195.792L182.964,195.971L182.996,196.146L182.964,196.32L182.849,196.499L182.671,196.614L182.567,196.64L182.532,196.644L182.496,196.646L182.288,196.6L182.142,196.499L182.027,196.32L181.996,196.146L182.027,195.971L182.142,195.792L182.288,195.691L182.496,195.646Z" style="fill:none;fill-rule:nonzero;stroke:rgb(0,0,255);stroke-width:1px;"/>
        <path d="M174.709,170.352L174.884,170.384L175.063,170.499L175.177,170.678L175.204,170.781L175.208,170.816L175.209,170.852L175.177,171.027L175.063,171.206L174.979,171.273L174.948,171.291L174.917,171.307L174.884,171.321L174.709,171.352L174.501,171.307L174.355,171.206L174.241,171.027L174.209,170.852L174.241,170.678L174.355,170.499L174.501,170.398L174.709,170.352Z" style="fill:none;fill-rule:nonzero;stroke:rgb(0,0,255);stroke-width:1px;"/>
        <path d="M185.391,169.953L185.566,169.984L185.744,170.099L185.846,170.245L185.891,170.453L185.859,170.627L185.744,170.806L185.566,170.921L185.391,170.953L185.355,170.951L185.319,170.947L185.284,170.941L185.183,170.907L185.037,170.806L184.936,170.66L184.902,170.559L184.892,170.489L184.891,170.453L184.936,170.245L185.037,170.099L185.183,169.998L185.391,169.953Z" style="fill:none;fill-rule:nonzero;stroke:rgb(0,0,255);stroke-width:1px;"/>
        <path d="M170.816,148.258L170.99,148.29L171.169,148.405L171.284,148.584L171.316,148.758L171.27,148.966L171.169,149.112L170.99,149.227L170.816,149.258L170.641,149.227L170.546,149.179L170.488,149.137L170.462,149.112L170.361,148.966L170.316,148.758L170.347,148.584L170.462,148.405L170.641,148.29L170.816,148.258Z" style="fill:none;fill-rule:nonzero;stroke:rgb(0,0,255);stroke-width:1px;"/>
        <path d="M179.601,149.558L179.776,149.59L179.954,149.705L180.069,149.883L180.101,150.058L180.089,150.165L180.08,150.199L180.069,150.233L180.056,150.266L179.954,150.412L179.776,150.527L179.601,150.558L179.426,150.527L179.247,150.412L179.146,150.266L179.101,150.058L179.132,149.883L179.247,149.705L179.426,149.59L179.601,149.558Z" style="fill:none;fill-rule:nonzero;stroke:rgb(0,0,255);stroke-width:1px;"/>
        <path d="M162.829,156.856L163.004,156.888L163.037,156.901L163.068,156.917L163.099,156.935L163.156,156.978L163.183,157.003L163.298,157.181L163.329,157.356L163.284,157.564L163.183,157.71L163.004,157.825L162.829,157.856L162.622,157.811L162.476,157.71L162.374,157.564L162.329,157.356L162.361,157.181L162.476,157.003L162.622,156.901L162.829,156.856Z" style="fill:none;fill-rule:nonzero;stroke:rgb(0,0,255);stroke-width:1px;"/>
        <path d="M193.078,154.157L193.253,154.188L193.431,154.303L193.546,154.482L193.578,154.657L193.546,154.832L193.431,155.01L193.253,155.125L193.078,155.157L192.87,155.112L192.724,155.01L192.609,154.832L192.578,154.657L192.583,154.585L192.589,154.55L192.598,154.516L192.609,154.482L192.724,154.303L192.779,154.256L192.808,154.236L192.87,154.202L193.078,154.157Z" style="fill:none;fill-rule:nonzero;stroke:rgb(0,0,255);stroke-width:1px;"/>
        <path d="M169.318,144.06L169.493,144.091L169.672,144.206L169.787,144.385L169.813,144.488L169.817,144.524L169.818,144.56L169.773,144.767L169.672,144.913L169.493,145.028L169.318,145.06L169.111,145.014L169.079,144.999L169.048,144.98L169.019,144.96L168.965,144.913L168.863,144.767L168.818,144.56L168.863,144.352L168.965,144.206L169.111,144.105L169.318,144.06Z" style="fill:none;fill-rule:nonzero;stroke:rgb(0,0,255);stroke-width:1px;"/>
        <path d="M184.692,142.36L184.9,142.405L185.046,142.507L185.147,142.652L185.192,142.86L185.147,143.068L185.046,143.214L184.991,143.261L184.962,143.281L184.9,143.315L184.692,143.36L184.517,143.329L184.338,143.214L184.224,143.035L184.197,142.932L184.193,142.896L184.192,142.86L184.224,142.685L184.338,142.507L184.517,142.392L184.692,142.36Z" style="fill:none;fill-rule:nonzero;stroke:rgb(0,0,255);stroke-width:1px;"/>
        <path d="M174.809,138.561L175.016,138.606L175.162,138.708L175.264,138.854L175.309,139.061L175.264,139.269L175.162,139.415L175.108,139.462L175.079,139.482L175.048,139.5L175.016,139.516L174.809,139.561L174.601,139.516L174.455,139.415L174.354,139.269L174.309,139.061L174.34,138.886L174.455,138.708L174.634,138.593L174.809,138.561Z" style="fill:none;fill-rule:nonzero;stroke:rgb(0,0,255);stroke-width:1px;"/>
    </g>
</svg>
