<?xml version="1.0" encoding="UTF-8" standalone="no"?>
<!DOCTYPE svg PUBLIC "-//W3C//DTD SVG 1.1//EN" "http://www.w3.org/Graphics/SVG/1.1/DTD/svg11.dtd">
<svg width="100%" height="100%" viewBox="0 0 360 360" version="1.1" xmlns="http://www.w3.org/2000/svg" xmlns:xlink="http://www.w3.org/1999/xlink" xml:space="preserve" xmlns:serif="http://www.serif.com/" style="fill-rule:evenodd;clip-rule:evenodd;">
    <g id="_1" serif:id="1" transform="matrix(5.65504,0,0,5.65504,-838.14,-837.691)">
        <path d="M186.009,164.996L162.217,162.357" style="fill:none;fill-rule:nonzero;stroke:rgb(0,0,255);stroke-width:1px;"/>
        <path d="M152.153,160.696L162.217,162.357" style="fill:none;fill-rule:nonzero;stroke:rgb(0,0,255);stroke-width:1px;"/>
        <path d="M184.788,178.68L173.453,202.041" style="fill:none;fill-rule:nonzero;stroke:rgb(0,0,255);stroke-width:1px;"/>
        <path d="M163.292,187.086L207.847,206.048" style="fill:none;fill-rule:nonzero;stroke:rgb(0,0,255);stroke-width:1px;"/>
        <path d="M186.058,176.041L184.788,178.68" style="fill:none;fill-rule:nonzero;stroke:rgb(0,0,255);stroke-width:1px;"/>
        <path d="M185.96,153.952L163.292,187.086" style="fill:none;fill-rule:nonzero;stroke:rgb(0,0,255);stroke-width:1px;"/>
        <path d="M185.96,153.952L186.058,176.041" style="fill:none;fill-rule:nonzero;stroke:rgb(0,0,255);stroke-width:1px;"/>
        <path d="M174.919,153.952L184.69,156.102" style="fill:none;fill-rule:nonzero;stroke:rgb(0,0,255);stroke-width:1px;"/>
        <path d="M164.855,157.079L174.919,153.952" style="fill:none;fill-rule:nonzero;stroke:rgb(0,0,255);stroke-width:1px;"/>
        <path d="M164.855,157.079L159.579,167.636" style="fill:none;fill-rule:nonzero;stroke:rgb(0,0,255);stroke-width:1px;"/>
        <path d="M173.453,201.541L173.628,201.573L173.661,201.586L173.693,201.602L173.723,201.62L173.807,201.687L173.908,201.833L173.953,202.041L173.922,202.216L173.807,202.395L173.628,202.509L173.453,202.541L173.246,202.496L173.1,202.395L172.999,202.249L172.953,202.041L172.999,201.833L173.1,201.687L173.246,201.586L173.453,201.541Z" style="fill:none;fill-rule:nonzero;stroke:rgb(0,0,255);stroke-width:1px;"/>
        <path d="M207.847,205.548L208.055,205.594L208.201,205.695L208.316,205.874L208.347,206.048L208.302,206.256L208.201,206.402L208.055,206.503L207.847,206.548L207.64,206.503L207.494,206.402L207.393,206.256L207.347,206.048L207.379,205.874L207.393,205.841L207.408,205.809L207.427,205.779L207.494,205.695L207.673,205.58L207.847,205.548Z" style="fill:none;fill-rule:nonzero;stroke:rgb(0,0,255);stroke-width:1px;"/>
        <path d="M184.788,178.18L184.995,178.226L185.027,178.241L185.058,178.26L185.087,178.28L185.141,178.327L185.243,178.473L185.288,178.68L185.256,178.855L185.141,179.034L184.963,179.149L184.788,179.18L184.58,179.135L184.548,179.119L184.518,179.101L184.489,179.081L184.434,179.034L184.319,178.855L184.288,178.68L184.333,178.473L184.434,178.327L184.58,178.226L184.788,178.18Z" style="fill:none;fill-rule:nonzero;stroke:rgb(0,0,255);stroke-width:1px;"/>
        <path d="M163.292,186.586L163.466,186.618L163.561,186.665L163.591,186.686L163.619,186.708L163.645,186.733L163.76,186.912L163.792,187.086L163.78,187.193L163.771,187.228L163.76,187.261L163.746,187.294L163.645,187.44L163.466,187.555L163.292,187.586L163.084,187.541L162.938,187.44L162.837,187.294L162.792,187.086L162.823,186.912L162.938,186.733L163.084,186.631L163.292,186.586Z" style="fill:none;fill-rule:nonzero;stroke:rgb(0,0,255);stroke-width:1px;"/>
        <path d="M186.058,175.541L186.266,175.587L186.412,175.688L186.526,175.867L186.558,176.041L186.513,176.249L186.412,176.395L186.266,176.496L186.058,176.541L185.883,176.51L185.85,176.496L185.819,176.48L185.788,176.462L185.704,176.395L185.603,176.249L185.558,176.041L185.59,175.867L185.704,175.688L185.883,175.573L185.986,175.547L186.022,175.543L186.058,175.541Z" style="fill:none;fill-rule:nonzero;stroke:rgb(0,0,255);stroke-width:1px;"/>
        <path d="M185.96,153.452L186.168,153.497L186.314,153.598L186.429,153.777L186.46,153.952L186.415,154.159L186.314,154.305L186.168,154.406L186.067,154.44L185.996,154.45L185.96,154.452L185.785,154.42L185.69,154.372L185.661,154.352L185.633,154.33L185.607,154.305L185.505,154.159L185.46,153.952L185.492,153.777L185.607,153.598L185.785,153.483L185.96,153.452Z" style="fill:none;fill-rule:nonzero;stroke:rgb(0,0,255);stroke-width:1px;"/>
        <path d="M174.235,177.985L174.443,178.03L174.589,178.131L174.69,178.277L174.735,178.485L174.69,178.693L174.589,178.839L174.443,178.94L174.235,178.985L174.06,178.953L173.882,178.839L173.767,178.66L173.735,178.485L173.78,178.277L173.882,178.131L174.06,178.017L174.235,177.985Z" style="fill:none;fill-rule:nonzero;stroke:rgb(0,0,255);stroke-width:1px;"/>
        <path d="M184.69,155.602L184.762,155.607L184.797,155.613L184.831,155.622L184.865,155.633L185.044,155.748L185.159,155.927L185.19,156.102L185.145,156.309L185.044,156.455L184.865,156.57L184.69,156.602L184.482,156.557L184.337,156.455L184.29,156.401L184.269,156.372L184.235,156.309L184.19,156.102L184.195,156.03L184.202,155.995L184.21,155.961L184.222,155.927L184.337,155.748L184.482,155.647L184.69,155.602Z" style="fill:none;fill-rule:nonzero;stroke:rgb(0,0,255);stroke-width:1px;"/>
        <path d="M174.919,153.452L175.094,153.483L175.273,153.598L175.387,153.777L175.419,153.952L175.408,154.058L175.399,154.093L175.374,154.159L175.273,154.305L175.094,154.42L174.919,154.452L174.711,154.406L174.565,154.305L174.464,154.159L174.451,154.126L174.439,154.093L174.431,154.058L174.419,153.952L174.451,153.777L174.565,153.598L174.711,153.497L174.919,153.452Z" style="fill:none;fill-rule:nonzero;stroke:rgb(0,0,255);stroke-width:1px;"/>
        <path d="M159.579,167.136L159.753,167.167L159.786,167.181L159.818,167.197L159.848,167.215L159.932,167.282L160.047,167.461L160.079,167.636L160.033,167.843L159.932,167.989L159.753,168.104L159.579,168.136L159.371,168.09L159.225,167.989L159.124,167.843L159.079,167.636L159.11,167.461L159.225,167.282L159.371,167.181L159.579,167.136Z" style="fill:none;fill-rule:nonzero;stroke:rgb(0,0,255);stroke-width:1px;"/>
        <path d="M164.855,156.579L165.062,156.624L165.208,156.726L165.323,156.904L165.335,156.938L165.343,156.973L165.35,157.008L165.355,157.079L165.31,157.287L165.208,157.433L165.062,157.534L164.855,157.579L164.647,157.534L164.616,157.518L164.585,157.5L164.556,157.48L164.501,157.433L164.4,157.287L164.355,157.079L164.386,156.904L164.501,156.726L164.68,156.611L164.855,156.579Z" style="fill:none;fill-rule:nonzero;stroke:rgb(0,0,255);stroke-width:1px;"/>
        <path d="M152.153,160.196L152.36,160.241L152.506,160.342L152.607,160.488L152.653,160.696L152.647,160.767L152.641,160.802L152.621,160.871L152.506,161.049L152.327,161.164L152.153,161.196L151.945,161.151L151.799,161.049L151.684,160.871L151.653,160.696L151.698,160.488L151.799,160.342L151.945,160.241L152.153,160.196Z" style="fill:none;fill-rule:nonzero;stroke:rgb(0,0,255);stroke-width:1px;"/>
    </g>
</svg>
