<?xml version="1.0" encoding="UTF-8" standalone="no"?>
<!DOCTYPE svg PUBLIC "-//W3C//DTD SVG 1.1//EN" "http://www.w3.org/Graphics/SVG/1.1/DTD/svg11.dtd">
<svg width="100%" height="100%" viewBox="0 0 360 360" version="1.1" xmlns="http://www.w3.org/2000/svg" xmlns:xlink="http://www.w3.org/1999/xlink" xml:space="preserve" xmlns:serif="http://www.serif.com/" style="fill-rule:evenodd;clip-rule:evenodd;">
    <g id="_1" serif:id="1" transform="matrix(5.68642,0,0,5.68642,-843.556,-843.953)">
        <path d="M196.377,189.048L172.111,178.25" style="fill:none;fill-rule:nonzero;stroke:rgb(0,0,255);stroke-width:1px;"/>
        <path d="M161.775,180.95L172.111,178.25" style="fill:none;fill-rule:nonzero;stroke:rgb(0,0,255);stroke-width:1px;"/>
        <path d="M174.058,198.145L161.975,210.242" style="fill:none;fill-rule:nonzero;stroke:rgb(0,0,255);stroke-width:1px;"/>
        <path d="M176.355,192.047L188.238,209.243" style="fill:none;fill-rule:nonzero;stroke:rgb(0,0,255);stroke-width:1px;"/>
        <path d="M194.53,187.648L174.058,198.145" style="fill:none;fill-rule:nonzero;stroke:rgb(0,0,255);stroke-width:1px;"/>
        <path d="M198.225,190.447L176.355,192.047" style="fill:none;fill-rule:nonzero;stroke:rgb(0,0,255);stroke-width:1px;"/>
        <path d="M198.225,190.447L194.53,187.648" style="fill:none;fill-rule:nonzero;stroke:rgb(0,0,255);stroke-width:1px;"/>
        <path d="M164.072,193.547L168.965,191.547" style="fill:none;fill-rule:nonzero;stroke:rgb(0,0,255);stroke-width:1px;"/>
        <path d="M173.06,159.355L170.164,149.758" style="fill:none;fill-rule:nonzero;stroke:rgb(0,0,255);stroke-width:1px;"/>
        <path d="M170.164,185.749L164.072,193.547" style="fill:none;fill-rule:nonzero;stroke:rgb(0,0,255);stroke-width:1px;"/>
        <path d="M174.058,170.752L173.06,159.355" style="fill:none;fill-rule:nonzero;stroke:rgb(0,0,255);stroke-width:1px;"/>
        <path d="M174.058,170.752L170.164,185.749" style="fill:none;fill-rule:nonzero;stroke:rgb(0,0,255);stroke-width:1px;"/>
        <path d="M161.975,209.742L162.183,209.787L162.274,209.842L162.302,209.864L162.329,209.889L162.43,210.035L162.475,210.242L162.444,210.417L162.329,210.596L162.183,210.697L161.975,210.742L161.8,210.711L161.622,210.596L161.507,210.417L161.475,210.242L161.52,210.035L161.622,209.889L161.768,209.787L161.975,209.742Z" style="fill:none;fill-rule:nonzero;stroke:rgb(0,0,255);stroke-width:1px;"/>
        <path d="M188.238,208.743L188.446,208.788L188.592,208.889L188.693,209.035L188.738,209.243L188.707,209.417L188.592,209.596L188.446,209.697L188.238,209.743L188.064,209.711L187.885,209.596L187.77,209.417L187.738,209.243L187.784,209.035L187.885,208.889L187.911,208.864L187.939,208.842L187.969,208.822L188.064,208.774L188.238,208.743Z" style="fill:none;fill-rule:nonzero;stroke:rgb(0,0,255);stroke-width:1px;"/>
        <path d="M174.058,197.645L174.266,197.691L174.412,197.792L174.459,197.846L174.479,197.875L174.497,197.906L174.513,197.938L174.558,198.145L174.527,198.32L174.412,198.499L174.266,198.6L174.058,198.645L173.883,198.614L173.788,198.566L173.731,198.523L173.705,198.499L173.59,198.32L173.558,198.145L173.603,197.938L173.705,197.792L173.883,197.677L174.058,197.645Z" style="fill:none;fill-rule:nonzero;stroke:rgb(0,0,255);stroke-width:1px;"/>
        <path d="M176.355,191.547L176.563,191.592L176.709,191.693L176.81,191.839L176.844,191.94L176.85,191.975L176.854,192.011L176.855,192.047L176.824,192.222L176.709,192.4L176.654,192.447L176.625,192.468L176.563,192.502L176.355,192.547L176.18,192.515L176.002,192.4L175.887,192.222L175.855,192.047L175.9,191.839L176.002,191.693L176.18,191.578L176.355,191.547Z" style="fill:none;fill-rule:nonzero;stroke:rgb(0,0,255);stroke-width:1px;"/>
        <path d="M194.53,187.148L194.737,187.193L194.883,187.294L194.985,187.44L195.03,187.648L194.985,187.856L194.93,187.947L194.908,187.975L194.883,188.002L194.737,188.103L194.53,188.148L194.322,188.103L194.176,188.002L194.129,187.947L194.109,187.918L194.091,187.887L194.075,187.856L194.03,187.648L194.075,187.44L194.176,187.294L194.322,187.193L194.53,187.148Z" style="fill:none;fill-rule:nonzero;stroke:rgb(0,0,255);stroke-width:1px;"/>
        <path d="M198.225,189.947L198.399,189.979L198.578,190.094L198.693,190.273L198.725,190.447L198.679,190.655L198.578,190.801L198.399,190.916L198.225,190.947L198.05,190.916L197.871,190.801L197.77,190.655L197.736,190.554L197.73,190.519L197.726,190.483L197.725,190.447L197.756,190.273L197.804,190.177L197.824,190.148L197.846,190.12L197.871,190.094L198.05,189.979L198.225,189.947Z" style="fill:none;fill-rule:nonzero;stroke:rgb(0,0,255);stroke-width:1px;"/>
        <path d="M168.965,191.047L169.173,191.092L169.319,191.194L169.42,191.339L169.465,191.547L169.434,191.722L169.319,191.901L169.173,192.002L168.965,192.047L168.791,192.016L168.612,191.901L168.545,191.817L168.526,191.786L168.511,191.755L168.497,191.722L168.465,191.547L168.511,191.339L168.612,191.194L168.791,191.079L168.965,191.047Z" style="fill:none;fill-rule:nonzero;stroke:rgb(0,0,255);stroke-width:1px;"/>
        <path d="M170.164,149.258L170.371,149.303L170.517,149.404L170.632,149.583L170.664,149.758L170.619,149.965L170.517,150.111L170.371,150.213L170.339,150.226L170.305,150.237L170.27,150.246L170.164,150.258L169.956,150.213L169.81,150.111L169.709,149.965L169.664,149.758L169.695,149.583L169.81,149.404L169.989,149.289L170.164,149.258Z" style="fill:none;fill-rule:nonzero;stroke:rgb(0,0,255);stroke-width:1px;"/>
        <path d="M164.072,193.047L164.28,193.092L164.372,193.146L164.399,193.168L164.426,193.193L164.493,193.277L164.511,193.307L164.527,193.339L164.541,193.372L164.572,193.547L164.527,193.754L164.426,193.9L164.28,194.001L164.072,194.047L163.897,194.015L163.719,193.9L163.617,193.754L163.572,193.547L163.604,193.372L163.719,193.193L163.897,193.078L164.072,193.047Z" style="fill:none;fill-rule:nonzero;stroke:rgb(0,0,255);stroke-width:1px;"/>
        <path d="M173.06,158.855L173.267,158.9L173.413,159.002L173.515,159.148L173.56,159.355L173.515,159.563L173.413,159.709L173.267,159.81L173.166,159.844L173.131,159.85L173.096,159.854L173.06,159.855L172.885,159.824L172.706,159.709L172.591,159.53L172.56,159.355L172.605,159.148L172.706,159.002L172.885,158.887L172.919,158.876L172.953,158.867L172.988,158.86L173.06,158.855Z" style="fill:none;fill-rule:nonzero;stroke:rgb(0,0,255);stroke-width:1px;"/>
        <path d="M170.164,185.249L170.27,185.26L170.305,185.269L170.371,185.294L170.517,185.395L170.619,185.541L170.664,185.749L170.619,185.956L170.517,186.102L170.371,186.203L170.164,186.249L169.956,186.203L169.864,186.149L169.837,186.127L169.81,186.102L169.709,185.956L169.664,185.749L169.709,185.541L169.81,185.395L169.956,185.294L170.164,185.249Z" style="fill:none;fill-rule:nonzero;stroke:rgb(0,0,255);stroke-width:1px;"/>
        <path d="M174.058,170.252L174.266,170.297L174.412,170.399L174.513,170.545L174.558,170.752L174.513,170.96L174.412,171.106L174.266,171.207L174.058,171.252L173.952,171.241L173.917,171.232L173.851,171.207L173.705,171.106L173.603,170.96L173.558,170.752L173.603,170.545L173.705,170.399L173.851,170.297L173.952,170.264L173.987,170.257L174.022,170.254L174.058,170.252Z" style="fill:none;fill-rule:nonzero;stroke:rgb(0,0,255);stroke-width:1px;"/>
        <path d="M161.775,180.45L161.983,180.495L162.129,180.596L162.23,180.742L162.255,180.809L162.264,180.843L162.275,180.95L162.23,181.157L162.129,181.303L161.983,181.405L161.775,181.45L161.601,181.418L161.422,181.303L161.307,181.125L161.275,180.95L161.307,180.775L161.422,180.596L161.601,180.481L161.775,180.45Z" style="fill:none;fill-rule:nonzero;stroke:rgb(0,0,255);stroke-width:1px;"/>
    </g>
</svg>
