<?xml version="1.0" encoding="UTF-8" standalone="no"?>
<!DOCTYPE svg PUBLIC "-//W3C//DTD SVG 1.1//EN" "http://www.w3.org/Graphics/SVG/1.1/DTD/svg11.dtd">
<svg width="100%" height="100%" viewBox="0 0 360 360" version="1.1" xmlns="http://www.w3.org/2000/svg" xmlns:xlink="http://www.w3.org/1999/xlink" xml:space="preserve" xmlns:serif="http://www.serif.com/" style="fill-rule:evenodd;clip-rule:evenodd;">
    <g id="_1" serif:id="1" transform="matrix(4.06228,0,0,4.06228,-551.21,-552.417)">
        <path d="M185.395,184.446L186.144,160.018" style="fill:none;fill-rule:nonzero;stroke:rgb(0,0,255);stroke-width:1px;"/>
        <path d="M185.195,150.976L186.144,160.018" style="fill:none;fill-rule:nonzero;stroke:rgb(0,0,255);stroke-width:1px;"/>
        <path d="M184.596,203.03L185.794,222.013" style="fill:none;fill-rule:nonzero;stroke:rgb(0,0,255);stroke-width:1px;"/>
        <path d="M187.193,201.631L173.906,206.826" style="fill:none;fill-rule:nonzero;stroke:rgb(0,0,255);stroke-width:1px;"/>
        <path d="M181.898,185.245L184.596,203.03" style="fill:none;fill-rule:nonzero;stroke:rgb(0,0,255);stroke-width:1px;"/>
        <path d="M188.891,183.647L187.193,201.631" style="fill:none;fill-rule:nonzero;stroke:rgb(0,0,255);stroke-width:1px;"/>
        <path d="M188.891,183.647L181.898,185.245" style="fill:none;fill-rule:nonzero;stroke:rgb(0,0,255);stroke-width:1px;"/>
        <path d="M169.71,161.267L182.997,137.987" style="fill:none;fill-rule:nonzero;stroke:rgb(0,0,255);stroke-width:1px;"/>
        <path d="M186.594,147.579L182.997,137.987" style="fill:none;fill-rule:nonzero;stroke:rgb(0,0,255);stroke-width:1px;"/>
        <path d="M181.998,163.165L169.71,161.267" style="fill:none;fill-rule:nonzero;stroke:rgb(0,0,255);stroke-width:1px;"/>
        <path d="M190.29,156.871L186.594,147.579" style="fill:none;fill-rule:nonzero;stroke:rgb(0,0,255);stroke-width:1px;"/>
        <path d="M190.29,156.871L181.998,163.165" style="fill:none;fill-rule:nonzero;stroke:rgb(0,0,255);stroke-width:1px;"/>
        <path d="M185.794,221.513L185.969,221.544L186.148,221.659L186.249,221.805L186.294,222.013L186.263,222.188L186.148,222.366L185.969,222.481L185.794,222.513L185.587,222.468L185.441,222.366L185.326,222.188L185.294,222.013L185.34,221.805L185.441,221.659L185.587,221.558L185.688,221.524L185.758,221.514L185.794,221.513Z" style="fill:none;fill-rule:nonzero;stroke:rgb(0,0,255);stroke-width:1px;"/>
        <path d="M173.906,206.326L174.113,206.371L174.259,206.473L174.327,206.556L174.345,206.587L174.361,206.619L174.374,206.651L174.406,206.826L174.361,207.034L174.259,207.18L174.113,207.281L173.906,207.326L173.731,207.295L173.552,207.18L173.451,207.034L173.406,206.826L173.437,206.651L173.552,206.473L173.731,206.358L173.906,206.326Z" style="fill:none;fill-rule:nonzero;stroke:rgb(0,0,255);stroke-width:1px;"/>
        <path d="M184.596,202.53L184.77,202.561L184.803,202.575L184.835,202.591L184.866,202.609L184.949,202.676L185.05,202.822L185.096,203.03L185.064,203.204L184.949,203.383L184.77,203.498L184.667,203.524L184.632,203.528L184.596,203.53L184.388,203.484L184.242,203.383L184.127,203.204L184.096,203.03L184.107,202.923L184.116,202.888L184.127,202.855L184.141,202.822L184.242,202.676L184.388,202.575L184.489,202.541L184.524,202.535L184.56,202.531L184.596,202.53Z" style="fill:none;fill-rule:nonzero;stroke:rgb(0,0,255);stroke-width:1px;"/>
        <path d="M187.193,201.131L187.229,201.132L187.265,201.136L187.3,201.142L187.401,201.176L187.547,201.277L187.662,201.456L187.693,201.631L187.648,201.838L187.547,201.984L187.401,202.086L187.193,202.131L187.018,202.099L186.84,201.984L186.738,201.838L186.725,201.806L186.713,201.772L186.705,201.738L186.693,201.631L186.725,201.456L186.84,201.277L187.018,201.162L187.193,201.131Z" style="fill:none;fill-rule:nonzero;stroke:rgb(0,0,255);stroke-width:1px;"/>
        <path d="M181.898,184.745L182.106,184.79L182.252,184.892L182.367,185.071L182.378,185.104L182.387,185.139L182.393,185.174L182.398,185.245L182.353,185.453L182.252,185.599L182.106,185.7L182.005,185.734L181.97,185.74L181.934,185.744L181.898,185.745L181.691,185.7L181.545,185.599L181.443,185.453L181.398,185.245L181.43,185.071L181.545,184.892L181.723,184.777L181.898,184.745Z" style="fill:none;fill-rule:nonzero;stroke:rgb(0,0,255);stroke-width:1px;"/>
        <path d="M188.891,183.147L189.099,183.192L189.245,183.293L189.346,183.439L189.391,183.647L189.346,183.854L189.245,184L189.099,184.102L188.891,184.147L188.855,184.145L188.82,184.142L188.785,184.135L188.684,184.102L188.538,184L188.437,183.854L188.412,183.788L188.403,183.753L188.391,183.647L188.423,183.472L188.538,183.293L188.717,183.178L188.891,183.147Z" style="fill:none;fill-rule:nonzero;stroke:rgb(0,0,255);stroke-width:1px;"/>
        <path d="M182.997,137.487L183.172,137.519L183.351,137.634L183.452,137.78L183.497,137.987L183.466,138.162L183.351,138.341L183.267,138.408L183.236,138.426L183.205,138.442L183.172,138.456L182.997,138.487L182.822,138.456L182.758,138.426L182.727,138.408L182.644,138.341L182.529,138.162L182.497,137.987L182.542,137.78L182.644,137.634L182.822,137.519L182.997,137.487Z" style="fill:none;fill-rule:nonzero;stroke:rgb(0,0,255);stroke-width:1px;"/>
        <path d="M182.997,137.487L183.172,137.519L183.351,137.634L183.452,137.78L183.497,137.987L183.466,138.162L183.351,138.341L183.267,138.408L183.236,138.426L183.205,138.442L183.172,138.456L182.997,138.487L182.822,138.456L182.758,138.426L182.727,138.408L182.644,138.341L182.529,138.162L182.497,137.987L182.542,137.78L182.644,137.634L182.822,137.519L182.997,137.487Z" style="fill:none;fill-rule:nonzero;stroke:rgb(0,0,255);stroke-width:1px;"/>
        <path d="M169.71,160.767L169.917,160.812L169.949,160.828L169.98,160.846L170.009,160.866L170.063,160.913L170.165,161.059L170.21,161.267L170.209,161.303L170.205,161.338L170.198,161.373L170.165,161.474L170.063,161.62L169.917,161.721L169.71,161.767L169.535,161.735L169.356,161.62L169.241,161.441L169.21,161.267L169.255,161.059L169.356,160.913L169.502,160.812L169.71,160.767Z" style="fill:none;fill-rule:nonzero;stroke:rgb(0,0,255);stroke-width:1px;"/>
        <path d="M186.594,147.079L186.801,147.124L186.947,147.225L187.049,147.371L187.094,147.579L187.062,147.754L186.947,147.932L186.864,148L186.833,148.018L186.801,148.034L186.769,148.047L186.594,148.079L186.386,148.034L186.24,147.932L186.125,147.754L186.094,147.579L186.139,147.371L186.24,147.225L186.386,147.124L186.419,147.11L186.453,147.099L186.487,147.09L186.594,147.079Z" style="fill:none;fill-rule:nonzero;stroke:rgb(0,0,255);stroke-width:1px;"/>
        <path d="M181.998,162.665L182.206,162.71L182.352,162.811L182.376,162.838L182.399,162.866L182.453,162.957L182.498,163.165L182.453,163.373L182.352,163.518L182.206,163.62L181.998,163.665L181.823,163.633L181.645,163.518L181.53,163.34L181.498,163.165L181.499,163.129L181.503,163.093L181.51,163.058L181.543,162.957L181.645,162.811L181.823,162.696L181.998,162.665Z" style="fill:none;fill-rule:nonzero;stroke:rgb(0,0,255);stroke-width:1px;"/>
        <path d="M190.29,156.371L190.498,156.416L190.644,156.517L190.759,156.696L190.79,156.871L190.759,157.045L190.644,157.224L190.498,157.325L190.29,157.371L190.115,157.339L189.937,157.224L189.912,157.198L189.89,157.17L189.869,157.14L189.822,157.045L189.79,156.871L189.822,156.696L189.937,156.517L190.02,156.45L190.051,156.432L190.083,156.416L190.115,156.402L190.29,156.371Z" style="fill:none;fill-rule:nonzero;stroke:rgb(0,0,255);stroke-width:1px;"/>
        <path d="M185.195,150.476L185.403,150.521L185.549,150.622L185.663,150.801L185.695,150.976L185.65,151.183L185.549,151.329L185.403,151.431L185.302,151.464L185.267,151.471L185.231,151.474L185.195,151.476L185.02,151.444L184.841,151.329L184.74,151.183L184.695,150.976L184.727,150.801L184.841,150.622L185.02,150.507L185.195,150.476Z" style="fill:none;fill-rule:nonzero;stroke:rgb(0,0,255);stroke-width:1px;"/>
    </g>
</svg>
