<?xml version="1.0" encoding="UTF-8" standalone="no"?>
<!DOCTYPE svg PUBLIC "-//W3C//DTD SVG 1.1//EN" "http://www.w3.org/Graphics/SVG/1.1/DTD/svg11.dtd">
<svg width="100%" height="100%" viewBox="0 0 360 360" version="1.1" xmlns="http://www.w3.org/2000/svg" xmlns:xlink="http://www.w3.org/1999/xlink" xml:space="preserve" xmlns:serif="http://www.serif.com/" style="fill-rule:evenodd;clip-rule:evenodd;">
    <g id="_1" serif:id="1" transform="matrix(1.35866,0,0,1.35866,-64.5593,-64.9718)">
        <path d="M196.034,190.58L175.224,102.694" style="fill:none;fill-rule:nonzero;stroke:rgb(0,0,255);stroke-width:1px;"/>
        <path d="M162.772,62.932L175.224,102.694" style="fill:none;fill-rule:nonzero;stroke:rgb(0,0,255);stroke-width:1px;"/>
        <path d="M227.589,258.501L264.092,302.188" style="fill:none;fill-rule:nonzero;stroke:rgb(0,0,255);stroke-width:1px;"/>
        <path d="M199.275,246.896L230.319,308.331" style="fill:none;fill-rule:nonzero;stroke:rgb(0,0,255);stroke-width:1px;"/>
        <path d="M183.241,196.383L227.589,258.501" style="fill:none;fill-rule:nonzero;stroke:rgb(0,0,255);stroke-width:1px;"/>
        <path d="M208.827,184.778L199.275,246.896" style="fill:none;fill-rule:nonzero;stroke:rgb(0,0,255);stroke-width:1px;"/>
        <path d="M208.827,184.778L183.241,196.383" style="fill:none;fill-rule:nonzero;stroke:rgb(0,0,255);stroke-width:1px;"/>
        <path d="M146.739,51.669L95.908,104.571" style="fill:none;fill-rule:nonzero;stroke:rgb(0,0,255);stroke-width:1px;"/>
        <path d="M149.127,109.349L101.708,104.912" style="fill:none;fill-rule:nonzero;stroke:rgb(0,0,255);stroke-width:1px;"/>
        <path d="M159.361,101.499L146.739,51.669" style="fill:none;fill-rule:nonzero;stroke:rgb(0,0,255);stroke-width:1px;"/>
        <path d="M191.087,103.889L149.127,109.349" style="fill:none;fill-rule:nonzero;stroke:rgb(0,0,255);stroke-width:1px;"/>
        <path d="M191.087,103.889L159.361,101.499" style="fill:none;fill-rule:nonzero;stroke:rgb(0,0,255);stroke-width:1px;"/>
        <path d="M264.092,301.688L264.299,301.733L264.445,301.834L264.547,301.98L264.592,302.188L264.56,302.363L264.445,302.541L264.267,302.656L264.092,302.688L263.917,302.656L263.738,302.541L263.623,302.363L263.592,302.188L263.637,301.98L263.738,301.834L263.765,301.81L263.792,301.787L263.822,301.767L263.917,301.719L264.092,301.688Z" style="fill:none;fill-rule:nonzero;stroke:rgb(0,0,255);stroke-width:1px;"/>
        <path d="M230.319,307.831L230.526,307.877L230.672,307.978L230.773,308.124L230.819,308.331L230.773,308.539L230.672,308.685L230.493,308.8L230.319,308.831L230.111,308.786L229.965,308.685L229.85,308.506L229.819,308.331L229.85,308.157L229.965,307.978L230.019,307.931L230.049,307.911L230.079,307.892L230.111,307.877L230.319,307.831Z" style="fill:none;fill-rule:nonzero;stroke:rgb(0,0,255);stroke-width:1px;"/>
        <path d="M227.589,258.001L227.764,258.032L227.943,258.147L228.044,258.293L228.089,258.501L228.058,258.675L227.943,258.854L227.917,258.879L227.889,258.901L227.859,258.921L227.764,258.969L227.589,259.001L227.415,258.969L227.236,258.854L227.135,258.708L227.089,258.501L227.135,258.293L227.236,258.147L227.262,258.122L227.29,258.1L227.319,258.08L227.415,258.032L227.589,258.001Z" style="fill:none;fill-rule:nonzero;stroke:rgb(0,0,255);stroke-width:1px;"/>
        <path d="M199.275,246.396L199.311,246.397L199.346,246.401L199.381,246.408L199.482,246.441L199.628,246.543L199.729,246.689L199.775,246.896L199.729,247.104L199.628,247.25L199.545,247.317L199.514,247.335L199.482,247.351L199.449,247.365L199.275,247.396L199.067,247.351L198.921,247.25L198.82,247.104L198.775,246.896L198.806,246.721L198.921,246.543L199.067,246.441L199.275,246.396Z" style="fill:none;fill-rule:nonzero;stroke:rgb(0,0,255);stroke-width:1px;"/>
        <path d="M183.241,195.883L183.416,195.914L183.594,196.029L183.662,196.113L183.68,196.143L183.696,196.175L183.709,196.208L183.741,196.383L183.696,196.59L183.594,196.736L183.54,196.783L183.511,196.804L183.448,196.838L183.241,196.883L183.066,196.851L182.887,196.736L182.772,196.558L182.741,196.383L182.772,196.208L182.887,196.029L183.066,195.914L183.241,195.883Z" style="fill:none;fill-rule:nonzero;stroke:rgb(0,0,255);stroke-width:1px;"/>
        <path d="M208.827,184.278L209.034,184.323L209.18,184.425L209.281,184.571L209.327,184.778L209.295,184.953L209.18,185.132L209.034,185.233L208.827,185.278L208.791,185.277L208.755,185.273L208.72,185.267L208.619,185.233L208.473,185.132L208.406,185.048L208.388,185.018L208.372,184.986L208.358,184.953L208.327,184.778L208.358,184.603L208.473,184.425L208.652,184.31L208.827,184.278Z" style="fill:none;fill-rule:nonzero;stroke:rgb(0,0,255);stroke-width:1px;"/>
        <path d="M95.908,104.071L96.083,104.103L96.178,104.15L96.235,104.193L96.262,104.218L96.363,104.364L96.408,104.571L96.377,104.746L96.262,104.925L96.116,105.026L95.908,105.071L95.701,105.026L95.555,104.925L95.44,104.746L95.408,104.571L95.453,104.364L95.555,104.218L95.701,104.116L95.908,104.071Z" style="fill:none;fill-rule:nonzero;stroke:rgb(0,0,255);stroke-width:1px;"/>
        <path d="M101.708,104.412L101.915,104.458L102.061,104.559L102.176,104.738L102.208,104.912L102.206,104.949L102.203,104.984L102.196,105.019L102.163,105.12L102.061,105.266L101.915,105.367L101.708,105.412L101.533,105.381L101.354,105.266L101.253,105.12L101.208,104.912L101.239,104.738L101.354,104.559L101.533,104.444L101.708,104.412Z" style="fill:none;fill-rule:nonzero;stroke:rgb(0,0,255);stroke-width:1px;"/>
        <path d="M146.739,51.169L146.946,51.214L147.092,51.315L147.207,51.494L147.239,51.669L147.207,51.843L147.092,52.022L146.913,52.137L146.88,52.148L146.845,52.157L146.81,52.163L146.739,52.169L146.564,52.137L146.469,52.089L146.411,52.047L146.385,52.022L146.27,51.843L146.239,51.669L146.27,51.494L146.385,51.315L146.531,51.214L146.739,51.169Z" style="fill:none;fill-rule:nonzero;stroke:rgb(0,0,255);stroke-width:1px;"/>
        <path d="M149.127,108.849L149.334,108.895L149.48,108.996L149.581,109.142L149.615,109.243L149.621,109.278L149.625,109.313L149.627,109.349L149.581,109.557L149.48,109.703L149.301,109.818L149.127,109.849L148.952,109.818L148.773,109.703L148.672,109.557L148.627,109.349L148.628,109.313L148.632,109.278L148.658,109.175L148.773,108.996L148.919,108.895L149.127,108.849Z" style="fill:none;fill-rule:nonzero;stroke:rgb(0,0,255);stroke-width:1px;"/>
        <path d="M159.361,100.999L159.536,101.031L159.714,101.146L159.816,101.292L159.861,101.499L159.86,101.535L159.856,101.571L159.829,101.674L159.714,101.853L159.536,101.968L159.361,101.999L159.186,101.968L159.007,101.853L158.892,101.674L158.861,101.499L158.906,101.292L159.007,101.146L159.153,101.045L159.22,101.02L159.254,101.011L159.361,100.999Z" style="fill:none;fill-rule:nonzero;stroke:rgb(0,0,255);stroke-width:1px;"/>
        <path d="M191.087,103.389L191.295,103.434L191.441,103.535L191.556,103.714L191.587,103.889L191.556,104.063L191.441,104.242L191.262,104.357L191.087,104.389L190.912,104.357L190.734,104.242L190.619,104.063L190.592,103.96L190.588,103.925L190.587,103.889L190.588,103.853L190.592,103.817L190.619,103.714L190.734,103.535L190.88,103.434L191.087,103.389Z" style="fill:none;fill-rule:nonzero;stroke:rgb(0,0,255);stroke-width:1px;"/>
        <path d="M162.772,62.432L162.947,62.463L163.126,62.578L163.227,62.724L163.272,62.932L163.241,63.107L163.126,63.285L162.98,63.387L162.947,63.4L162.913,63.411L162.879,63.42L162.772,63.432L162.565,63.387L162.419,63.285L162.304,63.107L162.272,62.932L162.317,62.724L162.419,62.578L162.565,62.477L162.772,62.432Z" style="fill:none;fill-rule:nonzero;stroke:rgb(0,0,255);stroke-width:1px;"/>
    </g>
</svg>
