<?xml version="1.0" encoding="UTF-8" standalone="no"?>
<!DOCTYPE svg PUBLIC "-//W3C//DTD SVG 1.1//EN" "http://www.w3.org/Graphics/SVG/1.1/DTD/svg11.dtd">
<svg width="100%" height="100%" viewBox="0 0 360 360" version="1.1" xmlns="http://www.w3.org/2000/svg" xmlns:xlink="http://www.w3.org/1999/xlink" xml:space="preserve" xmlns:serif="http://www.serif.com/" style="fill-rule:evenodd;clip-rule:evenodd;">
    <g id="_1" serif:id="1" transform="matrix(2.63668,0,0,2.63668,-294.603,-294.51)">
        <path d="M176.079,171.972L161.844,142.251" style="fill:none;fill-rule:nonzero;stroke:rgb(0,0,255);stroke-width:1px;"/>
        <path d="M155.706,126.11L161.844,142.251" style="fill:none;fill-rule:nonzero;stroke:rgb(0,0,255);stroke-width:1px;"/>
        <path d="M178.38,211.685L180.256,244.651" style="fill:none;fill-rule:nonzero;stroke:rgb(0,0,255);stroke-width:1px;"/>
        <path d="M204.294,192.213L180.256,246.701" style="fill:none;fill-rule:nonzero;stroke:rgb(0,0,255);stroke-width:1px;"/>
        <path d="M173.777,174.278L178.38,211.685" style="fill:none;fill-rule:nonzero;stroke:rgb(0,0,255);stroke-width:1px;"/>
        <path d="M178.38,169.666L204.294,192.213" style="fill:none;fill-rule:nonzero;stroke:rgb(0,0,255);stroke-width:1px;"/>
        <path d="M178.38,169.666L173.777,174.278" style="fill:none;fill-rule:nonzero;stroke:rgb(0,0,255);stroke-width:1px;"/>
        <path d="M171.22,128.843L181.961,113.641" style="fill:none;fill-rule:nonzero;stroke:rgb(0,0,255);stroke-width:1px;"/>
        <path d="M173.096,125.768L182.131,113.299" style="fill:none;fill-rule:nonzero;stroke:rgb(0,0,255);stroke-width:1px;"/>
        <path d="M156.388,146.265L171.22,128.843" style="fill:none;fill-rule:nonzero;stroke:rgb(0,0,255);stroke-width:1px;"/>
        <path d="M167.299,138.237L173.096,125.768" style="fill:none;fill-rule:nonzero;stroke:rgb(0,0,255);stroke-width:1px;"/>
        <path d="M167.299,138.237L156.388,146.265" style="fill:none;fill-rule:nonzero;stroke:rgb(0,0,255);stroke-width:1px;"/>
        <path d="M180.256,244.151L180.463,244.196L180.609,244.298L180.711,244.443L180.756,244.651L180.711,244.859L180.609,245.005L180.463,245.106L180.256,245.151L180.048,245.106L179.902,245.005L179.801,244.859L179.756,244.651L179.801,244.443L179.902,244.298L180.048,244.196L180.149,244.163L180.22,244.152L180.256,244.151Z" style="fill:none;fill-rule:nonzero;stroke:rgb(0,0,255);stroke-width:1px;"/>
        <path d="M180.256,246.201L180.362,246.212L180.397,246.221L180.431,246.232L180.463,246.246L180.609,246.347L180.711,246.493L180.756,246.701L180.711,246.908L180.609,247.054L180.431,247.169L180.256,247.201L180.081,247.169L179.902,247.054L179.801,246.908L179.756,246.701L179.801,246.493L179.902,246.347L180.048,246.246L180.256,246.201Z" style="fill:none;fill-rule:nonzero;stroke:rgb(0,0,255);stroke-width:1px;"/>
        <path d="M178.38,211.185L178.555,211.217L178.734,211.331L178.835,211.477L178.88,211.685L178.835,211.893L178.734,212.039L178.555,212.153L178.452,212.18L178.416,212.184L178.38,212.185L178.173,212.14L178.027,212.039L177.926,211.893L177.88,211.685L177.926,211.477L178.027,211.331L178.173,211.23L178.274,211.197L178.309,211.19L178.344,211.186L178.38,211.185Z" style="fill:none;fill-rule:nonzero;stroke:rgb(0,0,255);stroke-width:1px;"/>
        <path d="M204.294,191.713L204.468,191.744L204.647,191.859L204.748,192.005L204.794,192.213L204.762,192.388L204.647,192.566L204.468,192.681L204.294,192.713L204.187,192.701L204.152,192.692L204.119,192.681L204.086,192.668L203.94,192.566L203.825,192.388L203.794,192.213L203.839,192.005L203.893,191.914L203.915,191.886L203.94,191.859L204.086,191.758L204.294,191.713Z" style="fill:none;fill-rule:nonzero;stroke:rgb(0,0,255);stroke-width:1px;"/>
        <path d="M173.777,173.778L173.985,173.823L174.077,173.877L174.105,173.9L174.131,173.924L174.232,174.07L174.277,174.278L174.232,174.486L174.131,174.631L173.952,174.746L173.849,174.773L173.813,174.777L173.777,174.778L173.603,174.746L173.424,174.631L173.323,174.486L173.277,174.278L173.323,174.07L173.424,173.924L173.603,173.809L173.777,173.778Z" style="fill:none;fill-rule:nonzero;stroke:rgb(0,0,255);stroke-width:1px;"/>
        <path d="M178.38,169.166L178.555,169.198L178.734,169.313L178.835,169.458L178.88,169.666L178.835,169.874L178.781,169.965L178.759,169.993L178.734,170.02L178.555,170.135L178.38,170.166L178.173,170.121L178.081,170.067L178.053,170.044L178.027,170.02L177.926,169.874L177.88,169.666L177.926,169.458L178.027,169.313L178.173,169.211L178.38,169.166Z" style="fill:none;fill-rule:nonzero;stroke:rgb(0,0,255);stroke-width:1px;"/>
        <path d="M181.961,113.141L182.135,113.172L182.314,113.287L182.415,113.433L182.461,113.641L182.459,113.677L182.449,113.748L182.415,113.848L182.314,113.994L182.135,114.109L181.961,114.141L181.753,114.096L181.691,114.062L181.661,114.041L181.633,114.019L181.607,113.994L181.506,113.848L181.461,113.641L181.506,113.433L181.607,113.287L181.633,113.263L181.661,113.24L181.753,113.186L181.961,113.141Z" style="fill:none;fill-rule:nonzero;stroke:rgb(0,0,255);stroke-width:1px;"/>
        <path d="M182.131,112.799L182.339,112.844L182.485,112.946L182.586,113.092L182.631,113.299L182.586,113.507L182.485,113.653L182.458,113.677L182.401,113.72L182.306,113.768L182.131,113.799L181.956,113.768L181.923,113.754L181.892,113.738L181.861,113.72L181.832,113.7L181.804,113.677L181.777,113.653L181.676,113.507L181.631,113.299L181.632,113.263L181.643,113.192L181.676,113.092L181.777,112.946L181.923,112.844L182.131,112.799Z" style="fill:none;fill-rule:nonzero;stroke:rgb(0,0,255);stroke-width:1px;"/>
        <path d="M171.22,128.343L171.428,128.388L171.49,128.422L171.519,128.442L171.574,128.489L171.689,128.668L171.709,128.736L171.715,128.771L171.72,128.843L171.689,129.018L171.574,129.196L171.49,129.264L171.46,129.282L171.395,129.311L171.22,129.343L171.045,129.311L170.95,129.264L170.921,129.243L170.893,129.221L170.867,129.196L170.765,129.05L170.72,128.843L170.765,128.635L170.867,128.489L171.013,128.388L171.22,128.343Z" style="fill:none;fill-rule:nonzero;stroke:rgb(0,0,255);stroke-width:1px;"/>
        <path d="M173.096,125.268L173.27,125.3L173.365,125.347L173.395,125.368L173.423,125.39L173.449,125.415L173.496,125.469L173.516,125.498L173.535,125.529L173.55,125.561L173.596,125.768L173.55,125.976L173.449,126.122L173.27,126.237L173.096,126.268L173.06,126.267L173.024,126.263L172.921,126.237L172.888,126.223L172.856,126.207L172.826,126.189L172.742,126.122L172.641,125.976L172.596,125.768L172.641,125.561L172.742,125.415L172.888,125.313L173.096,125.268Z" style="fill:none;fill-rule:nonzero;stroke:rgb(0,0,255);stroke-width:1px;"/>
        <path d="M156.388,145.765L156.596,145.81L156.688,145.865L156.716,145.887L156.742,145.912L156.789,145.966L156.809,145.995L156.843,146.058L156.888,146.265L156.857,146.44L156.742,146.619L156.596,146.72L156.388,146.765L156.181,146.72L156.035,146.619L155.92,146.44L155.888,146.265L155.934,146.058L156.035,145.912L156.181,145.81L156.388,145.765Z" style="fill:none;fill-rule:nonzero;stroke:rgb(0,0,255);stroke-width:1px;"/>
        <path d="M167.299,137.737L167.507,137.782L167.539,137.798L167.569,137.816L167.598,137.837L167.653,137.884L167.754,138.03L167.799,138.237L167.768,138.412L167.653,138.591L167.507,138.692L167.299,138.737L167.092,138.692L166.946,138.591L166.921,138.564L166.899,138.537L166.878,138.507L166.831,138.412L166.799,138.237L166.844,138.03L166.946,137.884L167.092,137.782L167.299,137.737Z" style="fill:none;fill-rule:nonzero;stroke:rgb(0,0,255);stroke-width:1px;"/>
        <path d="M155.706,125.61L155.914,125.655L156.06,125.756L156.161,125.902L156.206,126.11L156.161,126.317L156.06,126.463L155.976,126.531L155.946,126.549L155.914,126.565L155.881,126.578L155.706,126.61L155.532,126.578L155.353,126.463L155.238,126.285L155.206,126.11L155.238,125.935L155.353,125.756L155.499,125.655L155.706,125.61Z" style="fill:none;fill-rule:nonzero;stroke:rgb(0,0,255);stroke-width:1px;"/>
    </g>
</svg>
