<?xml version="1.0" encoding="UTF-8" standalone="no"?>
<!DOCTYPE svg PUBLIC "-//W3C//DTD SVG 1.1//EN" "http://www.w3.org/Graphics/SVG/1.1/DTD/svg11.dtd">
<svg width="100%" height="100%" viewBox="0 0 360 360" version="1.1" xmlns="http://www.w3.org/2000/svg" xmlns:xlink="http://www.w3.org/1999/xlink" xml:space="preserve" xmlns:serif="http://www.serif.com/" style="fill-rule:evenodd;clip-rule:evenodd;">
    <g id="_1" serif:id="1" transform="matrix(2.52719,0,0,2.52719,-274.894,-274.558)">
        <path d="M188.47,181.137L199.123,140.83" style="fill:none;fill-rule:nonzero;stroke:rgb(0,0,255);stroke-width:1px;"/>
        <path d="M200.957,131.824L199.123,140.83" style="fill:none;fill-rule:nonzero;stroke:rgb(0,0,255);stroke-width:1px;"/>
        <path d="M193.971,215.061L184.366,249.51" style="fill:none;fill-rule:nonzero;stroke:rgb(0,0,255);stroke-width:1px;"/>
        <path d="M207.244,207.017L177.555,221.006" style="fill:none;fill-rule:nonzero;stroke:rgb(0,0,255);stroke-width:1px;"/>
        <path d="M184.191,181.137L193.971,215.061" style="fill:none;fill-rule:nonzero;stroke:rgb(0,0,255);stroke-width:1px;"/>
        <path d="M192.749,181.137L207.244,207.017" style="fill:none;fill-rule:nonzero;stroke:rgb(0,0,255);stroke-width:1px;"/>
        <path d="M192.749,181.137L184.191,181.137" style="fill:none;fill-rule:nonzero;stroke:rgb(0,0,255);stroke-width:1px;"/>
        <path d="M170.395,143.715L147.167,139.693" style="fill:none;fill-rule:nonzero;stroke:rgb(0,0,255);stroke-width:1px;"/>
        <path d="M212.833,122.556L203.228,110.49" style="fill:none;fill-rule:nonzero;stroke:rgb(0,0,255);stroke-width:1px;"/>
        <path d="M191.003,141.791L170.395,143.715" style="fill:none;fill-rule:nonzero;stroke:rgb(0,0,255);stroke-width:1px;"/>
        <path d="M207.244,139.868L212.833,122.556" style="fill:none;fill-rule:nonzero;stroke:rgb(0,0,255);stroke-width:1px;"/>
        <path d="M207.244,139.868L191.003,141.791" style="fill:none;fill-rule:nonzero;stroke:rgb(0,0,255);stroke-width:1px;"/>
        <path d="M184.366,249.01L184.473,249.021L184.507,249.03L184.574,249.055L184.72,249.156L184.821,249.302L184.866,249.51L184.821,249.718L184.72,249.863L184.574,249.965L184.366,250.01L184.191,249.978L184.013,249.863L183.898,249.685L183.866,249.51L183.911,249.302L184.013,249.156L184.158,249.055L184.366,249.01Z" style="fill:none;fill-rule:nonzero;stroke:rgb(0,0,255);stroke-width:1px;"/>
        <path d="M177.555,220.506L177.763,220.552L177.909,220.653L177.956,220.707L177.976,220.737L177.994,220.767L178.01,220.799L178.055,221.006L178.01,221.214L177.909,221.36L177.763,221.461L177.555,221.506L177.347,221.461L177.201,221.36L177.1,221.214L177.055,221.006L177.087,220.832L177.201,220.653L177.38,220.538L177.555,220.506Z" style="fill:none;fill-rule:nonzero;stroke:rgb(0,0,255);stroke-width:1px;"/>
        <path d="M193.971,214.561L194.179,214.606L194.325,214.707L194.44,214.886L194.471,215.061L194.44,215.236L194.325,215.415L194.179,215.516L193.971,215.561L193.865,215.549L193.83,215.541L193.764,215.516L193.618,215.415L193.517,215.269L193.471,215.061L193.517,214.853L193.618,214.707L193.764,214.606L193.83,214.581L193.865,214.573L193.971,214.561Z" style="fill:none;fill-rule:nonzero;stroke:rgb(0,0,255);stroke-width:1px;"/>
        <path d="M207.244,206.517L207.452,206.562L207.598,206.664L207.699,206.809L207.744,207.017L207.713,207.192L207.598,207.371L207.419,207.486L207.244,207.517L207.037,207.472L206.891,207.371L206.844,207.316L206.823,207.287L206.805,207.256L206.789,207.225L206.744,207.017L206.789,206.809L206.891,206.664L206.945,206.617L206.974,206.596L207.005,206.578L207.037,206.562L207.244,206.517Z" style="fill:none;fill-rule:nonzero;stroke:rgb(0,0,255);stroke-width:1px;"/>
        <path d="M184.191,180.637L184.399,180.682L184.545,180.783L184.646,180.929L184.68,181.03L184.69,181.101L184.691,181.137L184.69,181.173L184.68,181.243L184.646,181.344L184.545,181.49L184.399,181.592L184.333,181.616L184.298,181.625L184.191,181.637L183.984,181.592L183.838,181.49L183.723,181.311L183.691,181.137L183.723,180.962L183.838,180.783L183.984,180.682L184.191,180.637Z" style="fill:none;fill-rule:nonzero;stroke:rgb(0,0,255);stroke-width:1px;"/>
        <path d="M192.749,180.637L192.957,180.682L193.103,180.783L193.204,180.929L193.249,181.137L193.204,181.344L193.103,181.49L193.048,181.537L193.019,181.558L192.988,181.576L192.957,181.592L192.749,181.637L192.541,181.592L192.395,181.49L192.281,181.311L192.254,181.208L192.25,181.173L192.249,181.137L192.25,181.101L192.254,181.065L192.281,180.962L192.395,180.783L192.541,180.682L192.749,180.637Z" style="fill:none;fill-rule:nonzero;stroke:rgb(0,0,255);stroke-width:1px;"/>
        <path d="M147.167,139.193L147.375,139.238L147.521,139.339L147.622,139.485L147.667,139.693L147.666,139.729L147.662,139.765L147.656,139.8L147.622,139.901L147.521,140.047L147.342,140.161L147.167,140.193L146.992,140.161L146.814,140.047L146.699,139.868L146.667,139.693L146.699,139.518L146.814,139.339L146.959,139.238L147.167,139.193Z" style="fill:none;fill-rule:nonzero;stroke:rgb(0,0,255);stroke-width:1px;"/>
        <path d="M203.228,109.99L203.435,110.035L203.581,110.137L203.682,110.282L203.728,110.49L203.682,110.698L203.581,110.844L203.555,110.868L203.527,110.891L203.435,110.945L203.228,110.99L203.02,110.945L202.874,110.844L202.773,110.698L202.728,110.49L202.759,110.315L202.874,110.137L203.053,110.022L203.228,109.99Z" style="fill:none;fill-rule:nonzero;stroke:rgb(0,0,255);stroke-width:1px;"/>
        <path d="M170.395,143.215L170.602,143.26L170.748,143.361L170.849,143.507L170.883,143.608L170.889,143.643L170.893,143.679L170.895,143.715L170.849,143.923L170.748,144.069L170.602,144.17L170.395,144.215L170.187,144.17L170.041,144.069L169.926,143.89L169.895,143.715L169.9,143.643L169.906,143.608L169.926,143.54L170.041,143.361L170.22,143.247L170.395,143.215Z" style="fill:none;fill-rule:nonzero;stroke:rgb(0,0,255);stroke-width:1px;"/>
        <path d="M212.833,122.056L213.008,122.088L213.186,122.202L213.301,122.381L213.333,122.556L213.301,122.731L213.186,122.91L213.008,123.024L212.833,123.056L212.761,123.051L212.726,123.044L212.692,123.036L212.658,123.024L212.479,122.91L212.378,122.764L212.333,122.556L212.378,122.348L212.479,122.202L212.506,122.178L212.534,122.155L212.563,122.135L212.658,122.088L212.833,122.056Z" style="fill:none;fill-rule:nonzero;stroke:rgb(0,0,255);stroke-width:1px;"/>
        <path d="M191.003,141.291L191.21,141.337L191.356,141.438L191.457,141.584L191.491,141.685L191.497,141.72L191.501,141.755L191.503,141.791L191.457,141.999L191.356,142.145L191.177,142.26L191.003,142.291L190.828,142.26L190.649,142.145L190.534,141.966L190.508,141.863L190.504,141.827L190.503,141.791L190.534,141.617L190.649,141.438L190.795,141.337L191.003,141.291Z" style="fill:none;fill-rule:nonzero;stroke:rgb(0,0,255);stroke-width:1px;"/>
        <path d="M207.244,139.368L207.316,139.373L207.351,139.379L207.385,139.388L207.419,139.399L207.598,139.514L207.713,139.693L207.744,139.868L207.699,140.075L207.598,140.221L207.452,140.323L207.244,140.368L207.037,140.323L206.891,140.221L206.789,140.075L206.756,139.975L206.749,139.939L206.746,139.904L206.744,139.868L206.789,139.66L206.891,139.514L207.037,139.413L207.244,139.368Z" style="fill:none;fill-rule:nonzero;stroke:rgb(0,0,255);stroke-width:1px;"/>
        <path d="M200.957,131.324L201.132,131.356L201.311,131.47L201.426,131.649L201.457,131.824L201.426,131.999L201.311,132.178L201.165,132.279L200.957,132.324L200.921,132.323L200.886,132.319L200.85,132.312L200.75,132.279L200.604,132.178L200.502,132.032L200.457,131.824L200.502,131.616L200.604,131.47L200.782,131.356L200.957,131.324Z" style="fill:none;fill-rule:nonzero;stroke:rgb(0,0,255);stroke-width:1px;"/>
    </g>
</svg>
