<?xml version="1.0" encoding="UTF-8" standalone="no"?>
<!DOCTYPE svg PUBLIC "-//W3C//DTD SVG 1.1//EN" "http://www.w3.org/Graphics/SVG/1.1/DTD/svg11.dtd">
<svg width="100%" height="100%" viewBox="0 0 360 360" version="1.1" xmlns="http://www.w3.org/2000/svg" xmlns:xlink="http://www.w3.org/1999/xlink" xml:space="preserve" xmlns:serif="http://www.serif.com/" style="fill-rule:evenodd;clip-rule:evenodd;">
    <g id="_1" serif:id="1" transform="matrix(3.91421,0,0,3.91421,-524.558,-524.714)">
        <path d="M202.176,191.03L175.2,175.3" style="fill:none;fill-rule:nonzero;stroke:rgb(0,0,255);stroke-width:1px;"/>
        <path d="M163.68,180.767L175.2,175.3" style="fill:none;fill-rule:nonzero;stroke:rgb(0,0,255);stroke-width:1px;"/>
        <path d="M154.464,197.456L148.704,224.694" style="fill:none;fill-rule:nonzero;stroke:rgb(0,0,255);stroke-width:1px;"/>
        <path d="M184.8,198.798L198.24,224.503" style="fill:none;fill-rule:nonzero;stroke:rgb(0,0,255);stroke-width:1px;"/>
        <path d="M193.056,189.207L154.464,197.456" style="fill:none;fill-rule:nonzero;stroke:rgb(0,0,255);stroke-width:1px;"/>
        <path d="M211.296,192.852L184.8,198.798" style="fill:none;fill-rule:nonzero;stroke:rgb(0,0,255);stroke-width:1px;"/>
        <path d="M211.296,192.852L193.056,189.207" style="fill:none;fill-rule:nonzero;stroke:rgb(0,0,255);stroke-width:1px;"/>
        <path d="M163.872,191.893L166.176,189.207" style="fill:none;fill-rule:nonzero;stroke:rgb(0,0,255);stroke-width:1px;"/>
        <path d="M172.896,149.5L159.84,135.306" style="fill:none;fill-rule:nonzero;stroke:rgb(0,0,255);stroke-width:1px;"/>
        <path d="M171.552,185.371L163.872,191.893" style="fill:none;fill-rule:nonzero;stroke:rgb(0,0,255);stroke-width:1px;"/>
        <path d="M178.848,165.23L172.896,149.5" style="fill:none;fill-rule:nonzero;stroke:rgb(0,0,255);stroke-width:1px;"/>
        <path d="M178.848,165.23L171.552,185.371" style="fill:none;fill-rule:nonzero;stroke:rgb(0,0,255);stroke-width:1px;"/>
        <path d="M148.704,224.194L148.775,224.199L148.811,224.206L148.879,224.226L149.057,224.341L149.172,224.52L149.204,224.694L149.172,224.869L149.057,225.048L148.911,225.149L148.704,225.194L148.529,225.163L148.35,225.048L148.235,224.869L148.204,224.694L148.249,224.487L148.35,224.341L148.529,224.226L148.704,224.194Z" style="fill:none;fill-rule:nonzero;stroke:rgb(0,0,255);stroke-width:1px;"/>
        <path d="M198.24,224.003L198.415,224.034L198.594,224.149L198.709,224.328L198.74,224.503L198.709,224.677L198.594,224.856L198.415,224.971L198.24,225.003L198.065,224.971L197.887,224.856L197.785,224.71L197.74,224.503L197.785,224.295L197.887,224.149L197.97,224.082L198.001,224.064L198.033,224.048L198.065,224.034L198.24,224.003Z" style="fill:none;fill-rule:nonzero;stroke:rgb(0,0,255);stroke-width:1px;"/>
        <path d="M154.464,196.956L154.671,197.001L154.817,197.102L154.919,197.248L154.952,197.349L154.959,197.384L154.963,197.42L154.964,197.456L154.919,197.663L154.817,197.809L154.639,197.924L154.464,197.956L154.392,197.951L154.357,197.944L154.289,197.924L154.11,197.809L153.995,197.631L153.964,197.456L153.995,197.281L154.11,197.102L154.256,197.001L154.464,196.956Z" style="fill:none;fill-rule:nonzero;stroke:rgb(0,0,255);stroke-width:1px;"/>
        <path d="M184.8,198.298L184.975,198.33L185.154,198.445L185.268,198.624L185.28,198.657L185.289,198.692L185.295,198.727L185.3,198.798L185.268,198.973L185.154,199.152L185.099,199.199L185.07,199.219L185.039,199.237L185.008,199.253L184.8,199.298L184.592,199.253L184.446,199.152L184.332,198.973L184.3,198.798L184.332,198.624L184.446,198.445L184.625,198.33L184.8,198.298Z" style="fill:none;fill-rule:nonzero;stroke:rgb(0,0,255);stroke-width:1px;"/>
        <path d="M193.056,188.707L193.231,188.739L193.41,188.854L193.511,189L193.556,189.207L193.555,189.243L193.551,189.279L193.545,189.314L193.511,189.415L193.41,189.561L193.264,189.662L193.056,189.707L192.848,189.662L192.703,189.561L192.588,189.382L192.568,189.314L192.561,189.279L192.556,189.207L192.588,189.033L192.703,188.854L192.881,188.739L193.056,188.707Z" style="fill:none;fill-rule:nonzero;stroke:rgb(0,0,255);stroke-width:1px;"/>
        <path d="M211.296,192.352L211.471,192.384L211.65,192.498L211.765,192.677L211.796,192.852L211.765,193.027L211.65,193.206L211.471,193.32L211.296,193.352L211.121,193.32L210.943,193.206L210.828,193.027L210.817,192.993L210.808,192.959L210.801,192.924L210.796,192.852L210.801,192.78L210.808,192.745L210.828,192.677L210.943,192.498L211.121,192.384L211.296,192.352Z" style="fill:none;fill-rule:nonzero;stroke:rgb(0,0,255);stroke-width:1px;"/>
        <path d="M166.176,188.707L166.351,188.739L166.529,188.854L166.644,189.033L166.676,189.207L166.644,189.382L166.529,189.561L166.384,189.662L166.176,189.707L165.968,189.662L165.877,189.608L165.849,189.586L165.822,189.561L165.707,189.382L165.676,189.207L165.707,189.033L165.822,188.854L166.001,188.739L166.176,188.707Z" style="fill:none;fill-rule:nonzero;stroke:rgb(0,0,255);stroke-width:1px;"/>
        <path d="M159.84,134.806L160.047,134.851L160.193,134.952L160.308,135.131L160.34,135.306L160.308,135.48L160.193,135.659L160.167,135.684L160.11,135.727L160.015,135.774L159.84,135.806L159.665,135.774L159.486,135.659L159.371,135.48L159.34,135.306L159.371,135.131L159.486,134.952L159.632,134.851L159.84,134.806Z" style="fill:none;fill-rule:nonzero;stroke:rgb(0,0,255);stroke-width:1px;"/>
        <path d="M163.872,191.393L164.079,191.438L164.171,191.492L164.199,191.515L164.225,191.539L164.25,191.566L164.272,191.594L164.293,191.623L164.34,191.718L164.372,191.893L164.34,192.068L164.225,192.246L164.047,192.361L163.872,192.393L163.697,192.361L163.518,192.246L163.403,192.068L163.372,191.893L163.403,191.718L163.518,191.539L163.664,191.438L163.872,191.393Z" style="fill:none;fill-rule:nonzero;stroke:rgb(0,0,255);stroke-width:1px;"/>
        <path d="M172.896,149L173.071,149.032L173.25,149.147L173.364,149.326L173.396,149.5L173.364,149.675L173.25,149.854L173.104,149.955L173.071,149.969L173.037,149.98L173.003,149.989L172.896,150L172.688,149.955L172.542,149.854L172.441,149.708L172.396,149.5L172.441,149.293L172.542,149.147L172.569,149.122L172.626,149.08L172.721,149.032L172.896,149Z" style="fill:none;fill-rule:nonzero;stroke:rgb(0,0,255);stroke-width:1px;"/>
        <path d="M171.552,184.871L171.659,184.883L171.693,184.891L171.727,184.903L171.76,184.916L171.905,185.017L172.02,185.196L172.052,185.371L172.02,185.546L171.905,185.725L171.727,185.839L171.552,185.871L171.377,185.839L171.198,185.725L171.174,185.698L171.151,185.67L171.097,185.579L171.052,185.371L171.097,185.163L171.198,185.017L171.344,184.916L171.552,184.871Z" style="fill:none;fill-rule:nonzero;stroke:rgb(0,0,255);stroke-width:1px;"/>
        <path d="M178.848,164.73L179.056,164.775L179.202,164.876L179.316,165.055L179.348,165.23L179.316,165.405L179.202,165.583L179.023,165.698L178.848,165.73L178.776,165.725L178.741,165.718L178.707,165.709L178.673,165.698L178.494,165.583L178.38,165.405L178.348,165.23L178.38,165.055L178.494,164.876L178.64,164.775L178.673,164.761L178.707,164.75L178.741,164.741L178.848,164.73Z" style="fill:none;fill-rule:nonzero;stroke:rgb(0,0,255);stroke-width:1px;"/>
        <path d="M163.68,180.267L163.887,180.312L164.033,180.414L164.101,180.497L164.119,180.528L164.135,180.56L164.148,180.592L164.18,180.767L164.148,180.942L164.033,181.121L163.855,181.236L163.68,181.267L163.505,181.236L163.326,181.121L163.225,180.975L163.18,180.767L163.211,180.592L163.326,180.414L163.505,180.299L163.68,180.267Z" style="fill:none;fill-rule:nonzero;stroke:rgb(0,0,255);stroke-width:1px;"/>
    </g>
</svg>
