<?xml version="1.0" encoding="UTF-8" standalone="no"?>
<!DOCTYPE svg PUBLIC "-//W3C//DTD SVG 1.1//EN" "http://www.w3.org/Graphics/SVG/1.1/DTD/svg11.dtd">
<svg width="100%" height="100%" viewBox="0 0 360 360" version="1.1" xmlns="http://www.w3.org/2000/svg" xmlns:xlink="http://www.w3.org/1999/xlink" xml:space="preserve" xmlns:serif="http://www.serif.com/" style="fill-rule:evenodd;clip-rule:evenodd;">
    <g id="_1" serif:id="1" transform="matrix(2.76467,0,0,2.76467,-317.546,-317.551)">
        <path d="M155.602,171.254L196.265,153.762" style="fill:none;fill-rule:nonzero;stroke:rgb(0,0,255);stroke-width:1px;"/>
        <path d="M212.618,156.299L196.265,153.762" style="fill:none;fill-rule:nonzero;stroke:rgb(0,0,255);stroke-width:1px;"/>
        <path d="M153.678,199.853L135.314,232.738" style="fill:none;fill-rule:nonzero;stroke:rgb(0,0,255);stroke-width:1px;"/>
        <path d="M155.602,169.767L122.722,141.606" style="fill:none;fill-rule:nonzero;stroke:rgb(0,0,255);stroke-width:1px;"/>
        <path d="M155.602,172.741L153.678,199.853" style="fill:none;fill-rule:nonzero;stroke:rgb(0,0,255);stroke-width:1px;"/>
        <path d="M155.602,172.741L155.602,169.767" style="fill:none;fill-rule:nonzero;stroke:rgb(0,0,255);stroke-width:1px;"/>
        <path d="M212.793,187.959L237.278,195.83" style="fill:none;fill-rule:nonzero;stroke:rgb(0,0,255);stroke-width:1px;"/>
        <path d="M177.289,135.484L160.149,126.038" style="fill:none;fill-rule:nonzero;stroke:rgb(0,0,255);stroke-width:1px;"/>
        <path d="M195.653,166.094L212.793,187.959" style="fill:none;fill-rule:nonzero;stroke:rgb(0,0,255);stroke-width:1px;"/>
        <path d="M196.877,141.431L177.289,135.484" style="fill:none;fill-rule:nonzero;stroke:rgb(0,0,255);stroke-width:1px;"/>
        <path d="M196.877,141.431L195.653,166.094" style="fill:none;fill-rule:nonzero;stroke:rgb(0,0,255);stroke-width:1px;"/>
        <path d="M135.314,232.238L135.522,232.283L135.554,232.299L135.584,232.317L135.613,232.337L135.668,232.384L135.769,232.53L135.814,232.738L135.769,232.945L135.668,233.091L135.522,233.192L135.314,233.238L135.107,233.192L134.961,233.091L134.859,232.945L134.814,232.738L134.859,232.53L134.961,232.384L135.107,232.283L135.314,232.238Z" style="fill:none;fill-rule:nonzero;stroke:rgb(0,0,255);stroke-width:1px;"/>
        <path d="M122.722,141.106L122.897,141.137L123.075,141.252L123.177,141.398L123.222,141.606L123.177,141.813L123.122,141.905L123.1,141.933L123.075,141.959L122.897,142.074L122.793,142.101L122.758,142.104L122.722,142.106L122.514,142.061L122.368,141.959L122.267,141.813L122.222,141.606L122.267,141.398L122.368,141.252L122.547,141.137L122.722,141.106Z" style="fill:none;fill-rule:nonzero;stroke:rgb(0,0,255);stroke-width:1px;"/>
        <path d="M153.678,199.353L153.714,199.354L153.785,199.365L153.886,199.398L154.032,199.5L154.133,199.646L154.178,199.853L154.133,200.061L154.032,200.207L153.886,200.308L153.678,200.353L153.471,200.308L153.439,200.292L153.408,200.274L153.379,200.254L153.325,200.207L153.223,200.061L153.178,199.853L153.223,199.646L153.325,199.5L153.471,199.398L153.678,199.353Z" style="fill:none;fill-rule:nonzero;stroke:rgb(0,0,255);stroke-width:1px;"/>
        <path d="M155.602,169.267L155.81,169.312L155.956,169.414L156.057,169.56L156.102,169.767L156.057,169.975L155.956,170.121L155.81,170.222L155.709,170.256L155.638,170.266L155.602,170.267L155.566,170.266L155.495,170.256L155.394,170.222L155.249,170.121L155.147,169.975L155.102,169.767L155.147,169.56L155.202,169.468L155.224,169.44L155.249,169.414L155.394,169.312L155.602,169.267Z" style="fill:none;fill-rule:nonzero;stroke:rgb(0,0,255);stroke-width:1px;"/>
        <path d="M155.602,172.241L155.638,172.242L155.709,172.252L155.81,172.286L155.956,172.387L156.057,172.533L156.102,172.741L156.057,172.949L155.956,173.094L155.81,173.196L155.602,173.241L155.566,173.24L155.495,173.229L155.394,173.196L155.249,173.094L155.147,172.949L155.102,172.741L155.147,172.533L155.249,172.387L155.394,172.286L155.495,172.252L155.566,172.242L155.602,172.241Z" style="fill:none;fill-rule:nonzero;stroke:rgb(0,0,255);stroke-width:1px;"/>
        <path d="M237.278,195.33L237.453,195.362L237.632,195.476L237.733,195.622L237.778,195.83L237.733,196.038L237.632,196.184L237.453,196.298L237.278,196.33L237.071,196.285L236.925,196.184L236.823,196.038L236.778,195.83L236.79,195.723L236.799,195.689L236.81,195.655L236.823,195.622L236.925,195.476L237.071,195.375L237.278,195.33Z" style="fill:none;fill-rule:nonzero;stroke:rgb(0,0,255);stroke-width:1px;"/>
        <path d="M160.149,125.538L160.357,125.583L160.503,125.684L160.618,125.863L160.649,126.038L160.618,126.213L160.588,126.277L160.57,126.308L160.503,126.392L160.357,126.493L160.149,126.538L159.942,126.493L159.796,126.392L159.681,126.213L159.649,126.038L159.681,125.863L159.796,125.684L159.942,125.583L160.149,125.538Z" style="fill:none;fill-rule:nonzero;stroke:rgb(0,0,255);stroke-width:1px;"/>
        <path d="M212.793,187.459L213.001,187.504L213.146,187.605L213.248,187.751L213.293,187.959L213.281,188.065L213.273,188.1L213.261,188.134L213.248,188.166L213.146,188.312L213.001,188.414L212.793,188.459L212.585,188.414L212.439,188.312L212.324,188.134L212.293,187.959L212.324,187.784L212.439,187.605L212.466,187.581L212.494,187.558L212.585,187.504L212.793,187.459Z" style="fill:none;fill-rule:nonzero;stroke:rgb(0,0,255);stroke-width:1px;"/>
        <path d="M177.289,134.984L177.464,135.015L177.643,135.13L177.744,135.276L177.789,135.484L177.778,135.59L177.769,135.625L177.758,135.658L177.744,135.691L177.643,135.837L177.464,135.952L177.289,135.984L177.114,135.952L176.936,135.837L176.834,135.691L176.789,135.484L176.834,135.276L176.85,135.244L176.868,135.214L176.889,135.184L176.936,135.13L177.114,135.015L177.289,134.984Z" style="fill:none;fill-rule:nonzero;stroke:rgb(0,0,255);stroke-width:1px;"/>
        <path d="M195.653,165.594L195.689,165.595L195.725,165.599L195.828,165.626L196.007,165.741L196.108,165.886L196.153,166.094L196.108,166.302L196.007,166.448L195.98,166.472L195.952,166.495L195.923,166.515L195.828,166.563L195.653,166.594L195.446,166.549L195.3,166.448L195.198,166.302L195.153,166.094L195.198,165.886L195.3,165.741L195.446,165.639L195.653,165.594Z" style="fill:none;fill-rule:nonzero;stroke:rgb(0,0,255);stroke-width:1px;"/>
        <path d="M196.877,140.931L197.085,140.976L197.231,141.077L197.332,141.223L197.377,141.431L197.332,141.638L197.231,141.784L197.085,141.886L196.877,141.931L196.841,141.929L196.771,141.919L196.67,141.886L196.524,141.784L196.423,141.638L196.377,141.431L196.389,141.324L196.398,141.29L196.409,141.256L196.423,141.223L196.524,141.077L196.67,140.976L196.877,140.931Z" style="fill:none;fill-rule:nonzero;stroke:rgb(0,0,255);stroke-width:1px;"/>
        <path d="M212.618,155.799L212.793,155.83L212.972,155.945L213.073,156.091L213.118,156.299L213.073,156.506L212.972,156.652L212.793,156.767L212.618,156.799L212.41,156.754L212.264,156.652L212.163,156.506L212.118,156.299L212.119,156.263L212.123,156.227L212.13,156.192L212.163,156.091L212.264,155.945L212.41,155.844L212.618,155.799Z" style="fill:none;fill-rule:nonzero;stroke:rgb(0,0,255);stroke-width:1px;"/>
    </g>
</svg>
