<?xml version="1.0" encoding="UTF-8" standalone="no"?>
<!DOCTYPE svg PUBLIC "-//W3C//DTD SVG 1.1//EN" "http://www.w3.org/Graphics/SVG/1.1/DTD/svg11.dtd">
<svg width="100%" height="100%" viewBox="0 0 360 360" version="1.1" xmlns="http://www.w3.org/2000/svg" xmlns:xlink="http://www.w3.org/1999/xlink" xml:space="preserve" xmlns:serif="http://www.serif.com/" style="fill-rule:evenodd;clip-rule:evenodd;">
    <g id="_1" serif:id="1" transform="matrix(4.9863,0,0,4.9863,-717.534,-718.091)">
        <path d="M184.856,182.962L181.895,158.138" style="fill:none;fill-rule:nonzero;stroke:rgb(0,0,255);stroke-width:1px;"/>
        <path d="M181.895,147.237L181.895,158.138" style="fill:none;fill-rule:nonzero;stroke:rgb(0,0,255);stroke-width:1px;"/>
        <path d="M171.946,201.506L162.826,214.54" style="fill:none;fill-rule:nonzero;stroke:rgb(0,0,255);stroke-width:1px;"/>
        <path d="M206.532,193.33L209.493,214.54" style="fill:none;fill-rule:nonzero;stroke:rgb(0,0,255);stroke-width:1px;"/>
        <path d="M179.526,182.903L171.946,201.506" style="fill:none;fill-rule:nonzero;stroke:rgb(0,0,255);stroke-width:1px;"/>
        <path d="M190.186,183.022L206.532,193.33" style="fill:none;fill-rule:nonzero;stroke:rgb(0,0,255);stroke-width:1px;"/>
        <path d="M190.186,183.022L179.526,182.903" style="fill:none;fill-rule:nonzero;stroke:rgb(0,0,255);stroke-width:1px;"/>
        <path d="M164.128,157.072L150.507,153.873" style="fill:none;fill-rule:nonzero;stroke:rgb(0,0,255);stroke-width:1px;"/>
        <path d="M191.963,151.503L196.819,145.46" style="fill:none;fill-rule:nonzero;stroke:rgb(0,0,255);stroke-width:1px;"/>
        <path d="M176.447,158.849L164.128,157.072" style="fill:none;fill-rule:nonzero;stroke:rgb(0,0,255);stroke-width:1px;"/>
        <path d="M187.344,157.427L191.963,151.503" style="fill:none;fill-rule:nonzero;stroke:rgb(0,0,255);stroke-width:1px;"/>
        <path d="M187.344,157.427L176.447,158.849" style="fill:none;fill-rule:nonzero;stroke:rgb(0,0,255);stroke-width:1px;"/>
        <path d="M162.826,214.04L163,214.072L163.095,214.12L163.125,214.14L163.153,214.162L163.179,214.187L163.28,214.333L163.326,214.54L163.294,214.715L163.179,214.894L163.033,214.995L162.826,215.04L162.618,214.995L162.472,214.894L162.357,214.715L162.326,214.54L162.371,214.333L162.472,214.187L162.651,214.072L162.826,214.04Z" style="fill:none;fill-rule:nonzero;stroke:rgb(0,0,255);stroke-width:1px;"/>
        <path d="M209.493,214.04L209.668,214.072L209.846,214.187L209.961,214.366L209.993,214.54L209.961,214.715L209.846,214.894L209.7,214.995L209.493,215.04L209.285,214.995L209.139,214.894L209.038,214.748L208.993,214.54L209.038,214.333L209.139,214.187L209.318,214.072L209.421,214.046L209.457,214.042L209.493,214.04Z" style="fill:none;fill-rule:nonzero;stroke:rgb(0,0,255);stroke-width:1px;"/>
        <path d="M171.946,201.006L172.052,201.018L172.087,201.027L172.121,201.038L172.153,201.051L172.299,201.153L172.401,201.299L172.446,201.506L172.414,201.681L172.299,201.86L172.153,201.961L171.946,202.006L171.738,201.961L171.676,201.927L171.646,201.907L171.592,201.86L171.477,201.681L171.446,201.506L171.491,201.299L171.592,201.153L171.738,201.051L171.946,201.006Z" style="fill:none;fill-rule:nonzero;stroke:rgb(0,0,255);stroke-width:1px;"/>
        <path d="M206.532,192.83L206.706,192.862L206.885,192.977L206.986,193.123L207.032,193.33L207,193.505L206.885,193.684L206.706,193.799L206.603,193.825L206.568,193.829L206.532,193.83L206.324,193.785L206.178,193.684L206.063,193.505L206.032,193.33L206.077,193.123L206.093,193.091L206.111,193.06L206.131,193.031L206.178,192.977L206.324,192.875L206.532,192.83Z" style="fill:none;fill-rule:nonzero;stroke:rgb(0,0,255);stroke-width:1px;"/>
        <path d="M179.526,182.403L179.734,182.448L179.88,182.55L179.995,182.728L180.026,182.903L180.025,182.939L180.015,183.01L179.981,183.111L179.88,183.257L179.734,183.358L179.526,183.403L179.42,183.392L179.385,183.383L179.351,183.371L179.319,183.358L179.173,183.257L179.071,183.111L179.026,182.903L179.058,182.728L179.173,182.55L179.319,182.448L179.526,182.403Z" style="fill:none;fill-rule:nonzero;stroke:rgb(0,0,255);stroke-width:1px;"/>
        <path d="M190.186,182.522L190.394,182.567L190.54,182.668L190.641,182.814L190.686,183.022L190.641,183.229L190.625,183.261L190.607,183.291L190.587,183.321L190.54,183.375L190.394,183.476L190.186,183.522L189.979,183.476L189.833,183.375L189.731,183.229L189.686,183.022L189.688,182.986L189.698,182.915L189.731,182.814L189.833,182.668L189.979,182.567L190.186,182.522Z" style="fill:none;fill-rule:nonzero;stroke:rgb(0,0,255);stroke-width:1px;"/>
        <path d="M150.507,153.373L150.715,153.418L150.861,153.519L150.962,153.665L151.007,153.873L150.996,153.979L150.987,154.014L150.962,154.08L150.861,154.226L150.715,154.327L150.507,154.373L150.3,154.327L150.154,154.226L150.052,154.08L150.007,153.873L150.052,153.665L150.154,153.519L150.3,153.418L150.507,153.373Z" style="fill:none;fill-rule:nonzero;stroke:rgb(0,0,255);stroke-width:1px;"/>
        <path d="M196.819,144.96L197.027,145.005L197.173,145.106L197.288,145.285L197.319,145.46L197.288,145.634L197.173,145.813L197.027,145.914L196.819,145.96L196.612,145.914L196.52,145.86L196.492,145.838L196.466,145.813L196.351,145.634L196.319,145.46L196.351,145.285L196.466,145.106L196.612,145.005L196.819,144.96Z" style="fill:none;fill-rule:nonzero;stroke:rgb(0,0,255);stroke-width:1px;"/>
        <path d="M164.128,156.572L164.336,156.617L164.482,156.718L164.597,156.897L164.628,157.072L164.627,157.108L164.623,157.143L164.597,157.247L164.482,157.425L164.303,157.54L164.128,157.572L163.954,157.54L163.775,157.425L163.66,157.247L163.628,157.072L163.634,157L163.64,156.965L163.649,156.931L163.66,156.897L163.775,156.718L163.921,156.617L164.128,156.572Z" style="fill:none;fill-rule:nonzero;stroke:rgb(0,0,255);stroke-width:1px;"/>
        <path d="M191.963,151.003L192.138,151.034L192.233,151.082L192.262,151.102L192.29,151.125L192.316,151.149L192.418,151.295L192.463,151.503L192.418,151.71L192.316,151.856L192.138,151.971L191.963,152.003L191.755,151.958L191.664,151.903L191.636,151.881L191.609,151.856L191.508,151.71L191.463,151.503L191.508,151.295L191.609,151.149L191.755,151.048L191.963,151.003Z" style="fill:none;fill-rule:nonzero;stroke:rgb(0,0,255);stroke-width:1px;"/>
        <path d="M176.447,158.349L176.654,158.394L176.8,158.496L176.902,158.642L176.935,158.742L176.942,158.778L176.945,158.813L176.947,158.849L176.902,159.057L176.8,159.203L176.621,159.318L176.447,159.349L176.272,159.318L176.093,159.203L175.992,159.057L175.947,158.849L175.948,158.813L175.952,158.778L175.958,158.742L175.992,158.642L176.093,158.496L176.239,158.394L176.447,158.349Z" style="fill:none;fill-rule:nonzero;stroke:rgb(0,0,255);stroke-width:1px;"/>
        <path d="M187.344,156.927L187.518,156.959L187.614,157.006L187.643,157.027L187.671,157.049L187.697,157.074L187.798,157.22L187.844,157.427L187.812,157.602L187.697,157.781L187.551,157.882L187.344,157.927L187.136,157.882L186.99,157.781L186.875,157.602L186.849,157.499L186.845,157.463L186.844,157.427L186.889,157.22L186.99,157.074L187.169,156.959L187.344,156.927Z" style="fill:none;fill-rule:nonzero;stroke:rgb(0,0,255);stroke-width:1px;"/>
        <path d="M181.895,146.737L182.103,146.782L182.249,146.883L182.35,147.029L182.395,147.237L182.35,147.445L182.249,147.591L182.103,147.692L182.002,147.725L181.931,147.736L181.895,147.737L181.859,147.736L181.788,147.725L181.688,147.692L181.542,147.591L181.427,147.412L181.395,147.237L181.427,147.062L181.542,146.883L181.688,146.782L181.895,146.737Z" style="fill:none;fill-rule:nonzero;stroke:rgb(0,0,255);stroke-width:1px;"/>
    </g>
</svg>
