<?xml version="1.0" encoding="UTF-8" standalone="no"?>
<!DOCTYPE svg PUBLIC "-//W3C//DTD SVG 1.1//EN" "http://www.w3.org/Graphics/SVG/1.1/DTD/svg11.dtd">
<svg width="100%" height="100%" viewBox="0 0 360 360" version="1.1" xmlns="http://www.w3.org/2000/svg" xmlns:xlink="http://www.w3.org/1999/xlink" xml:space="preserve" xmlns:serif="http://www.serif.com/" style="fill-rule:evenodd;clip-rule:evenodd;">
    <g id="_1" serif:id="1" transform="matrix(4.67741,0,0,4.67741,-661.934,-661.284)">
        <path d="M196.668,187.969L189.842,217.073" style="fill:none;fill-rule:nonzero;stroke:rgb(0,0,255);stroke-width:1px;"/>
        <path d="M180.346,194.403L203.296,165.696" style="fill:none;fill-rule:nonzero;stroke:rgb(0,0,255);stroke-width:1px;"/>
        <path d="M183.215,166.289L196.668,187.969" style="fill:none;fill-rule:nonzero;stroke:rgb(0,0,255);stroke-width:1px;"/>
        <path d="M174.609,168.368L180.346,194.403" style="fill:none;fill-rule:nonzero;stroke:rgb(0,0,255);stroke-width:1px;"/>
        <path d="M174.609,168.368L183.215,166.289" style="fill:none;fill-rule:nonzero;stroke:rgb(0,0,255);stroke-width:1px;"/>
        <path d="M170.751,143.323L156.704,142.927" style="fill:none;fill-rule:nonzero;stroke:rgb(0,0,255);stroke-width:1px;"/>
        <path d="M170.355,143.521L203.197,166.388" style="fill:none;fill-rule:nonzero;stroke:rgb(0,0,255);stroke-width:1px;"/>
        <path d="M184.303,147.58L170.751,143.323" style="fill:none;fill-rule:nonzero;stroke:rgb(0,0,255);stroke-width:1px;"/>
        <path d="M189.842,216.573L189.949,216.584L189.984,216.593L190.05,216.618L190.196,216.719L190.311,216.898L190.342,217.073L190.311,217.248L190.196,217.426L190.017,217.541L189.842,217.573L189.668,217.541L189.489,217.426L189.374,217.248L189.342,217.073L189.374,216.898L189.489,216.719L189.635,216.618L189.842,216.573Z" style="fill:none;fill-rule:nonzero;stroke:rgb(0,0,255);stroke-width:1px;"/>
        <path d="M203.296,165.196L203.47,165.227L203.649,165.342L203.75,165.488L203.796,165.696L203.75,165.903L203.649,166.049L203.623,166.074L203.595,166.096L203.565,166.116L203.47,166.164L203.296,166.196L203.121,166.164L203.026,166.116L202.996,166.096L202.968,166.074L202.942,166.049L202.895,165.995L202.875,165.965L202.841,165.903L202.796,165.696L202.841,165.488L202.942,165.342L203.121,165.227L203.296,165.196Z" style="fill:none;fill-rule:nonzero;stroke:rgb(0,0,255);stroke-width:1px;"/>
        <path d="M196.668,187.469L196.843,187.5L197.021,187.615L197.136,187.794L197.168,187.969L197.136,188.144L197.021,188.322L196.843,188.437L196.668,188.469L196.596,188.464L196.561,188.457L196.527,188.449L196.493,188.437L196.314,188.322L196.199,188.144L196.168,187.969L196.199,187.794L196.314,187.615L196.398,187.548L196.429,187.53L196.493,187.5L196.668,187.469Z" style="fill:none;fill-rule:nonzero;stroke:rgb(0,0,255);stroke-width:1px;"/>
        <path d="M180.346,193.903L180.521,193.935L180.616,193.983L180.645,194.003L180.673,194.025L180.7,194.05L180.815,194.229L180.846,194.403L180.815,194.578L180.7,194.757L180.521,194.872L180.346,194.903L180.171,194.872L179.993,194.757L179.878,194.578L179.846,194.403L179.891,194.196L179.993,194.05L180.171,193.935L180.205,193.924L180.239,193.915L180.275,193.909L180.346,193.903Z" style="fill:none;fill-rule:nonzero;stroke:rgb(0,0,255);stroke-width:1px;"/>
        <path d="M183.215,165.789L183.39,165.821L183.568,165.936L183.683,166.115L183.715,166.289L183.67,166.497L183.568,166.643L183.485,166.71L183.454,166.728L183.39,166.758L183.215,166.789L183.04,166.758L182.861,166.643L182.746,166.464L182.735,166.431L182.726,166.396L182.72,166.361L182.715,166.289L182.746,166.115L182.861,165.936L183.04,165.821L183.215,165.789Z" style="fill:none;fill-rule:nonzero;stroke:rgb(0,0,255);stroke-width:1px;"/>
        <path d="M174.609,167.868L174.784,167.9L174.962,168.015L175.077,168.194L175.089,168.227L175.097,168.262L175.104,168.297L175.109,168.368L175.064,168.576L174.962,168.722L174.816,168.823L174.75,168.848L174.716,168.857L174.609,168.868L174.434,168.837L174.255,168.722L174.14,168.543L174.109,168.368L174.14,168.194L174.255,168.015L174.434,167.9L174.609,167.868Z" style="fill:none;fill-rule:nonzero;stroke:rgb(0,0,255);stroke-width:1px;"/>
        <path d="M156.704,142.427L156.912,142.472L157.058,142.574L157.173,142.752L157.204,142.927L157.203,142.963L157.199,142.999L157.173,143.102L157.058,143.281L156.912,143.382L156.704,143.427L156.497,143.382L156.351,143.281L156.236,143.102L156.204,142.927L156.236,142.752L156.351,142.574L156.497,142.472L156.704,142.427Z" style="fill:none;fill-rule:nonzero;stroke:rgb(0,0,255);stroke-width:1px;"/>
        <path d="M203.197,165.888L203.371,165.92L203.55,166.035L203.575,166.061L203.597,166.089L203.617,166.119L203.665,166.214L203.697,166.388L203.665,166.563L203.55,166.742L203.371,166.857L203.197,166.888L203.022,166.857L202.843,166.742L202.728,166.563L202.702,166.46L202.698,166.424L202.697,166.388L202.742,166.181L202.776,166.119L202.796,166.089L202.843,166.035L202.869,166.01L202.897,165.988L202.989,165.934L203.09,165.9L203.125,165.894L203.161,165.89L203.197,165.888Z" style="fill:none;fill-rule:nonzero;stroke:rgb(0,0,255);stroke-width:1px;"/>
        <path d="M170.751,142.823L170.926,142.855L171.105,142.97L171.206,143.116L171.251,143.323L171.24,143.43L171.231,143.464L171.219,143.498L171.206,143.531L171.105,143.677L170.926,143.792L170.823,143.818L170.787,143.822L170.751,143.823L170.576,143.792L170.397,143.677L170.296,143.531L170.251,143.323L170.252,143.287L170.263,143.216L170.296,143.116L170.35,143.024L170.373,142.996L170.397,142.97L170.576,142.855L170.751,142.823Z" style="fill:none;fill-rule:nonzero;stroke:rgb(0,0,255);stroke-width:1px;"/>
        <path d="M170.355,143.021L170.563,143.066L170.709,143.168L170.81,143.314L170.824,143.346L170.835,143.38L170.844,143.414L170.855,143.521L170.824,143.696L170.776,143.791L170.756,143.82L170.733,143.848L170.709,143.875L170.53,143.99L170.355,144.021L170.181,143.99L170.002,143.875L169.887,143.696L169.855,143.521L169.887,143.346L169.9,143.314L169.916,143.282L169.934,143.251L170.002,143.168L170.181,143.053L170.284,143.026L170.319,143.022L170.355,143.021Z" style="fill:none;fill-rule:nonzero;stroke:rgb(0,0,255);stroke-width:1px;"/>
        <path d="M184.303,147.08L184.511,147.125L184.657,147.226L184.758,147.372L184.803,147.58L184.758,147.787L184.657,147.933L184.511,148.035L184.303,148.08L184.095,148.035L183.949,147.933L183.848,147.787L183.803,147.58L183.815,147.473L183.823,147.439L183.835,147.405L183.848,147.372L183.949,147.226L184.095,147.125L184.303,147.08Z" style="fill:none;fill-rule:nonzero;stroke:rgb(0,0,255);stroke-width:1px;"/>
        <path d="M195.382,155.89L195.557,155.922L195.736,156.037L195.85,156.215L195.882,156.39L195.85,156.565L195.736,156.744L195.557,156.859L195.382,156.89L195.207,156.859L195.028,156.744L194.914,156.565L194.882,156.39L194.914,156.215L195.028,156.037L195.174,155.935L195.382,155.89Z" style="fill:none;fill-rule:nonzero;stroke:rgb(0,0,255);stroke-width:1px;"/>
    </g>
</svg>
