<?xml version="1.0" encoding="UTF-8" standalone="no"?>
<!DOCTYPE svg PUBLIC "-//W3C//DTD SVG 1.1//EN" "http://www.w3.org/Graphics/SVG/1.1/DTD/svg11.dtd">
<svg width="100%" height="100%" viewBox="0 0 360 360" version="1.1" xmlns="http://www.w3.org/2000/svg" xmlns:xlink="http://www.w3.org/1999/xlink" xml:space="preserve" xmlns:serif="http://www.serif.com/" style="fill-rule:evenodd;clip-rule:evenodd;">
    <g id="_1" serif:id="1" transform="matrix(7.03402,0,0,7.03402,-1086.12,-1086.89)">
        <path d="M172.967,175.67L169.166,162.022" style="fill:none;fill-rule:nonzero;stroke:rgb(0,0,255);stroke-width:1px;"/>
        <path d="M167.288,155.986L169.166,162.022" style="fill:none;fill-rule:nonzero;stroke:rgb(0,0,255);stroke-width:1px;"/>
        <path d="M179.607,189.842L181.529,204.014" style="fill:none;fill-rule:nonzero;stroke:rgb(0,0,255);stroke-width:1px;"/>
        <path d="M192.45,169.109L190.877,159.66" style="fill:none;fill-rule:nonzero;stroke:rgb(0,0,255);stroke-width:1px;"/>
        <path d="M178.296,178.032L179.607,189.842" style="fill:none;fill-rule:nonzero;stroke:rgb(0,0,255);stroke-width:1px;"/>
        <path d="M167.637,173.308L192.45,169.109" style="fill:none;fill-rule:nonzero;stroke:rgb(0,0,255);stroke-width:1px;"/>
        <path d="M167.637,173.308L178.296,178.032" style="fill:none;fill-rule:nonzero;stroke:rgb(0,0,255);stroke-width:1px;"/>
        <path d="M192.712,168.934L190.877,159.66" style="fill:none;fill-rule:nonzero;stroke:rgb(0,0,255);stroke-width:1px;"/>
        <path d="M171.045,162.197L184.849,156.774" style="fill:none;fill-rule:nonzero;stroke:rgb(0,0,255);stroke-width:1px;"/>
        <path d="M169.035,161.585L192.712,168.934" style="fill:none;fill-rule:nonzero;stroke:rgb(0,0,255);stroke-width:1px;"/>
        <path d="M169.297,162.46L171.045,162.197" style="fill:none;fill-rule:nonzero;stroke:rgb(0,0,255);stroke-width:1px;"/>
        <path d="M169.297,162.46L169.035,161.585" style="fill:none;fill-rule:nonzero;stroke:rgb(0,0,255);stroke-width:1px;"/>
        <path d="M181.529,203.514L181.737,203.559L181.882,203.66L181.997,203.839L182.029,204.014L181.997,204.189L181.882,204.367L181.704,204.482L181.529,204.514L181.354,204.482L181.175,204.367L181.06,204.189L181.029,204.014L181.06,203.839L181.175,203.66L181.321,203.559L181.422,203.525L181.457,203.519L181.493,203.515L181.529,203.514Z" style="fill:none;fill-rule:nonzero;stroke:rgb(0,0,255);stroke-width:1px;"/>
        <path d="M190.877,159.16L191.085,159.206L191.231,159.307L191.346,159.486L191.377,159.66L191.346,159.835L191.231,160.014L191.085,160.115L190.984,160.149L190.949,160.155L190.913,160.159L190.877,160.16L190.67,160.115L190.524,160.014L190.409,159.835L190.377,159.66L190.409,159.486L190.524,159.307L190.67,159.206L190.877,159.16Z" style="fill:none;fill-rule:nonzero;stroke:rgb(0,0,255);stroke-width:1px;"/>
        <path d="M179.607,189.342L179.782,189.373L179.96,189.488L180.062,189.634L180.107,189.842L180.062,190.049L179.96,190.195L179.814,190.297L179.714,190.33L179.678,190.337L179.643,190.34L179.607,190.342L179.432,190.31L179.253,190.195L179.152,190.049L179.107,189.842L179.152,189.634L179.253,189.488L179.432,189.373L179.535,189.347L179.571,189.343L179.607,189.342Z" style="fill:none;fill-rule:nonzero;stroke:rgb(0,0,255);stroke-width:1px;"/>
        <path d="M192.45,168.609L192.557,168.62L192.591,168.629L192.625,168.64L192.658,168.654L192.803,168.755L192.918,168.934L192.95,169.109L192.918,169.283L192.871,169.378L192.85,169.408L192.828,169.436L192.803,169.462L192.658,169.563L192.45,169.609L192.242,169.563L192.096,169.462L191.995,169.316L191.961,169.215L191.955,169.18L191.951,169.145L191.95,169.109L191.995,168.901L192.096,168.755L192.123,168.73L192.151,168.708L192.242,168.654L192.309,168.629L192.343,168.62L192.378,168.614L192.414,168.61L192.45,168.609Z" style="fill:none;fill-rule:nonzero;stroke:rgb(0,0,255);stroke-width:1px;"/>
        <path d="M178.296,177.532L178.471,177.563L178.65,177.678L178.765,177.857L178.796,178.032L178.765,178.206L178.65,178.385L178.504,178.487L178.403,178.52L178.368,178.527L178.332,178.53L178.296,178.532L178.089,178.487L177.943,178.385L177.828,178.206L177.796,178.032L177.828,177.857L177.841,177.824L177.857,177.792L177.875,177.762L177.943,177.678L178.121,177.563L178.296,177.532Z" style="fill:none;fill-rule:nonzero;stroke:rgb(0,0,255);stroke-width:1px;"/>
        <path d="M167.637,172.808L167.812,172.839L167.991,172.954L168.092,173.1L168.126,173.201L168.132,173.236L168.136,173.272L168.137,173.308L168.126,173.414L168.117,173.449L168.106,173.482L168.092,173.515L167.991,173.661L167.812,173.776L167.637,173.808L167.463,173.776L167.284,173.661L167.183,173.515L167.137,173.308L167.183,173.1L167.284,172.954L167.463,172.839L167.637,172.808Z" style="fill:none;fill-rule:nonzero;stroke:rgb(0,0,255);stroke-width:1px;"/>
        <path d="M190.877,159.16L191.085,159.206L191.231,159.307L191.346,159.486L191.377,159.66L191.346,159.835L191.231,160.014L191.085,160.115L190.984,160.149L190.949,160.155L190.913,160.159L190.877,160.16L190.67,160.115L190.524,160.014L190.409,159.835L190.377,159.66L190.409,159.486L190.524,159.307L190.67,159.206L190.877,159.16Z" style="fill:none;fill-rule:nonzero;stroke:rgb(0,0,255);stroke-width:1px;"/>
        <path d="M184.849,156.274L185.024,156.305L185.202,156.42L185.304,156.566L185.349,156.774L185.304,156.981L185.202,157.127L185.057,157.228L184.849,157.274L184.641,157.228L184.495,157.127L184.428,157.044L184.41,157.013L184.394,156.981L184.38,156.948L184.349,156.774L184.38,156.599L184.495,156.42L184.674,156.305L184.849,156.274Z" style="fill:none;fill-rule:nonzero;stroke:rgb(0,0,255);stroke-width:1px;"/>
        <path d="M192.712,168.434L192.92,168.479L193.066,168.58L193.18,168.759L193.212,168.934L193.18,169.108L193.066,169.287L192.92,169.388L192.853,169.413L192.819,169.422L192.712,169.434L192.504,169.388L192.358,169.287L192.291,169.204L192.273,169.173L192.257,169.141L192.244,169.108L192.212,168.934L192.217,168.862L192.224,168.827L192.232,168.792L192.244,168.759L192.291,168.664L192.311,168.634L192.334,168.606L192.358,168.58L192.385,168.555L192.413,168.533L192.504,168.479L192.605,168.445L192.64,168.439L192.676,168.435L192.712,168.434Z" style="fill:none;fill-rule:nonzero;stroke:rgb(0,0,255);stroke-width:1px;"/>
        <path d="M171.045,161.697L171.22,161.729L171.398,161.844L171.5,161.99L171.513,162.023L171.524,162.056L171.533,162.091L171.545,162.197L171.533,162.304L171.524,162.339L171.513,162.372L171.5,162.405L171.398,162.551L171.22,162.666L171.045,162.697L170.87,162.666L170.691,162.551L170.576,162.372L170.556,162.304L170.55,162.269L170.545,162.197L170.55,162.126L170.556,162.091L170.565,162.056L170.576,162.023L170.691,161.844L170.87,161.729L171.045,161.697Z" style="fill:none;fill-rule:nonzero;stroke:rgb(0,0,255);stroke-width:1px;"/>
        <path d="M169.035,161.085L169.243,161.13L169.389,161.232L169.49,161.377L169.535,161.585L169.524,161.692L169.515,161.726L169.504,161.76L169.49,161.793L169.389,161.939L169.363,161.963L169.335,161.986L169.305,162.006L169.21,162.054L169.177,162.065L169.142,162.074L169.107,162.08L169.035,162.085L168.999,162.084L168.964,162.08L168.861,162.054L168.682,161.939L168.58,161.793L168.535,161.585L168.58,161.377L168.682,161.232L168.828,161.13L168.861,161.117L168.894,161.105L168.929,161.097L169.035,161.085Z" style="fill:none;fill-rule:nonzero;stroke:rgb(0,0,255);stroke-width:1px;"/>
        <path d="M169.297,161.96L169.333,161.961L169.369,161.965L169.404,161.971L169.505,162.005L169.651,162.106L169.752,162.252L169.786,162.353L169.792,162.388L169.796,162.424L169.797,162.46L169.766,162.635L169.651,162.813L169.505,162.915L169.439,162.94L169.404,162.948L169.297,162.96L169.09,162.915L168.944,162.813L168.829,162.635L168.797,162.46L168.829,162.285L168.944,162.106L168.97,162.082L168.998,162.059L169.09,162.005L169.123,161.991L169.156,161.98L169.191,161.971L169.297,161.96Z" style="fill:none;fill-rule:nonzero;stroke:rgb(0,0,255);stroke-width:1px;"/>
        <path d="M167.288,155.486L167.496,155.531L167.642,155.633L167.743,155.779L167.788,155.986L167.743,156.194L167.642,156.34L167.496,156.441L167.463,156.455L167.429,156.466L167.395,156.475L167.288,156.486L167.08,156.441L166.934,156.34L166.82,156.161L166.788,155.986L166.82,155.811L166.934,155.633L167.08,155.531L167.288,155.486Z" style="fill:none;fill-rule:nonzero;stroke:rgb(0,0,255);stroke-width:1px;"/>
    </g>
</svg>
