<?xml version="1.0" encoding="UTF-8" standalone="no"?>
<!DOCTYPE svg PUBLIC "-//W3C//DTD SVG 1.1//EN" "http://www.w3.org/Graphics/SVG/1.1/DTD/svg11.dtd">
<svg width="100%" height="100%" viewBox="0 0 360 360" version="1.1" xmlns="http://www.w3.org/2000/svg" xmlns:xlink="http://www.w3.org/1999/xlink" xml:space="preserve" xmlns:serif="http://www.serif.com/" style="fill-rule:evenodd;clip-rule:evenodd;">
    <g id="_1" serif:id="1" transform="matrix(3.64482,0,0,3.64482,-476.18,-476.168)">
        <path d="M178.202,180.399L167.682,158.362" style="fill:none;fill-rule:nonzero;stroke:rgb(0,0,255);stroke-width:1px;"/>
        <path d="M161.889,153.369L167.682,158.362" style="fill:none;fill-rule:nonzero;stroke:rgb(0,0,255);stroke-width:1px;"/>
        <path d="M178.801,199.707L193.317,218.881" style="fill:none;fill-rule:nonzero;stroke:rgb(0,0,255);stroke-width:1px;"/>
        <path d="M202.106,176.005L223.413,171.079" style="fill:none;fill-rule:nonzero;stroke:rgb(0,0,255);stroke-width:1px;"/>
        <path d="M174.407,183.462L178.801,199.707" style="fill:none;fill-rule:nonzero;stroke:rgb(0,0,255);stroke-width:1px;"/>
        <path d="M181.998,177.337L202.106,176.005" style="fill:none;fill-rule:nonzero;stroke:rgb(0,0,255);stroke-width:1px;"/>
        <path d="M181.998,177.337L174.407,183.462" style="fill:none;fill-rule:nonzero;stroke:rgb(0,0,255);stroke-width:1px;"/>
        <path d="M148.972,161.092L136.587,159.361" style="fill:none;fill-rule:nonzero;stroke:rgb(0,0,255);stroke-width:1px;"/>
        <path d="M187.591,149.374L198.644,141.119" style="fill:none;fill-rule:nonzero;stroke:rgb(0,0,255);stroke-width:1px;"/>
        <path d="M160.424,160.16L148.972,161.092" style="fill:none;fill-rule:nonzero;stroke:rgb(0,0,255);stroke-width:1px;"/>
        <path d="M174.94,156.565L187.591,149.374" style="fill:none;fill-rule:nonzero;stroke:rgb(0,0,255);stroke-width:1px;"/>
        <path d="M174.94,156.565L160.424,160.16" style="fill:none;fill-rule:nonzero;stroke:rgb(0,0,255);stroke-width:1px;"/>
        <path d="M193.317,218.381L193.524,218.426L193.67,218.528L193.772,218.674L193.817,218.881L193.785,219.056L193.67,219.235L193.492,219.35L193.317,219.381L193.142,219.35L192.963,219.235L192.848,219.056L192.817,218.881L192.848,218.706L192.963,218.528L192.99,218.503L193.018,218.481L193.109,218.426L193.317,218.381Z" style="fill:none;fill-rule:nonzero;stroke:rgb(0,0,255);stroke-width:1px;"/>
        <path d="M223.413,170.579L223.62,170.624L223.766,170.725L223.881,170.904L223.913,171.079L223.881,171.253L223.766,171.432L223.588,171.547L223.413,171.579L223.238,171.547L223.059,171.432L222.958,171.286L222.933,171.22L222.924,171.185L222.913,171.079L222.958,170.871L223.059,170.725L223.205,170.624L223.413,170.579Z" style="fill:none;fill-rule:nonzero;stroke:rgb(0,0,255);stroke-width:1px;"/>
        <path d="M178.801,199.207L178.976,199.238L179.155,199.353L179.27,199.532L179.301,199.707L179.27,199.882L179.155,200.06L179.129,200.085L179.101,200.107L179.071,200.128L178.976,200.175L178.801,200.207L178.627,200.175L178.448,200.06L178.333,199.882L178.301,199.707L178.333,199.532L178.448,199.353L178.627,199.238L178.66,199.227L178.695,199.218L178.73,199.212L178.801,199.207Z" style="fill:none;fill-rule:nonzero;stroke:rgb(0,0,255);stroke-width:1px;"/>
        <path d="M202.106,175.505L202.281,175.537L202.459,175.652L202.561,175.798L202.586,175.864L202.594,175.899L202.606,176.005L202.561,176.213L202.459,176.359L202.281,176.474L202.106,176.505L201.931,176.474L201.752,176.359L201.637,176.18L201.611,176.077L201.607,176.041L201.606,176.005L201.637,175.831L201.752,175.652L201.931,175.537L202.106,175.505Z" style="fill:none;fill-rule:nonzero;stroke:rgb(0,0,255);stroke-width:1px;"/>
        <path d="M174.407,182.962L174.615,183.007L174.761,183.108L174.785,183.135L174.808,183.163L174.862,183.254L174.907,183.462L174.875,183.637L174.761,183.816L174.582,183.93L174.548,183.942L174.514,183.951L174.479,183.957L174.407,183.962L174.232,183.93L174.053,183.816L173.939,183.637L173.907,183.462L173.939,183.287L174.053,183.108L174.199,183.007L174.407,182.962Z" style="fill:none;fill-rule:nonzero;stroke:rgb(0,0,255);stroke-width:1px;"/>
        <path d="M181.998,176.837L182.205,176.882L182.351,176.983L182.452,177.129L182.486,177.23L182.496,177.301L182.498,177.337L182.466,177.512L182.351,177.69L182.172,177.805L181.998,177.837L181.823,177.805L181.644,177.69L181.619,177.664L181.597,177.636L181.577,177.607L181.529,177.512L181.498,177.337L181.529,177.162L181.644,176.983L181.79,176.882L181.998,176.837Z" style="fill:none;fill-rule:nonzero;stroke:rgb(0,0,255);stroke-width:1px;"/>
        <path d="M136.587,158.861L136.762,158.893L136.941,159.007L137.056,159.186L137.087,159.361L137.086,159.397L137.082,159.433L137.056,159.536L136.941,159.715L136.762,159.829L136.587,159.861L136.38,159.816L136.234,159.715L136.132,159.569L136.087,159.361L136.119,159.186L136.234,159.007L136.412,158.893L136.587,158.861Z" style="fill:none;fill-rule:nonzero;stroke:rgb(0,0,255);stroke-width:1px;"/>
        <path d="M198.644,140.619L198.818,140.65L198.997,140.765L199.112,140.944L199.144,141.119L199.112,141.294L198.997,141.472L198.851,141.574L198.644,141.619L198.436,141.574L198.29,141.472L198.265,141.446L198.243,141.418L198.223,141.389L198.175,141.294L198.144,141.119L198.175,140.944L198.29,140.765L198.469,140.65L198.644,140.619Z" style="fill:none;fill-rule:nonzero;stroke:rgb(0,0,255);stroke-width:1px;"/>
        <path d="M148.972,160.592L149.147,160.624L149.325,160.738L149.44,160.917L149.467,161.02L149.471,161.056L149.472,161.092L149.44,161.267L149.325,161.446L149.147,161.56L148.972,161.592L148.797,161.56L148.618,161.446L148.517,161.3L148.472,161.092L148.473,161.056L148.477,161.02L148.483,160.985L148.517,160.884L148.618,160.738L148.797,160.624L148.972,160.592Z" style="fill:none;fill-rule:nonzero;stroke:rgb(0,0,255);stroke-width:1px;"/>
        <path d="M187.591,148.874L187.765,148.906L187.944,149.021L187.969,149.047L187.991,149.075L188.011,149.104L188.059,149.2L188.091,149.374L188.059,149.549L187.944,149.728L187.765,149.843L187.591,149.874L187.416,149.843L187.237,149.728L187.19,149.674L187.17,149.644L187.152,149.614L187.136,149.582L187.091,149.374L187.136,149.167L187.237,149.021L187.416,148.906L187.591,148.874Z" style="fill:none;fill-rule:nonzero;stroke:rgb(0,0,255);stroke-width:1px;"/>
        <path d="M160.424,159.66L160.632,159.705L160.778,159.806L160.893,159.985L160.904,160.019L160.913,160.053L160.919,160.088L160.924,160.16L160.893,160.335L160.778,160.513L160.599,160.628L160.424,160.66L160.249,160.628L160.071,160.513L159.956,160.335L159.929,160.232L159.926,160.196L159.924,160.16L159.956,159.985L160.071,159.806L160.217,159.705L160.424,159.66Z" style="fill:none;fill-rule:nonzero;stroke:rgb(0,0,255);stroke-width:1px;"/>
        <path d="M174.94,156.065L175.147,156.11L175.293,156.211L175.36,156.295L175.379,156.325L175.408,156.39L175.44,156.565L175.408,156.74L175.293,156.918L175.114,157.033L174.94,157.065L174.765,157.033L174.586,156.918L174.471,156.74L174.46,156.706L174.451,156.671L174.445,156.636L174.44,156.565L174.471,156.39L174.586,156.211L174.732,156.11L174.94,156.065Z" style="fill:none;fill-rule:nonzero;stroke:rgb(0,0,255);stroke-width:1px;"/>
        <path d="M161.889,152.869L162.064,152.901L162.243,153.015L162.344,153.161L162.389,153.369L162.344,153.577L162.29,153.668L162.267,153.696L162.243,153.723L162.097,153.824L161.889,153.869L161.682,153.824L161.536,153.723L161.421,153.544L161.389,153.369L161.421,153.194L161.536,153.015L161.714,152.901L161.889,152.869Z" style="fill:none;fill-rule:nonzero;stroke:rgb(0,0,255);stroke-width:1px;"/>
    </g>
</svg>
