<?xml version="1.0" encoding="UTF-8" standalone="no"?>
<!DOCTYPE svg PUBLIC "-//W3C//DTD SVG 1.1//EN" "http://www.w3.org/Graphics/SVG/1.1/DTD/svg11.dtd">
<svg width="100%" height="100%" viewBox="0 0 360 360" version="1.1" xmlns="http://www.w3.org/2000/svg" xmlns:xlink="http://www.w3.org/1999/xlink" xml:space="preserve" xmlns:serif="http://www.serif.com/" style="fill-rule:evenodd;clip-rule:evenodd;">
    <g id="_1" serif:id="1" transform="matrix(4.27042,0,0,4.27042,-588.676,-589.508)">
        <g transform="matrix(1.00536,0,0,1.00536,-0.964069,-0.744624)">
            <path d="M188.397,184.03L173.703,173.813" style="fill:none;fill-rule:nonzero;stroke:rgb(0,0,255);stroke-width:1px;"/>
        </g>
        <g transform="matrix(1.00536,0,0,1.00536,-0.964069,-0.744624)">
            <path d="M168.596,181.192L173.703,173.813" style="fill:none;fill-rule:nonzero;stroke:rgb(0,0,255);stroke-width:1px;"/>
        </g>
        <g transform="matrix(1.00536,0,0,1.00536,-0.964069,-0.744624)">
            <path d="M165.76,195.383L195.942,184.938" style="fill:none;fill-rule:nonzero;stroke:rgb(0,0,255);stroke-width:1px;"/>
        </g>
        <g transform="matrix(1.00536,0,0,1.00536,-0.964069,-0.744624)">
            <path d="M183.347,202.535L186.978,220.472" style="fill:none;fill-rule:nonzero;stroke:rgb(0,0,255);stroke-width:1px;"/>
        </g>
        <g transform="matrix(1.00536,0,0,1.00536,-0.964069,-0.744624)">
            <path d="M183.461,185.279L165.76,195.383" style="fill:none;fill-rule:nonzero;stroke:rgb(0,0,255);stroke-width:1px;"/>
        </g>
        <g transform="matrix(1.00536,0,0,1.00536,-0.964069,-0.744624)">
            <path d="M193.332,182.781L183.347,202.535" style="fill:none;fill-rule:nonzero;stroke:rgb(0,0,255);stroke-width:1px;"/>
        </g>
        <g transform="matrix(1.00536,0,0,1.00536,-0.964069,-0.744624)">
            <path d="M193.332,182.781L183.461,185.279" style="fill:none;fill-rule:nonzero;stroke:rgb(0,0,255);stroke-width:1px;"/>
        </g>
        <g transform="matrix(1.00536,0,0,1.00536,-0.964069,-0.744624)">
            <path d="M169.845,184.825L169.277,197.313" style="fill:none;fill-rule:nonzero;stroke:rgb(0,0,255);stroke-width:1px;"/>
        </g>
        <g transform="matrix(1.00536,0,0,1.00536,-0.964069,-0.744624)">
            <path d="M173.022,152.243L164.058,139.528" style="fill:none;fill-rule:nonzero;stroke:rgb(0,0,255);stroke-width:1px;"/>
        </g>
        <g transform="matrix(1.00536,0,0,1.00536,-0.964069,-0.744624)">
            <path d="M170.752,181.533L169.845,184.825" style="fill:none;fill-rule:nonzero;stroke:rgb(0,0,255);stroke-width:1px;"/>
        </g>
        <g transform="matrix(1.00536,0,0,1.00536,-0.964069,-0.744624)">
            <path d="M176.653,166.093L173.022,152.243" style="fill:none;fill-rule:nonzero;stroke:rgb(0,0,255);stroke-width:1px;"/>
        </g>
        <g transform="matrix(1.00536,0,0,1.00536,-0.964069,-0.744624)">
            <path d="M176.653,166.093L170.752,181.533" style="fill:none;fill-rule:nonzero;stroke:rgb(0,0,255);stroke-width:1px;"/>
        </g>
        <g transform="matrix(1.00536,0,0,1.00536,-0.964069,-0.744624)">
            <path d="M195.942,184.438L196.15,184.484L196.296,184.585L196.397,184.731L196.442,184.938L196.411,185.113L196.296,185.292L196.15,185.393L195.942,185.438L195.767,185.407L195.589,185.292L195.474,185.113L195.463,185.08L195.454,185.045L195.447,185.01L195.442,184.938L195.487,184.731L195.589,184.585L195.767,184.47L195.942,184.438Z" style="fill:none;fill-rule:nonzero;stroke:rgb(0,0,255);stroke-width:1px;"/>
        </g>
        <g transform="matrix(1.00536,0,0,1.00536,-0.964069,-0.744624)">
            <path d="M186.978,219.972L187.186,220.018L187.332,220.119L187.433,220.265L187.478,220.472L187.447,220.647L187.332,220.826L187.186,220.927L186.978,220.972L186.803,220.941L186.625,220.826L186.51,220.647L186.478,220.472L186.523,220.265L186.625,220.119L186.803,220.004L186.872,219.984L186.907,219.978L186.978,219.972Z" style="fill:none;fill-rule:nonzero;stroke:rgb(0,0,255);stroke-width:1px;"/>
        </g>
        <g transform="matrix(1.00536,0,0,1.00536,-0.964069,-0.744624)">
            <path d="M165.76,194.883L165.967,194.928L166.113,195.029L166.16,195.084L166.181,195.113L166.199,195.144L166.215,195.175L166.228,195.208L166.239,195.242L166.248,195.276L166.26,195.383L166.228,195.558L166.113,195.736L165.967,195.838L165.76,195.883L165.585,195.851L165.406,195.736L165.291,195.558L165.26,195.383L165.305,195.175L165.406,195.029L165.585,194.914L165.76,194.883Z" style="fill:none;fill-rule:nonzero;stroke:rgb(0,0,255);stroke-width:1px;"/>
        </g>
        <g transform="matrix(1.00536,0,0,1.00536,-0.964069,-0.744624)">
            <path d="M183.347,202.035L183.555,202.08L183.587,202.096L183.617,202.114L183.647,202.135L183.701,202.182L183.816,202.36L183.847,202.535L183.802,202.743L183.701,202.889L183.555,202.99L183.454,203.024L183.419,203.03L183.383,203.034L183.347,203.035L183.14,202.99L182.994,202.889L182.892,202.743L182.847,202.535L182.879,202.36L182.994,202.182L183.172,202.067L183.347,202.035Z" style="fill:none;fill-rule:nonzero;stroke:rgb(0,0,255);stroke-width:1px;"/>
        </g>
        <g transform="matrix(1.00536,0,0,1.00536,-0.964069,-0.744624)">
            <path d="M183.461,184.779L183.668,184.824L183.814,184.925L183.929,185.104L183.94,185.138L183.949,185.172L183.956,185.207L183.961,185.279L183.916,185.487L183.814,185.633L183.668,185.734L183.461,185.779L183.286,185.747L183.107,185.633L183.06,185.578L183.04,185.549L183.022,185.518L183.006,185.487L182.961,185.279L182.992,185.104L183.107,184.925L183.286,184.811L183.461,184.779Z" style="fill:none;fill-rule:nonzero;stroke:rgb(0,0,255);stroke-width:1px;"/>
        </g>
        <g transform="matrix(1.00536,0,0,1.00536,-0.964069,-0.744624)">
            <path d="M193.332,182.281L193.507,182.313L193.686,182.428L193.787,182.574L193.832,182.781L193.801,182.956L193.686,183.135L193.507,183.25L193.332,183.281L193.158,183.25L193.125,183.236L193.093,183.22L193.063,183.202L192.979,183.135L192.864,182.956L192.853,182.923L192.844,182.888L192.838,182.853L192.832,182.781L192.878,182.574L192.979,182.428L193.158,182.313L193.332,182.281Z" style="fill:none;fill-rule:nonzero;stroke:rgb(0,0,255);stroke-width:1px;"/>
        </g>
        <g transform="matrix(1.00536,0,0,1.00536,-0.964069,-0.744624)">
            <path d="M169.277,196.813L169.313,196.814L169.384,196.824L169.485,196.858L169.631,196.959L169.746,197.138L169.777,197.313L169.732,197.52L169.631,197.666L169.485,197.768L169.277,197.813L169.07,197.768L168.924,197.666L168.822,197.52L168.777,197.313L168.809,197.138L168.924,196.959L169.102,196.844L169.277,196.813Z" style="fill:none;fill-rule:nonzero;stroke:rgb(0,0,255);stroke-width:1px;"/>
        </g>
        <g transform="matrix(1.00536,0,0,1.00536,-0.964069,-0.744624)">
            <path d="M164.058,139.028L164.265,139.073L164.411,139.174L164.526,139.353L164.558,139.528L164.513,139.735L164.411,139.881L164.357,139.928L164.328,139.948L164.265,139.982L164.058,140.028L163.883,139.996L163.704,139.881L163.603,139.735L163.558,139.528L163.589,139.353L163.704,139.174L163.883,139.059L164.058,139.028Z" style="fill:none;fill-rule:nonzero;stroke:rgb(0,0,255);stroke-width:1px;"/>
        </g>
        <g transform="matrix(1.00536,0,0,1.00536,-0.964069,-0.744624)">
            <path d="M169.845,184.325L169.916,184.33L169.951,184.336L169.986,184.345L170.019,184.356L170.198,184.471L170.313,184.65L170.345,184.825L170.313,185L170.198,185.178L170.019,185.293L169.845,185.325L169.809,185.324L169.738,185.313L169.637,185.28L169.491,185.178L169.39,185.033L169.345,184.825L169.39,184.617L169.491,184.471L169.637,184.37L169.845,184.325Z" style="fill:none;fill-rule:nonzero;stroke:rgb(0,0,255);stroke-width:1px;"/>
        </g>
        <g transform="matrix(1.00536,0,0,1.00536,-0.964069,-0.744624)">
            <path d="M173.022,151.743L173.229,151.788L173.375,151.889L173.49,152.068L173.522,152.243L173.477,152.45L173.375,152.596L173.229,152.698L173.163,152.722L173.128,152.731L173.022,152.743L172.847,152.711L172.668,152.596L172.567,152.45L172.522,152.243L172.553,152.068L172.668,151.889L172.695,151.865L172.722,151.842L172.752,151.822L172.847,151.774L173.022,151.743Z" style="fill:none;fill-rule:nonzero;stroke:rgb(0,0,255);stroke-width:1px;"/>
        </g>
        <g transform="matrix(1.00536,0,0,1.00536,-0.964069,-0.744624)">
            <path d="M170.752,181.033L170.927,181.064L170.96,181.078L170.992,181.094L171.022,181.112L171.106,181.179L171.207,181.325L171.252,181.533L171.221,181.707L171.106,181.886L170.927,182.001L170.752,182.033L170.646,182.021L170.611,182.012L170.545,181.987L170.399,181.886L170.284,181.707L170.252,181.533L170.297,181.325L170.399,181.179L170.545,181.078L170.752,181.033Z" style="fill:none;fill-rule:nonzero;stroke:rgb(0,0,255);stroke-width:1px;"/>
        </g>
        <g transform="matrix(1.00536,0,0,1.00536,-0.964069,-0.744624)">
            <path d="M176.653,165.593L176.828,165.625L177.006,165.739L177.108,165.885L177.153,166.093L177.121,166.268L177.006,166.447L176.828,166.561L176.653,166.593L176.546,166.581L176.512,166.573L176.478,166.561L176.445,166.548L176.299,166.447L176.184,166.268L176.153,166.093L176.198,165.885L176.299,165.739L176.445,165.638L176.512,165.613L176.546,165.604L176.653,165.593Z" style="fill:none;fill-rule:nonzero;stroke:rgb(0,0,255);stroke-width:1px;"/>
        </g>
        <g transform="matrix(1.00536,0,0,1.00536,-0.964069,-0.744624)">
            <path d="M168.596,180.692L168.804,180.737L168.866,180.771L168.896,180.791L168.95,180.838L169.051,180.984L169.096,181.192L169.051,181.4L168.95,181.546L168.804,181.647L168.596,181.692L168.389,181.647L168.243,181.546L168.142,181.4L168.096,181.192L168.142,180.984L168.243,180.838L168.389,180.737L168.596,180.692Z" style="fill:none;fill-rule:nonzero;stroke:rgb(0,0,255);stroke-width:1px;"/>
        </g>
    </g>
</svg>
