<?xml version="1.0" encoding="UTF-8" standalone="no"?>
<!DOCTYPE svg PUBLIC "-//W3C//DTD SVG 1.1//EN" "http://www.w3.org/Graphics/SVG/1.1/DTD/svg11.dtd">
<svg width="100%" height="100%" viewBox="0 0 360 360" version="1.1" xmlns="http://www.w3.org/2000/svg" xmlns:xlink="http://www.w3.org/1999/xlink" xml:space="preserve" xmlns:serif="http://www.serif.com/" style="fill-rule:evenodd;clip-rule:evenodd;">
    <g id="_1" serif:id="1" transform="matrix(4.09681,0,0,4.09681,-557.427,-558.051)">
        <g transform="matrix(0.988177,0,0,0.988177,2.12806,2.07657)">
            <path d="M176.462,177.566L169.828,173.416" style="fill:none;fill-rule:nonzero;stroke:rgb(0,0,255);stroke-width:1px;"/>
        </g>
        <g transform="matrix(0.988177,0,0,0.988177,2.12806,2.07657)">
            <path d="M159.877,157.205L169.828,173.416" style="fill:none;fill-rule:nonzero;stroke:rgb(0,0,255);stroke-width:1px;"/>
        </g>
        <g transform="matrix(0.988177,0,0,0.988177,2.12806,2.07657)">
            <path d="M191.056,168.492L181.106,222.712" style="fill:none;fill-rule:nonzero;stroke:rgb(0,0,255);stroke-width:1px;"/>
        </g>
        <g transform="matrix(0.988177,0,0,0.988177,2.12806,2.07657)">
            <path d="M191.609,167.496L202.002,161.41" style="fill:none;fill-rule:nonzero;stroke:rgb(0,0,255);stroke-width:1px;"/>
        </g>
        <g transform="matrix(0.988177,0,0,0.988177,2.12806,2.07657)">
            <path d="M173.808,183.32L191.056,168.492" style="fill:none;fill-rule:nonzero;stroke:rgb(0,0,255);stroke-width:1px;"/>
        </g>
        <g transform="matrix(0.988177,0,0,0.988177,2.12806,2.07657)">
            <path d="M179.115,171.812L191.609,167.496" style="fill:none;fill-rule:nonzero;stroke:rgb(0,0,255);stroke-width:1px;"/>
        </g>
        <g transform="matrix(0.988177,0,0,0.988177,2.12806,2.07657)">
            <path d="M179.115,171.812L173.808,183.32" style="fill:none;fill-rule:nonzero;stroke:rgb(0,0,255);stroke-width:1px;"/>
        </g>
        <g transform="matrix(0.988177,0,0,0.988177,2.12806,2.07657)">
            <path d="M178.01,204.122L157.998,164.73" style="fill:none;fill-rule:nonzero;stroke:rgb(0,0,255);stroke-width:1px;"/>
        </g>
        <g transform="matrix(0.988177,0,0,0.988177,2.12806,2.07657)">
            <path d="M168.391,148.021L169.718,137.288" style="fill:none;fill-rule:nonzero;stroke:rgb(0,0,255);stroke-width:1px;"/>
        </g>
        <g transform="matrix(0.988177,0,0,0.988177,2.12806,2.07657)">
            <path d="M173.587,187.856L178.01,204.122" style="fill:none;fill-rule:nonzero;stroke:rgb(0,0,255);stroke-width:1px;"/>
        </g>
        <g transform="matrix(0.988177,0,0,0.988177,2.12806,2.07657)">
            <path d="M166.069,158.976L168.391,148.021" style="fill:none;fill-rule:nonzero;stroke:rgb(0,0,255);stroke-width:1px;"/>
        </g>
        <g transform="matrix(0.988177,0,0,0.988177,2.12806,2.07657)">
            <path d="M166.069,158.976L173.587,187.856" style="fill:none;fill-rule:nonzero;stroke:rgb(0,0,255);stroke-width:1px;"/>
        </g>
        <g transform="matrix(0.988177,0,0,0.988177,2.12806,2.07657)">
            <path d="M181.106,222.212L181.177,222.217L181.212,222.224L181.28,222.244L181.459,222.359L181.574,222.537L181.606,222.712L181.561,222.92L181.459,223.066L181.28,223.181L181.106,223.212L180.898,223.167L180.752,223.066L180.651,222.92L180.606,222.712L180.637,222.537L180.752,222.359L180.898,222.257L181.106,222.212Z" style="fill:none;fill-rule:nonzero;stroke:rgb(0,0,255);stroke-width:1px;"/>
        </g>
        <g transform="matrix(0.988177,0,0,0.988177,2.12806,2.07657)">
            <path d="M202.002,160.91L202.21,160.955L202.356,161.057L202.471,161.235L202.502,161.41L202.457,161.618L202.356,161.764L202.21,161.865L202.002,161.91L201.827,161.879L201.649,161.764L201.602,161.71L201.581,161.68L201.563,161.65L201.547,161.618L201.502,161.41L201.534,161.235L201.649,161.057L201.827,160.942L202.002,160.91Z" style="fill:none;fill-rule:nonzero;stroke:rgb(0,0,255);stroke-width:1px;"/>
        </g>
        <g transform="matrix(0.988177,0,0,0.988177,2.12806,2.07657)">
            <path d="M191.056,167.992L191.231,168.024L191.41,168.139L191.525,168.317L191.556,168.492L191.511,168.7L191.41,168.846L191.264,168.947L191.056,168.992L191.02,168.991L190.985,168.987L190.95,168.981L190.849,168.947L190.703,168.846L190.678,168.819L190.656,168.791L190.602,168.7L190.556,168.492L190.588,168.317L190.703,168.139L190.882,168.024L191.056,167.992Z" style="fill:none;fill-rule:nonzero;stroke:rgb(0,0,255);stroke-width:1px;"/>
        </g>
        <g transform="matrix(0.988177,0,0,0.988177,2.12806,2.07657)">
            <path d="M191.609,166.996L191.784,167.028L191.963,167.143L192.01,167.197L192.03,167.226L192.048,167.257L192.064,167.289L192.109,167.496L192.078,167.671L191.963,167.85L191.784,167.965L191.609,167.996L191.402,167.951L191.256,167.85L191.141,167.671L191.13,167.637L191.121,167.603L191.114,167.568L191.109,167.496L191.154,167.289L191.256,167.143L191.402,167.041L191.609,166.996Z" style="fill:none;fill-rule:nonzero;stroke:rgb(0,0,255);stroke-width:1px;"/>
        </g>
        <g transform="matrix(0.988177,0,0,0.988177,2.12806,2.07657)">
            <path d="M173.808,182.82L173.983,182.851L174.016,182.865L174.048,182.881L174.078,182.899L174.162,182.966L174.187,182.992L174.209,183.02L174.229,183.05L174.277,183.145L174.308,183.32L174.263,183.527L174.162,183.673L174.016,183.774L173.808,183.82L173.601,183.774L173.455,183.673L173.354,183.527L173.308,183.32L173.34,183.145L173.455,182.966L173.601,182.865L173.808,182.82Z" style="fill:none;fill-rule:nonzero;stroke:rgb(0,0,255);stroke-width:1px;"/>
        </g>
        <g transform="matrix(0.988177,0,0,0.988177,2.12806,2.07657)">
            <path d="M179.115,171.312L179.323,171.357L179.469,171.458L179.57,171.604L179.584,171.637L179.595,171.671L179.604,171.705L179.615,171.812L179.584,171.987L179.469,172.165L179.29,172.28L179.115,172.312L178.908,172.267L178.876,172.251L178.846,172.233L178.816,172.212L178.762,172.165L178.647,171.987L178.615,171.812L178.661,171.604L178.762,171.458L178.908,171.357L179.115,171.312Z" style="fill:none;fill-rule:nonzero;stroke:rgb(0,0,255);stroke-width:1px;"/>
        </g>
        <g transform="matrix(0.988177,0,0,0.988177,2.12806,2.07657)">
            <path d="M157.998,164.23L158.205,164.275L158.351,164.376L158.453,164.522L158.498,164.73L158.466,164.905L158.351,165.083L158.268,165.151L158.237,165.169L158.205,165.185L158.173,165.198L157.998,165.23L157.79,165.185L157.644,165.083L157.543,164.937L157.498,164.73L157.543,164.522L157.644,164.376L157.79,164.275L157.998,164.23Z" style="fill:none;fill-rule:nonzero;stroke:rgb(0,0,255);stroke-width:1px;"/>
        </g>
        <g transform="matrix(0.988177,0,0,0.988177,2.12806,2.07657)">
            <path d="M169.718,136.788L169.892,136.819L170.071,136.934L170.186,137.113L170.218,137.288L170.172,137.495L170.071,137.641L169.925,137.743L169.718,137.788L169.682,137.787L169.646,137.783L169.611,137.776L169.51,137.743L169.364,137.641L169.263,137.495L169.218,137.288L169.249,137.113L169.364,136.934L169.543,136.819L169.718,136.788Z" style="fill:none;fill-rule:nonzero;stroke:rgb(0,0,255);stroke-width:1px;"/>
        </g>
        <g transform="matrix(0.988177,0,0,0.988177,2.12806,2.07657)">
            <path d="M178.01,203.622L178.217,203.668L178.363,203.769L178.465,203.915L178.51,204.122L178.465,204.33L178.363,204.476L178.217,204.577L178.01,204.622L177.835,204.591L177.656,204.476L177.541,204.297L177.51,204.122L177.555,203.915L177.656,203.769L177.74,203.702L177.77,203.683L177.802,203.668L177.835,203.654L177.869,203.643L177.903,203.634L177.938,203.628L178.01,203.622Z" style="fill:none;fill-rule:nonzero;stroke:rgb(0,0,255);stroke-width:1px;"/>
        </g>
        <g transform="matrix(0.988177,0,0,0.988177,2.12806,2.07657)">
            <path d="M168.391,147.521L168.427,147.523L168.462,147.526L168.497,147.533L168.598,147.566L168.744,147.668L168.846,147.814L168.891,148.021L168.846,148.229L168.744,148.375L168.598,148.476L168.391,148.521L168.319,148.516L168.284,148.51L168.216,148.49L168.037,148.375L167.922,148.196L167.891,148.021L167.936,147.814L168.037,147.668L168.216,147.553L168.391,147.521Z" style="fill:none;fill-rule:nonzero;stroke:rgb(0,0,255);stroke-width:1px;"/>
        </g>
        <g transform="matrix(0.988177,0,0,0.988177,2.12806,2.07657)">
            <path d="M173.587,187.356L173.762,187.388L173.941,187.503L174.042,187.649L174.087,187.856L174.056,188.031L173.941,188.21L173.762,188.325L173.728,188.336L173.694,188.345L173.659,188.351L173.587,188.356L173.412,188.325L173.234,188.21L173.119,188.031L173.087,187.856L173.132,187.649L173.234,187.503L173.412,187.388L173.446,187.377L173.481,187.368L173.516,187.362L173.587,187.356Z" style="fill:none;fill-rule:nonzero;stroke:rgb(0,0,255);stroke-width:1px;"/>
        </g>
        <g transform="matrix(0.988177,0,0,0.988177,2.12806,2.07657)">
            <path d="M166.069,158.476L166.105,158.477L166.141,158.481L166.176,158.487L166.277,158.521L166.422,158.622L166.537,158.801L166.569,158.976L166.524,159.184L166.422,159.329L166.277,159.431L166.21,159.456L166.176,159.464L166.069,159.476L165.894,159.444L165.715,159.329L165.614,159.184L165.569,158.976L165.6,158.801L165.715,158.622L165.894,158.507L166.069,158.476Z" style="fill:none;fill-rule:nonzero;stroke:rgb(0,0,255);stroke-width:1px;"/>
        </g>
        <g transform="matrix(0.988177,0,0,0.988177,2.12806,2.07657)">
            <path d="M159.877,156.705L160.052,156.737L160.231,156.852L160.332,156.998L160.377,157.205L160.346,157.38L160.231,157.559L160.147,157.626L160.117,157.644L160.052,157.674L159.877,157.705L159.67,157.66L159.524,157.559L159.409,157.38L159.377,157.205L159.422,156.998L159.524,156.852L159.67,156.751L159.877,156.705Z" style="fill:none;fill-rule:nonzero;stroke:rgb(0,0,255);stroke-width:1px;"/>
        </g>
    </g>
</svg>
