<?xml version="1.0" encoding="UTF-8" standalone="no"?>
<!DOCTYPE svg PUBLIC "-//W3C//DTD SVG 1.1//EN" "http://www.w3.org/Graphics/SVG/1.1/DTD/svg11.dtd">
<svg width="100%" height="100%" viewBox="0 0 360 360" version="1.1" xmlns="http://www.w3.org/2000/svg" xmlns:xlink="http://www.w3.org/1999/xlink" xml:space="preserve" xmlns:serif="http://www.serif.com/" style="fill-rule:evenodd;clip-rule:evenodd;">
    <g id="_1" serif:id="1" transform="matrix(8.13051,0,0,8.13051,-1283.49,-1284.11)">
        <g transform="matrix(0.988891,0,0,0.988891,1.99968,2.00963)">
            <path d="M189.831,185.399L179.052,180.85" style="fill:none;fill-rule:nonzero;stroke:rgb(0,0,255);stroke-width:1px;"/>
        </g>
        <g transform="matrix(0.988891,0,0,0.988891,1.99968,2.00963)">
            <path d="M172.165,180.55L179.052,180.85" style="fill:none;fill-rule:nonzero;stroke:rgb(0,0,255);stroke-width:1px;"/>
        </g>
        <g transform="matrix(0.988891,0,0,0.988891,1.99968,2.00963)">
            <path d="M168.073,188.248L166.077,200.246" style="fill:none;fill-rule:nonzero;stroke:rgb(0,0,255);stroke-width:1px;"/>
        </g>
        <g transform="matrix(0.988891,0,0,0.988891,1.99968,2.00963)">
            <path d="M182.246,188.948L188.433,200.946" style="fill:none;fill-rule:nonzero;stroke:rgb(0,0,255);stroke-width:1px;"/>
        </g>
        <g transform="matrix(0.988891,0,0,0.988891,1.99968,2.00963)">
            <path d="M185.739,185.249L168.073,188.248" style="fill:none;fill-rule:nonzero;stroke:rgb(0,0,255);stroke-width:1px;"/>
        </g>
        <g transform="matrix(0.988891,0,0,0.988891,1.99968,2.00963)">
            <path d="M193.923,185.549L182.246,188.948" style="fill:none;fill-rule:nonzero;stroke:rgb(0,0,255);stroke-width:1px;"/>
        </g>
        <g transform="matrix(0.988891,0,0,0.988891,1.99968,2.00963)">
            <path d="M193.923,185.549L185.739,185.249" style="fill:none;fill-rule:nonzero;stroke:rgb(0,0,255);stroke-width:1px;"/>
        </g>
        <g transform="matrix(0.988891,0,0,0.988891,1.99968,2.00963)">
            <path d="M167.874,188.048L174.062,185.549" style="fill:none;fill-rule:nonzero;stroke:rgb(0,0,255);stroke-width:1px;"/>
        </g>
        <g transform="matrix(0.988891,0,0,0.988891,1.99968,2.00963)">
            <path d="M176.058,165.153L169.87,159.054" style="fill:none;fill-rule:nonzero;stroke:rgb(0,0,255);stroke-width:1px;"/>
        </g>
        <g transform="matrix(0.988891,0,0,0.988891,1.99968,2.00963)">
            <path d="M175.858,182.55L167.874,188.048" style="fill:none;fill-rule:nonzero;stroke:rgb(0,0,255);stroke-width:1px;"/>
        </g>
        <g transform="matrix(0.988891,0,0,0.988891,1.99968,2.00963)">
            <path d="M182.246,179.15L176.058,165.153" style="fill:none;fill-rule:nonzero;stroke:rgb(0,0,255);stroke-width:1px;"/>
        </g>
        <g transform="matrix(0.988891,0,0,0.988891,1.99968,2.00963)">
            <path d="M182.246,179.15L175.858,182.55" style="fill:none;fill-rule:nonzero;stroke:rgb(0,0,255);stroke-width:1px;"/>
        </g>
        <g transform="matrix(0.988891,0,0,0.988891,1.99968,2.00963)">
            <path d="M166.077,199.746L166.113,199.747L166.149,199.751L166.184,199.758L166.285,199.791L166.431,199.893L166.532,200.039L166.577,200.246L166.532,200.454L166.431,200.6L166.285,200.701L166.077,200.746L165.903,200.715L165.724,200.6L165.609,200.421L165.577,200.246L165.609,200.071L165.724,199.893L165.903,199.778L166.077,199.746Z" style="fill:none;fill-rule:nonzero;stroke:rgb(0,0,255);stroke-width:1px;"/>
        </g>
        <g transform="matrix(0.988891,0,0,0.988891,1.99968,2.00963)">
            <path d="M188.433,200.446L188.608,200.478L188.787,200.593L188.902,200.771L188.933,200.946L188.888,201.154L188.787,201.3L188.608,201.415L188.433,201.446L188.259,201.415L188.08,201.3L187.979,201.154L187.933,200.946L187.965,200.771L188.08,200.593L188.163,200.525L188.194,200.507L188.226,200.491L188.259,200.478L188.433,200.446Z" style="fill:none;fill-rule:nonzero;stroke:rgb(0,0,255);stroke-width:1px;"/>
        </g>
        <g transform="matrix(0.988891,0,0,0.988891,1.99968,2.00963)">
            <path d="M168.073,187.748L168.18,187.76L168.215,187.769L168.248,187.78L168.281,187.794L168.313,187.809L168.343,187.828L168.373,187.848L168.427,187.895L168.528,188.041L168.562,188.142L168.568,188.177L168.572,188.212L168.574,188.248L168.542,188.423L168.427,188.602L168.248,188.717L168.073,188.748L168.037,188.747L168.002,188.743L167.967,188.737L167.866,188.703L167.72,188.602L167.653,188.518L167.635,188.488L167.619,188.456L167.605,188.423L167.573,188.248L167.619,188.041L167.72,187.895L167.866,187.794L168.073,187.748Z" style="fill:none;fill-rule:nonzero;stroke:rgb(0,0,255);stroke-width:1px;"/>
        </g>
        <g transform="matrix(0.988891,0,0,0.988891,1.99968,2.00963)">
            <path d="M182.246,188.448L182.453,188.493L182.599,188.595L182.7,188.741L182.725,188.807L182.734,188.842L182.746,188.948L182.7,189.156L182.599,189.302L182.545,189.349L182.516,189.369L182.485,189.387L182.453,189.403L182.246,189.448L182.071,189.417L181.892,189.302L181.777,189.123L181.746,188.948L181.791,188.741L181.892,188.595L182.071,188.48L182.246,188.448Z" style="fill:none;fill-rule:nonzero;stroke:rgb(0,0,255);stroke-width:1px;"/>
        </g>
        <g transform="matrix(0.988891,0,0,0.988891,1.99968,2.00963)">
            <path d="M185.739,184.749L185.946,184.794L186.092,184.895L186.194,185.041L186.239,185.249L186.237,185.285L186.234,185.321L186.207,185.424L186.092,185.603L185.914,185.717L185.739,185.749L185.531,185.704L185.385,185.603L185.27,185.424L185.25,185.356L185.244,185.321L185.239,185.249L185.284,185.041L185.385,184.895L185.531,184.794L185.739,184.749Z" style="fill:none;fill-rule:nonzero;stroke:rgb(0,0,255);stroke-width:1px;"/>
        </g>
        <g transform="matrix(0.988891,0,0,0.988891,1.99968,2.00963)">
            <path d="M193.923,185.049L194.13,185.094L194.276,185.195L194.377,185.341L194.423,185.549L194.377,185.757L194.276,185.903L194.13,186.004L193.923,186.049L193.748,186.017L193.569,185.903L193.454,185.724L193.443,185.69L193.434,185.656L193.428,185.621L193.423,185.549L193.424,185.513L193.434,185.442L193.468,185.341L193.569,185.195L193.748,185.081L193.923,185.049Z" style="fill:none;fill-rule:nonzero;stroke:rgb(0,0,255);stroke-width:1px;"/>
        </g>
        <g transform="matrix(0.988891,0,0,0.988891,1.99968,2.00963)">
            <path d="M174.062,185.049L174.237,185.081L174.415,185.195L174.517,185.341L174.562,185.549L174.53,185.724L174.415,185.903L174.237,186.017L174.062,186.049L173.854,186.004L173.708,185.903L173.641,185.819L173.623,185.788L173.607,185.757L173.593,185.724L173.562,185.549L173.607,185.341L173.708,185.195L173.854,185.094L174.062,185.049Z" style="fill:none;fill-rule:nonzero;stroke:rgb(0,0,255);stroke-width:1px;"/>
        </g>
        <g transform="matrix(0.988891,0,0,0.988891,1.99968,2.00963)">
            <path d="M169.87,158.554L170.078,158.599L170.224,158.7L170.338,158.879L170.37,159.054L170.325,159.262L170.271,159.353L170.248,159.381L170.224,159.407L170.078,159.509L169.87,159.554L169.662,159.509L169.516,159.407L169.415,159.262L169.37,159.054L169.402,158.879L169.516,158.7L169.695,158.585L169.87,158.554Z" style="fill:none;fill-rule:nonzero;stroke:rgb(0,0,255);stroke-width:1px;"/>
        </g>
        <g transform="matrix(0.988891,0,0,0.988891,1.99968,2.00963)">
            <path d="M167.874,187.548L168.049,187.58L168.227,187.695L168.274,187.749L168.295,187.779L168.313,187.809L168.329,187.841L168.342,187.874L168.354,187.907L168.362,187.942L168.374,188.048L168.369,188.12L168.362,188.155L168.354,188.19L168.342,188.223L168.227,188.402L168.049,188.517L168.015,188.528L167.981,188.537L167.946,188.543L167.874,188.548L167.699,188.517L167.635,188.487L167.604,188.469L167.52,188.402L167.405,188.223L167.374,188.048L167.419,187.841L167.52,187.695L167.699,187.58L167.874,187.548Z" style="fill:none;fill-rule:nonzero;stroke:rgb(0,0,255);stroke-width:1px;"/>
        </g>
        <g transform="matrix(0.988891,0,0,0.988891,1.99968,2.00963)">
            <path d="M176.058,164.653L176.265,164.698L176.411,164.799L176.513,164.945L176.558,165.153L176.526,165.328L176.411,165.506L176.265,165.608L176.233,165.621L176.199,165.632L176.164,165.641L176.058,165.653L175.883,165.621L175.704,165.506L175.589,165.328L175.558,165.153L175.603,164.945L175.657,164.854L175.68,164.826L175.704,164.799L175.85,164.698L176.058,164.653Z" style="fill:none;fill-rule:nonzero;stroke:rgb(0,0,255);stroke-width:1px;"/>
        </g>
        <g transform="matrix(0.988891,0,0,0.988891,1.99968,2.00963)">
            <path d="M175.858,182.05L176.033,182.081L176.212,182.196L176.279,182.28L176.297,182.31L176.313,182.342L176.327,182.375L176.358,182.55L176.313,182.757L176.212,182.903L176.033,183.018L175.858,183.05L175.651,183.004L175.505,182.903L175.458,182.849L175.437,182.819L175.403,182.757L175.358,182.55L175.39,182.375L175.505,182.196L175.651,182.095L175.858,182.05Z" style="fill:none;fill-rule:nonzero;stroke:rgb(0,0,255);stroke-width:1px;"/>
        </g>
        <g transform="matrix(0.988891,0,0,0.988891,1.99968,2.00963)">
            <path d="M182.246,178.65L182.453,178.695L182.599,178.797L182.7,178.943L182.746,179.15L182.7,179.358L182.599,179.504L182.453,179.605L182.246,179.65L182.038,179.605L181.892,179.504L181.845,179.449L181.825,179.42L181.807,179.39L181.791,179.358L181.746,179.15L181.777,178.975L181.892,178.797L181.976,178.729L182.006,178.711L182.038,178.695L182.071,178.682L182.246,178.65Z" style="fill:none;fill-rule:nonzero;stroke:rgb(0,0,255);stroke-width:1px;"/>
        </g>
        <g transform="matrix(0.988891,0,0,0.988891,1.99968,2.00963)">
            <path d="M172.165,180.05L172.373,180.095L172.519,180.196L172.634,180.375L172.665,180.55L172.664,180.586L172.654,180.657L172.62,180.758L172.519,180.903L172.373,181.005L172.165,181.05L171.991,181.018L171.812,180.903L171.711,180.758L171.665,180.55L171.697,180.375L171.812,180.196L171.991,180.081L172.165,180.05Z" style="fill:none;fill-rule:nonzero;stroke:rgb(0,0,255);stroke-width:1px;"/>
        </g>
    </g>
</svg>
