<?xml version="1.0" encoding="UTF-8" standalone="no"?>
<!DOCTYPE svg PUBLIC "-//W3C//DTD SVG 1.1//EN" "http://www.w3.org/Graphics/SVG/1.1/DTD/svg11.dtd">
<svg width="100%" height="100%" viewBox="0 0 360 360" version="1.1" xmlns="http://www.w3.org/2000/svg" xmlns:xlink="http://www.w3.org/1999/xlink" xml:space="preserve" xmlns:serif="http://www.serif.com/" style="fill-rule:evenodd;clip-rule:evenodd;">
    <g id="_1" serif:id="1" transform="matrix(7.6917,0,0,7.6917,-1204.51,-1204.64)">
        <g transform="matrix(0.985263,0,0,0.985263,2.65258,2.62851)">
            <path d="M166.266,177.251L172.509,176.901" style="fill:none;fill-rule:nonzero;stroke:rgb(0,0,255);stroke-width:1px;"/>
        </g>
        <g transform="matrix(0.985263,0,0,0.985263,2.65258,2.62851)">
            <path d="M175.555,187.147L183.346,202.142" style="fill:none;fill-rule:nonzero;stroke:rgb(0,0,255);stroke-width:1px;"/>
        </g>
        <g transform="matrix(0.985263,0,0,0.985263,2.65258,2.62851)">
            <path d="M175.655,185.948L165.467,189.946" style="fill:none;fill-rule:nonzero;stroke:rgb(0,0,255);stroke-width:1px;"/>
        </g>
        <g transform="matrix(0.985263,0,0,0.985263,2.65258,2.62851)">
            <path d="M191.437,180.95L175.655,185.948" style="fill:none;fill-rule:nonzero;stroke:rgb(0,0,255);stroke-width:1px;"/>
        </g>
        <g transform="matrix(0.985263,0,0,0.985263,2.65258,2.62851)">
            <path d="M163.569,181.15L163.07,181.15" style="fill:none;fill-rule:nonzero;stroke:rgb(0,0,255);stroke-width:1px;"/>
        </g>
        <g transform="matrix(0.985263,0,0,0.985263,2.65258,2.62851)">
            <path d="M173.857,157.858L196.93,176.451" style="fill:none;fill-rule:nonzero;stroke:rgb(0,0,255);stroke-width:1px;"/>
        </g>
        <g transform="matrix(0.985263,0,0,0.985263,2.65258,2.62851)">
            <path d="M167.465,177.451L163.569,181.15" style="fill:none;fill-rule:nonzero;stroke:rgb(0,0,255);stroke-width:1px;"/>
        </g>
        <g transform="matrix(0.985263,0,0,0.985263,2.65258,2.62851)">
            <path d="M177.553,176.351L173.857,157.858" style="fill:none;fill-rule:nonzero;stroke:rgb(0,0,255);stroke-width:1px;"/>
        </g>
        <g transform="matrix(0.985263,0,0,0.985263,2.65258,2.62851)">
            <path d="M177.553,176.351L167.465,177.451" style="fill:none;fill-rule:nonzero;stroke:rgb(0,0,255);stroke-width:1px;"/>
        </g>
        <g transform="matrix(0.985263,0,0,0.985263,2.65258,2.62851)">
            <path d="M183.346,201.642L183.521,201.673L183.7,201.788L183.815,201.967L183.846,202.142L183.801,202.349L183.7,202.495L183.521,202.61L183.346,202.642L183.138,202.596L182.993,202.495L182.891,202.349L182.846,202.142L182.878,201.967L182.993,201.788L183.047,201.741L183.076,201.721L183.107,201.703L183.138,201.687L183.346,201.642Z" style="fill:none;fill-rule:nonzero;stroke:rgb(0,0,255);stroke-width:1px;"/>
        </g>
        <g transform="matrix(0.985263,0,0,0.985263,2.65258,2.62851)">
            <path d="M165.467,189.446L165.642,189.478L165.82,189.593L165.888,189.676L165.906,189.707L165.922,189.739L165.935,189.771L165.967,189.946L165.922,190.154L165.82,190.3L165.675,190.401L165.467,190.446L165.259,190.401L165.113,190.3L165.012,190.154L164.967,189.946L164.998,189.771L165.113,189.593L165.259,189.491L165.467,189.446Z" style="fill:none;fill-rule:nonzero;stroke:rgb(0,0,255);stroke-width:1px;"/>
        </g>
        <g transform="matrix(0.985263,0,0,0.985263,2.65258,2.62851)">
            <path d="M175.555,186.647L175.763,186.692L175.909,186.794L176.01,186.94L176.055,187.147L176.01,187.355L175.909,187.501L175.854,187.548L175.825,187.568L175.795,187.586L175.763,187.602L175.555,187.647L175.348,187.602L175.202,187.501L175.1,187.355L175.055,187.147L175.087,186.972L175.202,186.794L175.38,186.679L175.555,186.647Z" style="fill:none;fill-rule:nonzero;stroke:rgb(0,0,255);stroke-width:1px;"/>
        </g>
        <g transform="matrix(0.985263,0,0,0.985263,2.65258,2.62851)">
            <path d="M175.655,185.448L175.83,185.479L176.009,185.594L176.11,185.74L176.123,185.773L176.135,185.807L176.144,185.841L176.155,185.948L176.123,186.123L176.009,186.301L175.83,186.416L175.655,186.448L175.447,186.403L175.302,186.301L175.234,186.218L175.216,186.187L175.2,186.155L175.187,186.123L175.155,185.948L175.2,185.74L175.302,185.594L175.447,185.493L175.655,185.448Z" style="fill:none;fill-rule:nonzero;stroke:rgb(0,0,255);stroke-width:1px;"/>
        </g>
        <g transform="matrix(0.985263,0,0,0.985263,2.65258,2.62851)">
            <path d="M191.437,180.45L191.612,180.481L191.79,180.596L191.892,180.742L191.937,180.95L191.905,181.124L191.79,181.303L191.612,181.418L191.437,181.45L191.262,181.418L191.083,181.303L190.968,181.124L190.957,181.091L190.948,181.056L190.942,181.021L190.937,180.95L190.982,180.742L191.083,180.596L191.262,180.481L191.437,180.45Z" style="fill:none;fill-rule:nonzero;stroke:rgb(0,0,255);stroke-width:1px;"/>
        </g>
        <g transform="matrix(0.985263,0,0,0.985263,2.65258,2.62851)">
            <path d="M163.07,180.65L163.277,180.695L163.309,180.711L163.34,180.729L163.369,180.749L163.423,180.796L163.525,180.942L163.558,181.043L163.568,181.114L163.57,181.15L163.538,181.324L163.423,181.503L163.369,181.55L163.34,181.57L163.309,181.589L163.277,181.604L163.07,181.65L162.895,181.618L162.716,181.503L162.601,181.324L162.57,181.15L162.615,180.942L162.716,180.796L162.895,180.681L163.07,180.65Z" style="fill:none;fill-rule:nonzero;stroke:rgb(0,0,255);stroke-width:1px;"/>
        </g>
        <g transform="matrix(0.985263,0,0,0.985263,2.65258,2.62851)">
            <path d="M196.93,175.951L197.138,175.996L197.284,176.098L197.399,176.277L197.43,176.451L197.385,176.659L197.284,176.805L197.138,176.906L196.93,176.951L196.755,176.92L196.577,176.805L196.475,176.659L196.43,176.451L196.462,176.277L196.509,176.181L196.53,176.152L196.552,176.124L196.577,176.098L196.755,175.983L196.93,175.951Z" style="fill:none;fill-rule:nonzero;stroke:rgb(0,0,255);stroke-width:1px;"/>
        </g>
        <g transform="matrix(0.985263,0,0,0.985263,2.65258,2.62851)">
            <path d="M163.569,180.65L163.777,180.695L163.923,180.796L163.947,180.822L163.97,180.85L164.024,180.942L164.069,181.15L164.038,181.324L163.923,181.503L163.777,181.604L163.569,181.65L163.394,181.618L163.33,181.589L163.299,181.57L163.216,181.503L163.101,181.324L163.069,181.15L163.114,180.942L163.216,180.796L163.299,180.729L163.33,180.711L163.394,180.681L163.569,180.65Z" style="fill:none;fill-rule:nonzero;stroke:rgb(0,0,255);stroke-width:1px;"/>
        </g>
        <g transform="matrix(0.985263,0,0,0.985263,2.65258,2.62851)">
            <path d="M173.857,157.358L174.065,157.404L174.211,157.505L174.326,157.684L174.357,157.858L174.312,158.066L174.258,158.158L174.235,158.186L174.211,158.212L174.065,158.313L173.964,158.347L173.929,158.353L173.893,158.357L173.857,158.358L173.682,158.327L173.504,158.212L173.402,158.066L173.357,157.858L173.389,157.684L173.504,157.505L173.682,157.39L173.857,157.358Z" style="fill:none;fill-rule:nonzero;stroke:rgb(0,0,255);stroke-width:1px;"/>
        </g>
        <g transform="matrix(0.985263,0,0,0.985263,2.65258,2.62851)">
            <path d="M167.465,176.951L167.639,176.983L167.818,177.097L167.865,177.152L167.885,177.181L167.919,177.243L167.953,177.344L167.959,177.379L167.963,177.415L167.965,177.451L167.933,177.626L167.818,177.805L167.639,177.919L167.465,177.951L167.257,177.906L167.111,177.805L167.086,177.778L167.044,177.721L166.996,177.626L166.965,177.451L167.01,177.243L167.026,177.212L167.044,177.181L167.064,177.152L167.111,177.097L167.257,176.996L167.465,176.951Z" style="fill:none;fill-rule:nonzero;stroke:rgb(0,0,255);stroke-width:1px;"/>
        </g>
        <g transform="matrix(0.985263,0,0,0.985263,2.65258,2.62851)">
            <path d="M177.553,175.851L177.76,175.897L177.906,175.998L178.008,176.144L178.053,176.351L178.008,176.559L177.906,176.705L177.76,176.806L177.553,176.851L177.378,176.82L177.199,176.705L177.098,176.559L177.064,176.458L177.058,176.423L177.054,176.387L177.053,176.351L177.084,176.177L177.199,175.998L177.378,175.883L177.446,175.863L177.481,175.857L177.553,175.851Z" style="fill:none;fill-rule:nonzero;stroke:rgb(0,0,255);stroke-width:1px;"/>
        </g>
        <g transform="matrix(0.985263,0,0,0.985263,2.65258,2.62851)">
            <path d="M166.266,176.751L166.441,176.783L166.62,176.897L166.721,177.043L166.754,177.144L166.765,177.215L166.766,177.251L166.734,177.426L166.62,177.605L166.441,177.719L166.266,177.751L166.058,177.706L165.912,177.605L165.798,177.426L165.766,177.251L165.811,177.043L165.912,176.897L166.058,176.796L166.266,176.751Z" style="fill:none;fill-rule:nonzero;stroke:rgb(0,0,255);stroke-width:1px;"/>
        </g>
    </g>
</svg>
