<?xml version="1.0" encoding="UTF-8" standalone="no"?>
<!DOCTYPE svg PUBLIC "-//W3C//DTD SVG 1.1//EN" "http://www.w3.org/Graphics/SVG/1.1/DTD/svg11.dtd">
<svg width="100%" height="100%" viewBox="0 0 360 360" version="1.1" xmlns="http://www.w3.org/2000/svg" xmlns:xlink="http://www.w3.org/1999/xlink" xml:space="preserve" xmlns:serif="http://www.serif.com/" style="fill-rule:evenodd;clip-rule:evenodd;">
    <g id="_1" serif:id="1" transform="matrix(4.06806,0,0,4.06806,-552.251,-552.683)">
        <path d="M182.749,182.148L186.899,159.615" style="fill:none;fill-rule:nonzero;stroke:rgb(0,0,255);stroke-width:1px;"/>
        <path d="M187.498,153.669L186.899,159.615" style="fill:none;fill-rule:nonzero;stroke:rgb(0,0,255);stroke-width:1px;"/>
        <path d="M169.702,176.253L160.204,165.461" style="fill:none;fill-rule:nonzero;stroke:rgb(0,0,255);stroke-width:1px;"/>
        <path d="M178.2,205.931L170.502,222.919" style="fill:none;fill-rule:nonzero;stroke:rgb(0,0,255);stroke-width:1px;"/>
        <path d="M179,180.25L169.702,176.253" style="fill:none;fill-rule:nonzero;stroke:rgb(0,0,255);stroke-width:1px;"/>
        <path d="M186.499,184.047L178.2,205.931" style="fill:none;fill-rule:nonzero;stroke:rgb(0,0,255);stroke-width:1px;"/>
        <path d="M186.499,184.047L179,180.25" style="fill:none;fill-rule:nonzero;stroke:rgb(0,0,255);stroke-width:1px;"/>
        <path d="M172.402,146.974L166.903,137.081" style="fill:none;fill-rule:nonzero;stroke:rgb(0,0,255);stroke-width:1px;"/>
        <path d="M180.4,157.966L172.402,146.974" style="fill:none;fill-rule:nonzero;stroke:rgb(0,0,255);stroke-width:1px;"/>
        <path d="M193.397,161.264L199.796,150.272" style="fill:none;fill-rule:nonzero;stroke:rgb(0,0,255);stroke-width:1px;"/>
        <path d="M193.397,161.264L180.4,157.966" style="fill:none;fill-rule:nonzero;stroke:rgb(0,0,255);stroke-width:1px;"/>
        <path d="M160.204,164.961L160.379,164.992L160.558,165.107L160.672,165.286L160.704,165.461L160.659,165.668L160.558,165.814L160.531,165.839L160.474,165.881L160.379,165.929L160.204,165.961L159.996,165.915L159.85,165.814L159.749,165.668L159.704,165.461L159.736,165.286L159.85,165.107L159.996,165.006L160.204,164.961Z" style="fill:none;fill-rule:nonzero;stroke:rgb(0,0,255);stroke-width:1px;"/>
        <path d="M170.502,222.419L170.609,222.43L170.643,222.439L170.677,222.45L170.71,222.464L170.855,222.565L170.97,222.744L171.002,222.919L170.957,223.126L170.855,223.272L170.71,223.374L170.502,223.419L170.327,223.387L170.148,223.272L170.047,223.126L170.002,222.919L170.033,222.744L170.148,222.565L170.327,222.45L170.502,222.419Z" style="fill:none;fill-rule:nonzero;stroke:rgb(0,0,255);stroke-width:1px;"/>
        <path d="M169.702,175.753L169.91,175.798L170.056,175.899L170.171,176.078L170.202,176.253L170.191,176.359L170.182,176.394L170.171,176.428L170.157,176.46L170.056,176.606L169.91,176.708L169.702,176.753L169.527,176.721L169.349,176.606L169.247,176.46L169.202,176.253L169.234,176.078L169.349,175.899L169.375,175.875L169.432,175.832L169.527,175.784L169.702,175.753Z" style="fill:none;fill-rule:nonzero;stroke:rgb(0,0,255);stroke-width:1px;"/>
        <path d="M178.2,205.431L178.307,205.443L178.342,205.451L178.375,205.463L178.408,205.476L178.554,205.578L178.655,205.724L178.7,205.931L178.655,206.139L178.554,206.285L178.408,206.386L178.2,206.431L178.026,206.4L177.993,206.386L177.961,206.37L177.93,206.352L177.847,206.285L177.732,206.106L177.7,205.931L177.746,205.724L177.847,205.578L178.026,205.463L178.2,205.431Z" style="fill:none;fill-rule:nonzero;stroke:rgb(0,0,255);stroke-width:1px;"/>
        <path d="M179,179.75L179.175,179.781L179.354,179.896L179.469,180.075L179.5,180.25L179.455,180.457L179.439,180.489L179.421,180.52L179.401,180.549L179.354,180.603L179.175,180.718L179,180.75L178.793,180.705L178.647,180.603L178.545,180.457L178.5,180.25L178.532,180.075L178.545,180.042L178.561,180.01L178.579,179.98L178.647,179.896L178.793,179.795L179,179.75Z" style="fill:none;fill-rule:nonzero;stroke:rgb(0,0,255);stroke-width:1px;"/>
        <path d="M186.499,183.547L186.535,183.548L186.57,183.552L186.674,183.579L186.852,183.693L186.954,183.839L186.999,184.047L186.967,184.222L186.852,184.401L186.674,184.515L186.499,184.547L186.392,184.536L186.358,184.527L186.324,184.515L186.291,184.502L186.199,184.448L186.172,184.425L186.145,184.401L186.044,184.255L185.999,184.047L186.044,183.839L186.06,183.808L186.078,183.777L186.098,183.748L186.145,183.693L186.291,183.592L186.499,183.547Z" style="fill:none;fill-rule:nonzero;stroke:rgb(0,0,255);stroke-width:1px;"/>
        <path d="M166.903,136.581L167.11,136.626L167.256,136.728L167.358,136.874L167.403,137.081L167.371,137.256L167.256,137.435L167.173,137.502L167.142,137.52L167.078,137.55L166.903,137.581L166.695,137.536L166.549,137.435L166.434,137.256L166.403,137.081L166.448,136.874L166.549,136.728L166.695,136.626L166.903,136.581Z" style="fill:none;fill-rule:nonzero;stroke:rgb(0,0,255);stroke-width:1px;"/>
        <path d="M172.402,146.474L172.609,146.519L172.755,146.62L172.87,146.799L172.902,146.974L172.856,147.182L172.755,147.328L172.701,147.375L172.671,147.395L172.609,147.429L172.402,147.474L172.227,147.442L172.048,147.328L171.947,147.182L171.902,146.974L171.933,146.799L172.048,146.62L172.132,146.553L172.162,146.535L172.227,146.506L172.402,146.474Z" style="fill:none;fill-rule:nonzero;stroke:rgb(0,0,255);stroke-width:1px;"/>
        <path d="M199.796,149.772L199.971,149.803L200.15,149.918L200.251,150.064L200.296,150.272L200.251,150.479L200.15,150.625L199.971,150.74L199.796,150.772L199.689,150.76L199.655,150.751L199.621,150.74L199.588,150.726L199.557,150.711L199.526,150.692L199.497,150.672L199.442,150.625L199.341,150.479L199.296,150.272L199.341,150.064L199.442,149.918L199.588,149.817L199.796,149.772Z" style="fill:none;fill-rule:nonzero;stroke:rgb(0,0,255);stroke-width:1px;"/>
        <path d="M180.4,157.466L180.575,157.498L180.753,157.612L180.868,157.791L180.9,157.966L180.888,158.073L180.88,158.107L180.855,158.174L180.753,158.32L180.575,158.434L180.4,158.466L180.192,158.421L180.046,158.32L179.945,158.174L179.9,157.966L179.931,157.791L180.046,157.612L180.101,157.565L180.13,157.545L180.192,157.511L180.4,157.466Z" style="fill:none;fill-rule:nonzero;stroke:rgb(0,0,255);stroke-width:1px;"/>
        <path d="M193.397,160.764L193.605,160.809L193.637,160.825L193.667,160.843L193.697,160.863L193.751,160.91L193.852,161.056L193.897,161.264L193.866,161.438L193.751,161.617L193.605,161.718L193.397,161.764L193.222,161.732L193.044,161.617L192.929,161.438L192.897,161.264L192.909,161.157L192.918,161.122L192.942,161.056L193.044,160.91L193.222,160.795L193.397,160.764Z" style="fill:none;fill-rule:nonzero;stroke:rgb(0,0,255);stroke-width:1px;"/>
        <path d="M187.498,153.169L187.673,153.201L187.852,153.316L187.953,153.462L187.998,153.669L187.967,153.844L187.852,154.023L187.673,154.138L187.498,154.169L187.462,154.168L187.427,154.164L187.392,154.158L187.291,154.124L187.145,154.023L187.03,153.844L186.998,153.669L187.044,153.462L187.145,153.316L187.291,153.214L187.498,153.169Z" style="fill:none;fill-rule:nonzero;stroke:rgb(0,0,255);stroke-width:1px;"/>
    </g>
</svg>
