<?xml version="1.0" encoding="UTF-8" standalone="no"?>
<!DOCTYPE svg PUBLIC "-//W3C//DTD SVG 1.1//EN" "http://www.w3.org/Graphics/SVG/1.1/DTD/svg11.dtd">
<svg width="100%" height="100%" viewBox="0 0 360 360" version="1.1" xmlns="http://www.w3.org/2000/svg" xmlns:xlink="http://www.w3.org/1999/xlink" xml:space="preserve" xmlns:serif="http://www.serif.com/" style="fill-rule:evenodd;clip-rule:evenodd;">
    <g id="_1" serif:id="1" transform="matrix(4.20711,0,0,4.32532,-577.314,-586.653)">
        <path d="M211.882,167.194L216.655,189.22" style="fill:none;fill-rule:nonzero;stroke:rgb(0,0,255);stroke-width:1px;"/>
        <path d="M142.492,180.854L145.22,153.534" style="fill:none;fill-rule:nonzero;stroke:rgb(0,0,255);stroke-width:1px;"/>
        <path d="M143.686,181.024L145.391,153.192" style="fill:none;fill-rule:nonzero;stroke:rgb(0,0,255);stroke-width:1px;"/>
        <path d="M168.407,210.052L142.492,180.854" style="fill:none;fill-rule:nonzero;stroke:rgb(0,0,255);stroke-width:1px;"/>
        <path d="M175.226,163.95L145.05,155.071" style="fill:none;fill-rule:nonzero;stroke:rgb(0,0,255);stroke-width:1px;"/>
        <path d="M191.252,181.024L155.109,149.948" style="fill:none;fill-rule:nonzero;stroke:rgb(0,0,255);stroke-width:1px;"/>
        <path d="M217.508,189.562L175.226,163.95" style="fill:none;fill-rule:nonzero;stroke:rgb(0,0,255);stroke-width:1px;"/>
        <path d="M215.803,188.879L191.252,181.024" style="fill:none;fill-rule:nonzero;stroke:rgb(0,0,255);stroke-width:1px;"/>
        <path d="M215.803,188.879L217.508,189.562" style="fill:none;fill-rule:nonzero;stroke:rgb(0,0,255);stroke-width:1px;"/>
        <path d="M145.22,153.034L145.428,153.079L145.574,153.18L145.675,153.326L145.72,153.534L145.719,153.57L145.709,153.641L145.675,153.742L145.574,153.887L145.428,153.989L145.361,154.014L145.327,154.022L145.22,154.034L145.184,154.033L145.149,154.029L145.113,154.022L145.013,153.989L144.867,153.887L144.765,153.742L144.72,153.534L144.765,153.326L144.867,153.18L144.893,153.156L144.921,153.133L145.013,153.079L145.22,153.034Z" style="fill:none;fill-rule:nonzero;stroke:rgb(0,0,255);stroke-width:1px;"/>
        <path d="M145.391,152.692L145.598,152.738L145.744,152.839L145.846,152.985L145.891,153.192L145.846,153.4L145.744,153.546L145.718,153.571L145.69,153.593L145.598,153.647L145.391,153.692L145.355,153.691L145.284,153.681L145.249,153.672L145.216,153.661L145.183,153.647L145.037,153.546L144.922,153.367L144.891,153.192L144.892,153.156L144.896,153.121L144.922,153.018L145.037,152.839L145.183,152.738L145.391,152.692Z" style="fill:none;fill-rule:nonzero;stroke:rgb(0,0,255);stroke-width:1px;"/>
        <path d="M142.492,180.354L142.528,180.355L142.564,180.359L142.599,180.365L142.7,180.399L142.846,180.5L142.947,180.646L142.992,180.854L142.947,181.061L142.846,181.207L142.82,181.232L142.792,181.254L142.7,181.309L142.492,181.354L142.285,181.309L142.139,181.207L142.037,181.061L141.992,180.854L142.037,180.646L142.139,180.5L142.285,180.399L142.492,180.354Z" style="fill:none;fill-rule:nonzero;stroke:rgb(0,0,255);stroke-width:1px;"/>
        <path d="M143.686,180.524L143.722,180.526L143.792,180.536L143.893,180.57L144.039,180.671L144.154,180.85L144.186,181.024L144.141,181.232L144.039,181.378L143.893,181.479L143.686,181.524L143.478,181.479L143.332,181.378L143.231,181.232L143.186,181.024L143.217,180.85L143.332,180.671L143.478,180.57L143.686,180.524Z" style="fill:none;fill-rule:nonzero;stroke:rgb(0,0,255);stroke-width:1px;"/>
        <path d="M168.407,209.552L168.614,209.597L168.76,209.698L168.862,209.844L168.907,210.052L168.862,210.259L168.76,210.405L168.614,210.507L168.407,210.552L168.232,210.52L168.053,210.405L167.952,210.259L167.907,210.052L167.952,209.844L168.053,209.698L168.08,209.674L168.137,209.631L168.232,209.583L168.407,209.552Z" style="fill:none;fill-rule:nonzero;stroke:rgb(0,0,255);stroke-width:1px;"/>
        <path d="M145.05,154.571L145.086,154.572L145.121,154.576L145.156,154.582L145.257,154.616L145.289,154.632L145.32,154.65L145.349,154.67L145.403,154.717L145.505,154.863L145.55,155.071L145.545,155.142L145.538,155.177L145.529,155.212L145.518,155.245L145.403,155.424L145.257,155.526L145.225,155.539L145.191,155.55L145.156,155.559L145.05,155.571L145.014,155.569L144.978,155.565L144.875,155.539L144.696,155.424L144.581,155.245L144.55,155.071L144.595,154.863L144.696,154.717L144.875,154.602L145.05,154.571Z" style="fill:none;fill-rule:nonzero;stroke:rgb(0,0,255);stroke-width:1px;"/>
        <path d="M155.109,149.448L155.316,149.493L155.462,149.595L155.563,149.741L155.609,149.948L155.563,150.156L155.509,150.247L155.487,150.275L155.462,150.302L155.316,150.403L155.109,150.448L154.934,150.417L154.755,150.302L154.654,150.156L154.609,149.948L154.654,149.741L154.755,149.595L154.934,149.48L155.109,149.448Z" style="fill:none;fill-rule:nonzero;stroke:rgb(0,0,255);stroke-width:1px;"/>
        <path d="M175.226,163.45L175.434,163.495L175.58,163.596L175.695,163.775L175.726,163.95L175.695,164.124L175.665,164.189L175.647,164.22L175.58,164.303L175.434,164.404L175.226,164.45L175.019,164.404L174.873,164.303L174.758,164.124L174.726,163.95L174.738,163.843L174.747,163.808L174.771,163.742L174.873,163.596L175.019,163.495L175.226,163.45Z" style="fill:none;fill-rule:nonzero;stroke:rgb(0,0,255);stroke-width:1px;"/>
        <path d="M191.252,180.524L191.46,180.57L191.606,180.671L191.721,180.85L191.752,181.024L191.741,181.131L191.732,181.166L191.721,181.199L191.707,181.232L191.606,181.378L191.46,181.479L191.252,181.524L191.045,181.479L190.899,181.378L190.797,181.232L190.752,181.024L190.784,180.85L190.831,180.755L190.852,180.725L190.874,180.697L190.899,180.671L191.045,180.57L191.252,180.524Z" style="fill:none;fill-rule:nonzero;stroke:rgb(0,0,255);stroke-width:1px;"/>
        <path d="M217.508,189.062L217.683,189.094L217.861,189.208L217.976,189.387L218.008,189.562L217.976,189.737L217.861,189.915L217.715,190.017L217.508,190.062L217.3,190.017L217.154,189.915L217.053,189.77L217.008,189.562L217.019,189.455L217.028,189.421L217.039,189.387L217.053,189.354L217.069,189.323L217.087,189.292L217.107,189.263L217.154,189.208L217.333,189.094L217.508,189.062Z" style="fill:none;fill-rule:nonzero;stroke:rgb(0,0,255);stroke-width:1px;"/>
        <path d="M215.803,188.379L216.01,188.424L216.156,188.525L216.258,188.671L216.291,188.772L216.298,188.807L216.301,188.843L216.303,188.879L216.291,188.986L216.282,189.02L216.271,189.054L216.258,189.087L216.156,189.233L216.01,189.334L215.803,189.379L215.595,189.334L215.449,189.233L215.348,189.087L215.303,188.879L215.314,188.772L215.323,188.738L215.334,188.704L215.348,188.671L215.449,188.525L215.595,188.424L215.628,188.411L215.662,188.399L215.696,188.39L215.803,188.379Z" style="fill:none;fill-rule:nonzero;stroke:rgb(0,0,255);stroke-width:1px;"/>
        <path d="M211.882,166.694L212.089,166.739L212.235,166.84L212.336,166.986L212.382,167.194L212.336,167.401L212.235,167.547L212.089,167.649L211.988,167.682L211.953,167.689L211.918,167.693L211.882,167.694L211.674,167.649L211.528,167.547L211.427,167.401L211.382,167.194L211.427,166.986L211.528,166.84L211.674,166.739L211.882,166.694Z" style="fill:none;fill-rule:nonzero;stroke:rgb(0,0,255);stroke-width:1px;"/>
    </g>
</svg>
