<?xml version="1.0" encoding="UTF-8" standalone="no"?>
<!DOCTYPE svg PUBLIC "-//W3C//DTD SVG 1.1//EN" "http://www.w3.org/Graphics/SVG/1.1/DTD/svg11.dtd">
<svg width="100%" height="100%" viewBox="0 0 360 360" version="1.1" xmlns="http://www.w3.org/2000/svg" xmlns:xlink="http://www.w3.org/1999/xlink" xml:space="preserve" xmlns:serif="http://www.serif.com/" style="fill-rule:evenodd;clip-rule:evenodd;">
    <g id="_1" serif:id="1" transform="matrix(1.40591,0,0,1.40591,-73.0631,-72.3963)">
        <path d="M180.852,161.235L143.694,84.47" style="fill:none;fill-rule:nonzero;stroke:rgb(0,0,255);stroke-width:1px;"/>
        <path d="M130.569,70.14L143.694,84.47" style="fill:none;fill-rule:nonzero;stroke:rgb(0,0,255);stroke-width:1px;"/>
        <path d="M146.251,238.342L117.274,296.342" style="fill:none;fill-rule:nonzero;stroke:rgb(0,0,255);stroke-width:1px;"/>
        <path d="M182.045,234.589L180.341,304.189" style="fill:none;fill-rule:nonzero;stroke:rgb(0,0,255);stroke-width:1px;"/>
        <path d="M172.159,166.694L146.251,238.342" style="fill:none;fill-rule:nonzero;stroke:rgb(0,0,255);stroke-width:1px;"/>
        <path d="M189.545,155.776L182.045,234.589" style="fill:none;fill-rule:nonzero;stroke:rgb(0,0,255);stroke-width:1px;"/>
        <path d="M189.545,155.776L172.159,166.694" style="fill:none;fill-rule:nonzero;stroke:rgb(0,0,255);stroke-width:1px;"/>
        <path d="M203.863,55.811L242.385,63.317" style="fill:none;fill-rule:nonzero;stroke:rgb(0,0,255);stroke-width:1px;"/>
        <path d="M157.16,73.211L203.863,55.811" style="fill:none;fill-rule:nonzero;stroke:rgb(0,0,255);stroke-width:1px;"/>
        <path d="M157.16,73.211L130.228,95.729" style="fill:none;fill-rule:nonzero;stroke:rgb(0,0,255);stroke-width:1px;"/>
        <path d="M117.274,295.842L117.482,295.887L117.513,295.903L117.544,295.921L117.573,295.942L117.627,295.989L117.742,296.167L117.774,296.342L117.742,296.517L117.627,296.696L117.482,296.797L117.274,296.842L117.099,296.811L116.92,296.696L116.805,296.517L116.774,296.342L116.805,296.167L116.92,295.989L117.066,295.887L117.274,295.842Z" style="fill:none;fill-rule:nonzero;stroke:rgb(0,0,255);stroke-width:1px;"/>
        <path d="M180.341,303.689L180.377,303.69L180.413,303.694L180.516,303.721L180.694,303.836L180.796,303.982L180.841,304.189L180.796,304.397L180.694,304.543L180.516,304.658L180.341,304.689L180.166,304.658L179.987,304.543L179.872,304.364L179.841,304.189L179.886,303.982L179.987,303.836L180.166,303.721L180.341,303.689Z" style="fill:none;fill-rule:nonzero;stroke:rgb(0,0,255);stroke-width:1px;"/>
        <path d="M146.251,237.842L146.357,237.853L146.392,237.862L146.425,237.873L146.458,237.887L146.604,237.988L146.706,238.134L146.751,238.342L146.719,238.516L146.604,238.695L146.425,238.81L146.251,238.842L146.076,238.81L146.043,238.796L146.011,238.781L145.981,238.763L145.897,238.695L145.782,238.516L145.751,238.342L145.796,238.134L145.897,237.988L146.076,237.873L146.251,237.842Z" style="fill:none;fill-rule:nonzero;stroke:rgb(0,0,255);stroke-width:1px;"/>
        <path d="M182.045,234.089L182.081,234.09L182.117,234.094L182.152,234.1L182.253,234.134L182.399,234.235L182.5,234.381L182.545,234.589L182.514,234.763L182.399,234.942L182.253,235.044L182.045,235.089L182.009,235.087L181.939,235.077L181.838,235.044L181.692,234.942L181.577,234.763L181.545,234.589L181.577,234.414L181.692,234.235L181.871,234.12L182.045,234.089Z" style="fill:none;fill-rule:nonzero;stroke:rgb(0,0,255);stroke-width:1px;"/>
        <path d="M172.159,166.194L172.334,166.226L172.513,166.34L172.56,166.395L172.58,166.424L172.598,166.455L172.614,166.486L172.659,166.694L172.614,166.902L172.513,167.048L172.334,167.162L172.159,167.194L172.053,167.182L172.018,167.174L171.984,167.162L171.952,167.149L171.806,167.048L171.704,166.902L171.659,166.694L171.691,166.519L171.806,166.34L171.952,166.239L172.159,166.194Z" style="fill:none;fill-rule:nonzero;stroke:rgb(0,0,255);stroke-width:1px;"/>
        <path d="M189.545,155.276L189.72,155.308L189.899,155.423L190.014,155.601L190.045,155.776L190.014,155.951L189.899,156.13L189.753,156.231L189.545,156.276L189.509,156.275L189.474,156.271L189.439,156.265L189.338,156.231L189.192,156.13L189.124,156.046L189.106,156.016L189.077,155.951L189.045,155.776L189.077,155.601L189.192,155.423L189.37,155.308L189.545,155.276Z" style="fill:none;fill-rule:nonzero;stroke:rgb(0,0,255);stroke-width:1px;"/>
        <path d="M242.726,62.476L242.934,62.521L243.08,62.622L243.195,62.801L243.226,62.976L243.195,63.15L243.08,63.329L242.901,63.444L242.867,63.455L242.833,63.464L242.798,63.47L242.726,63.476L242.551,63.444L242.373,63.329L242.348,63.303L242.305,63.246L242.258,63.15L242.226,62.976L242.231,62.904L242.238,62.869L242.246,62.834L242.258,62.801L242.373,62.622L242.518,62.521L242.726,62.476Z" style="fill:none;fill-rule:nonzero;stroke:rgb(0,0,255);stroke-width:1px;"/>
        <path d="M242.385,62.817L242.56,62.848L242.739,62.963L242.84,63.109L242.885,63.317L242.874,63.423L242.865,63.458L242.84,63.524L242.739,63.67L242.593,63.772L242.385,63.817L242.178,63.772L242.032,63.67L241.917,63.492L241.885,63.317L241.886,63.281L241.89,63.245L241.897,63.21L241.93,63.109L242.032,62.963L242.178,62.862L242.244,62.837L242.278,62.828L242.385,62.817Z" style="fill:none;fill-rule:nonzero;stroke:rgb(0,0,255);stroke-width:1px;"/>
        <path d="M203.863,55.311L204.038,55.342L204.217,55.457L204.332,55.636L204.363,55.811L204.362,55.847L204.358,55.882L204.352,55.918L204.318,56.018L204.217,56.164L204.038,56.279L203.863,56.311L203.656,56.266L203.51,56.164L203.408,56.018L203.395,55.986L203.384,55.952L203.375,55.918L203.363,55.811L203.395,55.636L203.51,55.457L203.688,55.342L203.863,55.311Z" style="fill:none;fill-rule:nonzero;stroke:rgb(0,0,255);stroke-width:1px;"/>
        <path d="M130.228,95.229L130.436,95.274L130.582,95.375L130.606,95.402L130.629,95.43L130.683,95.521L130.728,95.729L130.697,95.904L130.582,96.082L130.436,96.184L130.228,96.229L130.053,96.197L129.875,96.082L129.76,95.904L129.728,95.729L129.773,95.521L129.875,95.375L130.053,95.26L130.228,95.229Z" style="fill:none;fill-rule:nonzero;stroke:rgb(0,0,255);stroke-width:1px;"/>
        <path d="M157.16,72.711L157.334,72.743L157.513,72.857L157.628,73.036L157.639,73.07L157.648,73.104L157.654,73.139L157.66,73.211L157.628,73.386L157.513,73.565L157.367,73.666L157.16,73.711L156.952,73.666L156.806,73.565L156.781,73.538L156.759,73.51L156.739,73.481L156.691,73.386L156.66,73.211L156.691,73.036L156.806,72.857L156.985,72.743L157.16,72.711Z" style="fill:none;fill-rule:nonzero;stroke:rgb(0,0,255);stroke-width:1px;"/>
        <path d="M130.569,69.64L130.744,69.672L130.923,69.787L131.038,69.966L131.069,70.14L131.024,70.348L130.923,70.494L130.896,70.518L130.839,70.561L130.744,70.609L130.569,70.64L130.362,70.595L130.216,70.494L130.114,70.348L130.069,70.14L130.101,69.966L130.216,69.787L130.362,69.685L130.569,69.64Z" style="fill:none;fill-rule:nonzero;stroke:rgb(0,0,255);stroke-width:1px;"/>
    </g>
</svg>
