<?xml version="1.0" encoding="UTF-8" standalone="no"?>
<!DOCTYPE svg PUBLIC "-//W3C//DTD SVG 1.1//EN" "http://www.w3.org/Graphics/SVG/1.1/DTD/svg11.dtd">
<svg width="100%" height="100%" viewBox="0 0 360 360" version="1.1" xmlns="http://www.w3.org/2000/svg" xmlns:xlink="http://www.w3.org/1999/xlink" xml:space="preserve" xmlns:serif="http://www.serif.com/" style="fill-rule:evenodd;clip-rule:evenodd;">
    <g id="_1" serif:id="1" transform="matrix(2.70001,0,0,2.70001,-306.002,-305.011)">
        <g transform="matrix(0.999207,0,0,0.999207,0.142788,-0.392572)">
            <path d="M165.145,175.192L144.091,131.706" style="fill:none;fill-rule:nonzero;stroke:rgb(0,0,255);stroke-width:1px;"/>
        </g>
        <g transform="matrix(0.999207,0,0,0.999207,0.142788,-0.392572)">
            <path d="M140.564,115.039L144.091,131.706" style="fill:none;fill-rule:nonzero;stroke:rgb(0,0,255);stroke-width:1px;"/>
        </g>
        <g transform="matrix(0.999207,0,0,0.999207,0.142788,-0.392572)">
            <path d="M150.824,207.993L165.786,244.961" style="fill:none;fill-rule:nonzero;stroke:rgb(0,0,255);stroke-width:1px;"/>
        </g>
        <g transform="matrix(0.999207,0,0,0.999207,0.142788,-0.392572)">
            <path d="M205.115,196.027L238.46,219.319" style="fill:none;fill-rule:nonzero;stroke:rgb(0,0,255);stroke-width:1px;"/>
        </g>
        <g transform="matrix(0.999207,0,0,0.999207,0.142788,-0.392572)">
            <path d="M157.45,179.359L150.824,207.993" style="fill:none;fill-rule:nonzero;stroke:rgb(0,0,255);stroke-width:1px;"/>
        </g>
        <g transform="matrix(0.999207,0,0,0.999207,0.142788,-0.392572)">
            <path d="M172.839,171.025L205.115,196.027" style="fill:none;fill-rule:nonzero;stroke:rgb(0,0,255);stroke-width:1px;"/>
        </g>
        <g transform="matrix(0.999207,0,0,0.999207,0.142788,-0.392572)">
            <path d="M172.839,171.025L157.45,179.359" style="fill:none;fill-rule:nonzero;stroke:rgb(0,0,255);stroke-width:1px;"/>
        </g>
        <g transform="matrix(0.999207,0,0,0.999207,0.142788,-0.392572)">
            <path d="M121.54,134.484L137.785,129.356" style="fill:none;fill-rule:nonzero;stroke:rgb(0,0,255);stroke-width:1px;"/>
        </g>
        <g transform="matrix(0.999207,0,0,0.999207,0.142788,-0.392572)">
            <path d="M186.733,127.86L211.1,122.304" style="fill:none;fill-rule:nonzero;stroke:rgb(0,0,255);stroke-width:1px;"/>
        </g>
        <g transform="matrix(0.999207,0,0,0.999207,0.142788,-0.392572)">
            <path d="M130.09,134.484L121.54,134.484" style="fill:none;fill-rule:nonzero;stroke:rgb(0,0,255);stroke-width:1px;"/>
        </g>
        <g transform="matrix(0.999207,0,0,0.999207,0.142788,-0.392572)">
            <path d="M158.091,128.929L186.733,127.86" style="fill:none;fill-rule:nonzero;stroke:rgb(0,0,255);stroke-width:1px;"/>
        </g>
        <g transform="matrix(0.999207,0,0,0.999207,0.142788,-0.392572)">
            <path d="M158.091,128.929L130.09,134.484" style="fill:none;fill-rule:nonzero;stroke:rgb(0,0,255);stroke-width:1px;"/>
        </g>
        <g transform="matrix(0.999207,0,0,0.999207,0.142788,-0.392572)">
            <path d="M165.786,244.461L165.993,244.506L166.139,244.608L166.254,244.786L166.286,244.961L166.254,245.136L166.139,245.315L165.961,245.43L165.786,245.461L165.611,245.43L165.432,245.315L165.317,245.136L165.286,244.961L165.317,244.786L165.432,244.608L165.578,244.506L165.611,244.493L165.645,244.482L165.679,244.473L165.786,244.461Z" style="fill:none;fill-rule:nonzero;stroke:rgb(0,0,255);stroke-width:1px;"/>
        </g>
        <g transform="matrix(0.999207,0,0,0.999207,0.142788,-0.392572)">
            <path d="M238.46,218.819L238.635,218.85L238.813,218.965L238.928,219.144L238.96,219.319L238.915,219.526L238.813,219.672L238.667,219.773L238.46,219.819L238.252,219.773L238.106,219.672L238.005,219.526L237.96,219.319L238.005,219.111L238.039,219.049L238.059,219.019L238.106,218.965L238.252,218.864L238.46,218.819Z" style="fill:none;fill-rule:nonzero;stroke:rgb(0,0,255);stroke-width:1px;"/>
        </g>
        <g transform="matrix(0.999207,0,0,0.999207,0.142788,-0.392572)">
            <path d="M150.824,207.493L150.93,207.505L150.965,207.513L151.031,207.538L151.177,207.64L151.292,207.818L151.324,207.993L151.292,208.168L151.177,208.347L151.031,208.448L150.998,208.462L150.965,208.473L150.93,208.482L150.824,208.493L150.616,208.448L150.47,208.347L150.355,208.168L150.324,207.993L150.355,207.818L150.47,207.64L150.616,207.538L150.824,207.493Z" style="fill:none;fill-rule:nonzero;stroke:rgb(0,0,255);stroke-width:1px;"/>
        </g>
        <g transform="matrix(0.999207,0,0,0.999207,0.142788,-0.392572)">
            <path d="M205.115,195.527L205.29,195.558L205.469,195.673L205.57,195.819L205.615,196.027L205.57,196.234L205.536,196.297L205.516,196.326L205.469,196.38L205.29,196.495L205.115,196.527L204.94,196.495L204.762,196.38L204.66,196.234L204.615,196.027L204.66,195.819L204.715,195.727L204.737,195.699L204.762,195.673L204.94,195.558L205.115,195.527Z" style="fill:none;fill-rule:nonzero;stroke:rgb(0,0,255);stroke-width:1px;"/>
        </g>
        <g transform="matrix(0.999207,0,0,0.999207,0.142788,-0.392572)">
            <path d="M157.45,178.859L157.625,178.891L157.803,179.005L157.85,179.06L157.871,179.089L157.889,179.12L157.905,179.151L157.95,179.359L157.905,179.567L157.803,179.712L157.657,179.814L157.45,179.859L157.378,179.854L157.343,179.847L157.309,179.839L157.275,179.827L157.096,179.712L156.995,179.567L156.95,179.359L156.995,179.151L157.096,179.005L157.275,178.891L157.45,178.859Z" style="fill:none;fill-rule:nonzero;stroke:rgb(0,0,255);stroke-width:1px;"/>
        </g>
        <g transform="matrix(0.999207,0,0,0.999207,0.142788,-0.392572)">
            <path d="M172.839,170.525L173.047,170.57L173.193,170.672L173.308,170.85L173.339,171.025L173.308,171.2L173.26,171.295L173.24,171.324L173.218,171.352L173.193,171.379L173.047,171.48L172.839,171.525L172.632,171.48L172.486,171.379L172.419,171.295L172.4,171.264L172.385,171.233L172.371,171.2L172.339,171.025L172.371,170.85L172.486,170.672L172.632,170.57L172.839,170.525Z" style="fill:none;fill-rule:nonzero;stroke:rgb(0,0,255);stroke-width:1px;"/>
        </g>
        <g transform="matrix(0.999207,0,0,0.999207,0.142788,-0.392572)">
            <path d="M137.785,128.856L137.96,128.887L138.139,129.002L138.253,129.181L138.285,129.356L138.24,129.564L138.139,129.709L137.993,129.811L137.785,129.856L137.577,129.811L137.431,129.709L137.33,129.564L137.317,129.531L137.305,129.497L137.296,129.463L137.285,129.356L137.33,129.148L137.431,129.002L137.577,128.901L137.785,128.856Z" style="fill:none;fill-rule:nonzero;stroke:rgb(0,0,255);stroke-width:1px;"/>
        </g>
        <g transform="matrix(0.999207,0,0,0.999207,0.142788,-0.392572)">
            <path d="M211.1,121.804L211.275,121.836L211.454,121.951L211.569,122.129L211.6,122.304L211.555,122.512L211.454,122.658L211.308,122.759L211.1,122.804L210.893,122.759L210.747,122.658L210.645,122.512L210.621,122.445L210.612,122.411L210.6,122.304L210.645,122.097L210.747,121.951L210.893,121.849L211.1,121.804Z" style="fill:none;fill-rule:nonzero;stroke:rgb(0,0,255);stroke-width:1px;"/>
        </g>
        <g transform="matrix(0.999207,0,0,0.999207,0.142788,-0.392572)">
            <path d="M121.54,133.984L121.715,134.016L121.894,134.131L122.009,134.31L122.02,134.343L122.029,134.378L122.035,134.413L122.039,134.448L122.04,134.484L122.039,134.52L122.035,134.556L122.009,134.659L121.894,134.838L121.715,134.953L121.54,134.984L121.365,134.953L121.187,134.838L121.085,134.692L121.04,134.484L121.085,134.277L121.187,134.131L121.365,134.016L121.54,133.984Z" style="fill:none;fill-rule:nonzero;stroke:rgb(0,0,255);stroke-width:1px;"/>
        </g>
        <g transform="matrix(0.999207,0,0,0.999207,0.142788,-0.392572)">
            <path d="M186.733,127.36L186.908,127.392L187.087,127.507L187.201,127.685L187.213,127.719L187.222,127.753L187.228,127.788L187.233,127.86L187.201,128.035L187.087,128.214L186.908,128.329L186.733,128.36L186.558,128.329L186.379,128.214L186.265,128.035L186.238,127.932L186.234,127.896L186.233,127.86L186.265,127.685L186.379,127.507L186.558,127.392L186.733,127.36Z" style="fill:none;fill-rule:nonzero;stroke:rgb(0,0,255);stroke-width:1px;"/>
        </g>
        <g transform="matrix(0.999207,0,0,0.999207,0.142788,-0.392572)">
            <path d="M130.09,133.984L130.265,134.016L130.444,134.131L130.559,134.31L130.579,134.378L130.585,134.413L130.59,134.484L130.559,134.659L130.444,134.838L130.265,134.953L130.09,134.984L129.915,134.953L129.737,134.838L129.635,134.692L129.602,134.591L129.591,134.52L129.59,134.484L129.591,134.448L129.602,134.378L129.635,134.277L129.737,134.131L129.915,134.016L130.09,133.984Z" style="fill:none;fill-rule:nonzero;stroke:rgb(0,0,255);stroke-width:1px;"/>
        </g>
        <g transform="matrix(0.999207,0,0,0.999207,0.142788,-0.392572)">
            <path d="M158.091,128.429L158.266,128.46L158.444,128.575L158.546,128.721L158.579,128.822L158.59,128.893L158.591,128.929L158.546,129.136L158.444,129.282L158.266,129.397L158.091,129.429L157.883,129.383L157.737,129.282L157.636,129.136L157.602,129.035L157.596,129L157.592,128.965L157.591,128.929L157.636,128.721L157.737,128.575L157.916,128.46L158.091,128.429Z" style="fill:none;fill-rule:nonzero;stroke:rgb(0,0,255);stroke-width:1px;"/>
        </g>
        <g transform="matrix(0.999207,0,0,0.999207,0.142788,-0.392572)">
            <path d="M140.564,114.539L140.739,114.57L140.917,114.685L141.032,114.864L141.064,115.039L141.032,115.214L140.917,115.392L140.771,115.494L140.67,115.527L140.635,115.534L140.6,115.538L140.564,115.539L140.356,115.494L140.21,115.392L140.095,115.214L140.064,115.039L140.095,114.864L140.21,114.685L140.389,114.57L140.564,114.539Z" style="fill:none;fill-rule:nonzero;stroke:rgb(0,0,255);stroke-width:1px;"/>
        </g>
    </g>
</svg>
