<?xml version="1.0" encoding="UTF-8" standalone="no"?>
<!DOCTYPE svg PUBLIC "-//W3C//DTD SVG 1.1//EN" "http://www.w3.org/Graphics/SVG/1.1/DTD/svg11.dtd">
<svg width="100%" height="100%" viewBox="0 0 360 360" version="1.1" xmlns="http://www.w3.org/2000/svg" xmlns:xlink="http://www.w3.org/1999/xlink" xml:space="preserve" xmlns:serif="http://www.serif.com/" style="fill-rule:evenodd;clip-rule:evenodd;">
    <g id="_1" serif:id="1" transform="matrix(2.17187,0,0,2.17187,-210.936,-209.473)">
        <g transform="matrix(0.991533,0,0,0.991533,1.52404,0.838784)">
            <path d="M170.015,180.242L173.075,136.318" style="fill:none;fill-rule:nonzero;stroke:rgb(0,0,255);stroke-width:1px;"/>
        </g>
        <g transform="matrix(0.991533,0,0,0.991533,1.52404,0.838784)">
            <path d="M184.349,117.459L173.075,136.318" style="fill:none;fill-rule:nonzero;stroke:rgb(0,0,255);stroke-width:1px;"/>
        </g>
        <g transform="matrix(0.991533,0,0,0.991533,1.52404,0.838784)">
            <path d="M134.26,195.635L201.259,260.434" style="fill:none;fill-rule:nonzero;stroke:rgb(0,0,255);stroke-width:1px;"/>
        </g>
        <g transform="matrix(0.991533,0,0,0.991533,1.52404,0.838784)">
            <path d="M187.086,219.491L168.082,210.787" style="fill:none;fill-rule:nonzero;stroke:rgb(0,0,255);stroke-width:1px;"/>
        </g>
        <g transform="matrix(0.991533,0,0,0.991533,1.52404,0.838784)">
            <path d="M167.438,180.161L134.26,195.635" style="fill:none;fill-rule:nonzero;stroke:rgb(0,0,255);stroke-width:1px;"/>
        </g>
        <g transform="matrix(0.991533,0,0,0.991533,1.52404,0.838784)">
            <path d="M172.591,180.322L187.086,219.491" style="fill:none;fill-rule:nonzero;stroke:rgb(0,0,255);stroke-width:1px;"/>
        </g>
        <g transform="matrix(0.991533,0,0,0.991533,1.52404,0.838784)">
            <path d="M172.591,180.322L167.438,180.161" style="fill:none;fill-rule:nonzero;stroke:rgb(0,0,255);stroke-width:1px;"/>
        </g>
        <g transform="matrix(0.991533,0,0,0.991533,1.52404,0.838784)">
            <path d="M205.769,114.396L225.74,99.728" style="fill:none;fill-rule:nonzero;stroke:rgb(0,0,255);stroke-width:1px;"/>
        </g>
        <g transform="matrix(0.991533,0,0,0.991533,1.52404,0.838784)">
            <path d="M205.769,114.235L225.74,99.566" style="fill:none;fill-rule:nonzero;stroke:rgb(0,0,255);stroke-width:1px;"/>
        </g>
        <g transform="matrix(0.991533,0,0,0.991533,1.52404,0.838784)">
            <path d="M163.894,137.93L205.769,114.396" style="fill:none;fill-rule:nonzero;stroke:rgb(0,0,255);stroke-width:1px;"/>
        </g>
        <g transform="matrix(0.991533,0,0,0.991533,1.52404,0.838784)">
            <path d="M182.255,134.706L205.769,114.235" style="fill:none;fill-rule:nonzero;stroke:rgb(0,0,255);stroke-width:1px;"/>
        </g>
        <g transform="matrix(0.991533,0,0,0.991533,1.52404,0.838784)">
            <path d="M182.255,134.706L163.894,137.93" style="fill:none;fill-rule:nonzero;stroke:rgb(0,0,255);stroke-width:1px;"/>
        </g>
        <g transform="matrix(0.991533,0,0,0.991533,1.52404,0.838784)">
            <path d="M201.259,259.934L201.467,259.979L201.613,260.08L201.714,260.226L201.759,260.434L201.714,260.641L201.613,260.787L201.467,260.888L201.259,260.934L201.052,260.888L200.906,260.787L200.805,260.641L200.759,260.434L200.805,260.226L200.859,260.134L200.881,260.106L200.906,260.08L201.052,259.979L201.259,259.934Z" style="fill:none;fill-rule:nonzero;stroke:rgb(0,0,255);stroke-width:1px;"/>
        </g>
        <g transform="matrix(0.991533,0,0,0.991533,1.52404,0.838784)">
            <path d="M168.082,210.287L168.289,210.332L168.435,210.434L168.537,210.58L168.582,210.787L168.537,210.995L168.521,211.027L168.503,211.057L168.482,211.086L168.435,211.141L168.289,211.242L168.082,211.287L167.874,211.242L167.728,211.141L167.613,210.962L167.582,210.787L167.613,210.612L167.728,210.434L167.874,210.332L168.082,210.287Z" style="fill:none;fill-rule:nonzero;stroke:rgb(0,0,255);stroke-width:1px;"/>
        </g>
        <g transform="matrix(0.991533,0,0,0.991533,1.52404,0.838784)">
            <path d="M134.26,195.135L134.468,195.181L134.614,195.282L134.681,195.365L134.699,195.396L134.715,195.428L134.728,195.461L134.76,195.635L134.715,195.843L134.661,195.935L134.638,195.963L134.614,195.989L134.435,196.104L134.26,196.135L134.085,196.104L133.906,195.989L133.805,195.843L133.76,195.635L133.792,195.461L133.906,195.282L134.052,195.181L134.26,195.135Z" style="fill:none;fill-rule:nonzero;stroke:rgb(0,0,255);stroke-width:1px;"/>
        </g>
        <g transform="matrix(0.991533,0,0,0.991533,1.52404,0.838784)">
            <path d="M187.086,218.991L187.261,219.023L187.44,219.138L187.541,219.284L187.586,219.491L187.555,219.666L187.44,219.845L187.294,219.946L187.086,219.991L186.879,219.946L186.733,219.845L186.618,219.666L186.586,219.491L186.632,219.284L186.647,219.252L186.666,219.221L186.686,219.192L186.733,219.138L186.912,219.023L186.945,219.012L186.98,219.003L187.015,218.997L187.086,218.991Z" style="fill:none;fill-rule:nonzero;stroke:rgb(0,0,255);stroke-width:1px;"/>
        </g>
        <g transform="matrix(0.991533,0,0,0.991533,1.52404,0.838784)">
            <path d="M167.438,179.661L167.645,179.706L167.791,179.808L167.906,179.986L167.938,180.161L167.936,180.197L167.932,180.233L167.906,180.336L167.791,180.515L167.612,180.63L167.438,180.661L167.263,180.63L167.084,180.515L167.037,180.46L167.017,180.431L166.999,180.401L166.983,180.369L166.938,180.161L166.983,179.954L167.084,179.808L167.23,179.706L167.438,179.661Z" style="fill:none;fill-rule:nonzero;stroke:rgb(0,0,255);stroke-width:1px;"/>
        </g>
        <g transform="matrix(0.991533,0,0,0.991533,1.52404,0.838784)">
            <path d="M172.591,179.822L172.799,179.868L172.945,179.969L173.046,180.115L173.091,180.322L173.046,180.53L172.945,180.676L172.799,180.777L172.766,180.791L172.733,180.802L172.698,180.811L172.591,180.822L172.384,180.777L172.238,180.676L172.137,180.53L172.091,180.322L172.093,180.286L172.103,180.216L172.137,180.115L172.238,179.969L172.384,179.868L172.591,179.822Z" style="fill:none;fill-rule:nonzero;stroke:rgb(0,0,255);stroke-width:1px;"/>
        </g>
        <g transform="matrix(0.991533,0,0,0.991533,1.52404,0.838784)">
            <path d="M225.74,99.228L225.948,99.273L226.094,99.374L226.195,99.52L226.228,99.621L226.235,99.656L226.239,99.692L226.24,99.728L226.195,99.935L226.094,100.081L225.948,100.183L225.74,100.228L225.532,100.183L225.386,100.081L225.362,100.055L225.339,100.027L225.319,99.998L225.301,99.967L225.285,99.935L225.272,99.903L225.24,99.728L225.245,99.656L225.251,99.621L225.272,99.553L225.386,99.374L225.532,99.273L225.74,99.228Z" style="fill:none;fill-rule:nonzero;stroke:rgb(0,0,255);stroke-width:1px;"/>
        </g>
        <g transform="matrix(0.991533,0,0,0.991533,1.52404,0.838784)">
            <path d="M225.74,99.066L225.915,99.098L226.094,99.213L226.195,99.359L226.24,99.566L226.239,99.603L226.235,99.638L226.228,99.673L226.195,99.774L226.094,99.92L225.948,100.021L225.74,100.066L225.532,100.021L225.441,99.967L225.413,99.945L225.386,99.92L225.362,99.894L225.339,99.866L225.319,99.836L225.272,99.741L225.251,99.673L225.245,99.638L225.24,99.566L225.272,99.392L225.386,99.213L225.565,99.098L225.74,99.066Z" style="fill:none;fill-rule:nonzero;stroke:rgb(0,0,255);stroke-width:1px;"/>
        </g>
        <g transform="matrix(0.991533,0,0,0.991533,1.52404,0.838784)">
            <path d="M205.769,113.896L205.944,113.927L206.039,113.975L206.068,113.995L206.096,114.018L206.123,114.042L206.17,114.097L206.19,114.126L206.224,114.188L206.257,114.289L206.264,114.324L206.268,114.36L206.269,114.396L206.224,114.604L206.123,114.749L205.977,114.851L205.769,114.896L205.561,114.851L205.415,114.749L205.348,114.666L205.33,114.635L205.314,114.604L205.301,114.571L205.269,114.396L205.274,114.324L205.281,114.289L205.301,114.221L205.415,114.042L205.594,113.927L205.769,113.896Z" style="fill:none;fill-rule:nonzero;stroke:rgb(0,0,255);stroke-width:1px;"/>
        </g>
        <g transform="matrix(0.991533,0,0,0.991533,1.52404,0.838784)">
            <path d="M205.769,113.735L205.944,113.766L206.123,113.881L206.17,113.935L206.19,113.965L206.224,114.027L206.237,114.06L206.249,114.094L206.257,114.128L206.269,114.235L206.268,114.271L206.264,114.306L206.257,114.341L206.224,114.442L206.123,114.588L205.944,114.703L205.769,114.735L205.594,114.703L205.499,114.656L205.442,114.613L205.415,114.588L205.391,114.562L205.348,114.505L205.301,114.41L205.281,114.341L205.274,114.306L205.269,114.235L205.301,114.06L205.415,113.881L205.594,113.766L205.769,113.735Z" style="fill:none;fill-rule:nonzero;stroke:rgb(0,0,255);stroke-width:1px;"/>
        </g>
        <g transform="matrix(0.991533,0,0,0.991533,1.52404,0.838784)">
            <path d="M163.894,137.43L164.102,137.475L164.248,137.576L164.315,137.66L164.333,137.69L164.363,137.755L164.383,137.823L164.389,137.858L164.394,137.93L164.349,138.137L164.248,138.283L164.069,138.398L163.894,138.43L163.72,138.398L163.541,138.283L163.44,138.137L163.394,137.93L163.426,137.755L163.541,137.576L163.687,137.475L163.894,137.43Z" style="fill:none;fill-rule:nonzero;stroke:rgb(0,0,255);stroke-width:1px;"/>
        </g>
        <g transform="matrix(0.991533,0,0,0.991533,1.52404,0.838784)">
            <path d="M182.255,134.206L182.43,134.237L182.608,134.352L182.633,134.379L182.655,134.407L182.71,134.498L182.755,134.706L182.71,134.913L182.608,135.059L182.43,135.174L182.255,135.206L182.08,135.174L181.901,135.059L181.786,134.881L181.766,134.813L181.76,134.777L181.755,134.706L181.786,134.531L181.901,134.352L182.08,134.237L182.255,134.206Z" style="fill:none;fill-rule:nonzero;stroke:rgb(0,0,255);stroke-width:1px;"/>
        </g>
        <g transform="matrix(0.991533,0,0,0.991533,1.52404,0.838784)">
            <path d="M184.349,116.959L184.523,116.99L184.702,117.105L184.817,117.284L184.849,117.459L184.817,117.633L184.702,117.812L184.523,117.927L184.349,117.959L184.174,117.927L184.109,117.898L184.079,117.879L183.995,117.812L183.88,117.633L183.849,117.459L183.88,117.284L183.995,117.105L184.174,116.99L184.349,116.959Z" style="fill:none;fill-rule:nonzero;stroke:rgb(0,0,255);stroke-width:1px;"/>
        </g>
    </g>
</svg>
