<?xml version="1.0" encoding="UTF-8" standalone="no"?>
<!DOCTYPE svg PUBLIC "-//W3C//DTD SVG 1.1//EN" "http://www.w3.org/Graphics/SVG/1.1/DTD/svg11.dtd">
<svg width="100%" height="100%" viewBox="0 0 360 360" version="1.1" xmlns="http://www.w3.org/2000/svg" xmlns:xlink="http://www.w3.org/1999/xlink" xml:space="preserve" xmlns:serif="http://www.serif.com/" style="fill-rule:evenodd;clip-rule:evenodd;">
    <g id="_1" serif:id="1" transform="matrix(2.16621,0,0,2.16621,-209.949,-209.946)">
        <path d="M159.954,198.701L233.455,147.082" style="fill:none;fill-rule:nonzero;stroke:rgb(0,0,255);stroke-width:1px;"/>
        <path d="M253.405,114.547L233.455,147.082" style="fill:none;fill-rule:nonzero;stroke:rgb(0,0,255);stroke-width:1px;"/>
        <path d="M206.441,214.158L248.632,245.453" style="fill:none;fill-rule:nonzero;stroke:rgb(0,0,255);stroke-width:1px;"/>
        <path d="M106.595,154.811L117.859,226.943" style="fill:none;fill-rule:nonzero;stroke:rgb(0,0,255);stroke-width:1px;"/>
        <path d="M159.477,197.365L206.441,214.158" style="fill:none;fill-rule:nonzero;stroke:rgb(0,0,255);stroke-width:1px;"/>
        <path d="M160.432,200.037L106.595,154.811" style="fill:none;fill-rule:nonzero;stroke:rgb(0,0,255);stroke-width:1px;"/>
        <path d="M160.432,200.037L159.477,197.365" style="fill:none;fill-rule:nonzero;stroke:rgb(0,0,255);stroke-width:1px;"/>
        <path d="M235.078,202.136L211.596,138.782" style="fill:none;fill-rule:nonzero;stroke:rgb(0,0,255);stroke-width:1px;"/>
        <path d="M180.859,133.438L213.314,139.354" style="fill:none;fill-rule:nonzero;stroke:rgb(0,0,255);stroke-width:1px;"/>
        <path d="M232.596,128.286L235.078,202.136" style="fill:none;fill-rule:nonzero;stroke:rgb(0,0,255);stroke-width:1px;"/>
        <path d="M234.314,165.879L180.859,133.438" style="fill:none;fill-rule:nonzero;stroke:rgb(0,0,255);stroke-width:1px;"/>
        <path d="M234.314,165.879L232.596,128.286" style="fill:none;fill-rule:nonzero;stroke:rgb(0,0,255);stroke-width:1px;"/>
        <path d="M248.632,244.953L248.84,244.999L248.986,245.1L249.101,245.279L249.132,245.453L249.101,245.628L248.986,245.807L248.807,245.922L248.632,245.953L248.458,245.922L248.279,245.807L248.164,245.628L248.132,245.453L248.164,245.279L248.212,245.183L248.232,245.154L248.254,245.126L248.279,245.1L248.425,244.999L248.632,244.953Z" style="fill:none;fill-rule:nonzero;stroke:rgb(0,0,255);stroke-width:1px;"/>
        <path d="M117.859,226.443L118.033,226.475L118.212,226.59L118.327,226.768L118.359,226.943L118.327,227.118L118.212,227.297L118.033,227.412L117.859,227.443L117.684,227.412L117.505,227.297L117.39,227.118L117.359,226.943L117.39,226.768L117.505,226.59L117.684,226.475L117.752,226.455L117.787,226.448L117.859,226.443Z" style="fill:none;fill-rule:nonzero;stroke:rgb(0,0,255);stroke-width:1px;"/>
        <path d="M206.441,213.658L206.616,213.689L206.795,213.804L206.91,213.983L206.941,214.158L206.91,214.333L206.862,214.428L206.842,214.457L206.819,214.485L206.795,214.511L206.616,214.626L206.441,214.658L206.266,214.626L206.088,214.511L205.973,214.333L205.941,214.158L205.946,214.086L205.953,214.051L205.961,214.017L205.973,213.983L206.088,213.804L206.266,213.689L206.441,213.658Z" style="fill:none;fill-rule:nonzero;stroke:rgb(0,0,255);stroke-width:1px;"/>
        <path d="M106.595,154.311L106.802,154.356L106.948,154.457L107.063,154.636L107.095,154.811L107.063,154.986L107.016,155.081L106.995,155.11L106.973,155.138L106.948,155.164L106.77,155.279L106.702,155.299L106.666,155.306L106.595,155.311L106.42,155.279L106.241,155.164L106.14,155.019L106.095,154.811L106.14,154.603L106.241,154.457L106.387,154.356L106.595,154.311Z" style="fill:none;fill-rule:nonzero;stroke:rgb(0,0,255);stroke-width:1px;"/>
        <path d="M159.477,196.865L159.652,196.897L159.831,197.012L159.946,197.19L159.977,197.365L159.966,197.472L159.957,197.506L159.946,197.54L159.932,197.573L159.831,197.719L159.685,197.82L159.652,197.834L159.618,197.845L159.584,197.854L159.477,197.865L159.302,197.834L159.124,197.719L159.009,197.54L158.977,197.365L159.009,197.19L159.124,197.012L159.302,196.897L159.477,196.865Z" style="fill:none;fill-rule:nonzero;stroke:rgb(0,0,255);stroke-width:1px;"/>
        <path d="M160.432,199.537L160.639,199.582L160.785,199.683L160.887,199.829L160.932,200.037L160.9,200.212L160.785,200.39L160.606,200.505L160.432,200.537L160.257,200.505L160.078,200.39L159.963,200.212L159.932,200.037L159.963,199.862L160.011,199.767L160.031,199.737L160.054,199.71L160.078,199.683L160.257,199.568L160.29,199.557L160.325,199.548L160.36,199.542L160.432,199.537Z" style="fill:none;fill-rule:nonzero;stroke:rgb(0,0,255);stroke-width:1px;"/>
        <path d="M211.596,138.282L211.771,138.313L211.949,138.428L212.064,138.607L212.096,138.782L212.064,138.956L212.017,139.051L211.974,139.109L211.949,139.135L211.771,139.25L211.737,139.261L211.702,139.27L211.667,139.276L211.596,139.282L211.421,139.25L211.242,139.135L211.141,138.989L211.127,138.956L211.116,138.923L211.107,138.888L211.096,138.782L211.141,138.574L211.242,138.428L211.421,138.313L211.596,138.282Z" style="fill:none;fill-rule:nonzero;stroke:rgb(0,0,255);stroke-width:1px;"/>
        <path d="M213.314,138.854L213.522,138.899L213.667,139L213.769,139.146L213.814,139.354L213.782,139.529L213.667,139.708L213.489,139.822L213.314,139.854L213.139,139.822L212.96,139.708L212.845,139.529L212.814,139.354L212.819,139.282L212.825,139.247L212.845,139.179L212.96,139L213.139,138.886L213.314,138.854Z" style="fill:none;fill-rule:nonzero;stroke:rgb(0,0,255);stroke-width:1px;"/>
        <path d="M235.078,201.636L235.285,201.681L235.431,201.782L235.533,201.928L235.578,202.136L235.533,202.343L235.431,202.489L235.285,202.591L235.078,202.636L234.87,202.591L234.724,202.489L234.609,202.311L234.578,202.136L234.609,201.961L234.724,201.782L234.87,201.681L234.903,201.667L234.937,201.656L234.971,201.647L235.042,201.637L235.078,201.636Z" style="fill:none;fill-rule:nonzero;stroke:rgb(0,0,255);stroke-width:1px;"/>
        <path d="M180.859,132.938L181.034,132.97L181.213,133.085L181.314,133.231L181.359,133.438L181.358,133.474L181.354,133.51L181.348,133.545L181.314,133.646L181.298,133.678L181.28,133.708L181.26,133.738L181.213,133.792L181.034,133.907L180.859,133.938L180.684,133.907L180.506,133.792L180.404,133.646L180.359,133.438L180.404,133.231L180.506,133.085L180.684,132.97L180.859,132.938Z" style="fill:none;fill-rule:nonzero;stroke:rgb(0,0,255);stroke-width:1px;"/>
        <path d="M232.596,127.786L232.771,127.818L232.949,127.933L233.064,128.111L233.096,128.286L233.064,128.461L232.949,128.64L232.771,128.755L232.668,128.781L232.632,128.785L232.596,128.786L232.421,128.755L232.242,128.64L232.127,128.461L232.096,128.286L232.127,128.111L232.242,127.933L232.421,127.818L232.596,127.786Z" style="fill:none;fill-rule:nonzero;stroke:rgb(0,0,255);stroke-width:1px;"/>
        <path d="M234.314,165.379L234.522,165.424L234.668,165.525L234.783,165.704L234.814,165.879L234.783,166.054L234.668,166.232L234.522,166.334L234.314,166.379L234.106,166.334L233.961,166.232L233.914,166.178L233.893,166.149L233.875,166.118L233.859,166.086L233.814,165.879L233.826,165.772L233.834,165.738L233.846,165.704L233.859,165.671L233.875,165.64L233.893,165.609L233.914,165.58L233.961,165.525L234.106,165.424L234.207,165.39L234.278,165.38L234.314,165.379Z" style="fill:none;fill-rule:nonzero;stroke:rgb(0,0,255);stroke-width:1px;"/>
        <path d="M253.405,114.047L253.613,114.092L253.759,114.193L253.874,114.372L253.905,114.547L253.874,114.721L253.759,114.9L253.613,115.001L253.405,115.047L253.198,115.001L253.166,114.986L253.135,114.967L253.106,114.947L253.052,114.9L252.937,114.721L252.905,114.547L252.937,114.372L253.052,114.193L253.198,114.092L253.405,114.047Z" style="fill:none;fill-rule:nonzero;stroke:rgb(0,0,255);stroke-width:1px;"/>
    </g>
</svg>
