<?xml version="1.0" encoding="UTF-8" standalone="no"?>
<!DOCTYPE svg PUBLIC "-//W3C//DTD SVG 1.1//EN" "http://www.w3.org/Graphics/SVG/1.1/DTD/svg11.dtd">
<svg width="100%" height="100%" viewBox="0 0 360 360" version="1.1" xmlns="http://www.w3.org/2000/svg" xmlns:xlink="http://www.w3.org/1999/xlink" xml:space="preserve" xmlns:serif="http://www.serif.com/" style="fill-rule:evenodd;clip-rule:evenodd;">
    <g id="_1" serif:id="1" transform="matrix(4.45899,0,0,4.45899,-622.619,-622.743)">
        <path d="M185.893,183.348L175.955,162.362" style="fill:none;fill-rule:nonzero;stroke:rgb(0,0,255);stroke-width:1px;"/>
        <path d="M172.06,156.966L175.955,162.362" style="fill:none;fill-rule:nonzero;stroke:rgb(0,0,255);stroke-width:1px;"/>
        <path d="M190.637,203.034L200.524,219.023" style="fill:none;fill-rule:nonzero;stroke:rgb(0,0,255);stroke-width:1px;"/>
        <path d="M200.025,182.248L209.812,180.749" style="fill:none;fill-rule:nonzero;stroke:rgb(0,0,255);stroke-width:1px;"/>
        <path d="M182.347,186.545L190.637,203.034" style="fill:none;fill-rule:nonzero;stroke:rgb(0,0,255);stroke-width:1px;"/>
        <path d="M189.438,180.15L200.025,182.248" style="fill:none;fill-rule:nonzero;stroke:rgb(0,0,255);stroke-width:1px;"/>
        <path d="M189.438,180.15L182.347,186.545" style="fill:none;fill-rule:nonzero;stroke:rgb(0,0,255);stroke-width:1px;"/>
        <path d="M160.275,171.956L150.188,176.952" style="fill:none;fill-rule:nonzero;stroke:rgb(0,0,255);stroke-width:1px;"/>
        <path d="M189.438,150.571L196.329,140.977" style="fill:none;fill-rule:nonzero;stroke:rgb(0,0,255);stroke-width:1px;"/>
        <path d="M169.963,165.56L160.275,171.956" style="fill:none;fill-rule:nonzero;stroke:rgb(0,0,255);stroke-width:1px;"/>
        <path d="M181.948,159.165L189.438,150.571" style="fill:none;fill-rule:nonzero;stroke:rgb(0,0,255);stroke-width:1px;"/>
        <path d="M181.948,159.165L169.963,165.56" style="fill:none;fill-rule:nonzero;stroke:rgb(0,0,255);stroke-width:1px;"/>
        <path d="M200.524,218.523L200.732,218.568L200.878,218.669L200.979,218.815L201.024,219.023L200.979,219.23L200.878,219.376L200.732,219.478L200.524,219.523L200.349,219.491L200.171,219.376L200.056,219.197L200.024,219.023L200.069,218.815L200.171,218.669L200.254,218.602L200.285,218.584L200.349,218.554L200.524,218.523Z" style="fill:none;fill-rule:nonzero;stroke:rgb(0,0,255);stroke-width:1px;"/>
        <path d="M209.812,180.249L210.02,180.295L210.166,180.396L210.267,180.542L210.312,180.749L210.267,180.957L210.166,181.103L210.02,181.204L209.812,181.249L209.605,181.204L209.459,181.103L209.358,180.957L209.324,180.856L209.318,180.821L209.314,180.785L209.312,180.749L209.358,180.542L209.459,180.396L209.605,180.295L209.812,180.249Z" style="fill:none;fill-rule:nonzero;stroke:rgb(0,0,255);stroke-width:1px;"/>
        <path d="M190.637,202.534L190.844,202.579L190.99,202.68L191.091,202.826L191.137,203.034L191.091,203.241L190.99,203.387L190.936,203.434L190.907,203.455L190.876,203.473L190.844,203.489L190.637,203.534L190.429,203.489L190.283,203.387L190.182,203.241L190.137,203.034L190.182,202.826L190.283,202.68L190.337,202.633L190.367,202.613L190.397,202.595L190.429,202.579L190.637,202.534Z" style="fill:none;fill-rule:nonzero;stroke:rgb(0,0,255);stroke-width:1px;"/>
        <path d="M200.025,181.748L200.232,181.794L200.378,181.895L200.48,182.041L200.513,182.142L200.52,182.177L200.523,182.212L200.525,182.248L200.48,182.456L200.378,182.602L200.232,182.703L200.025,182.748L199.85,182.717L199.671,182.602L199.57,182.456L199.525,182.248L199.53,182.177L199.536,182.142L199.556,182.074L199.671,181.895L199.85,181.78L200.025,181.748Z" style="fill:none;fill-rule:nonzero;stroke:rgb(0,0,255);stroke-width:1px;"/>
        <path d="M182.347,186.045L182.522,186.077L182.701,186.192L182.725,186.218L182.748,186.246L182.802,186.338L182.847,186.545L182.815,186.72L182.701,186.899L182.617,186.966L182.586,186.984L182.555,187L182.522,187.014L182.347,187.045L182.139,187L181.993,186.899L181.879,186.72L181.847,186.545L181.892,186.338L181.993,186.192L182.139,186.091L182.347,186.045Z" style="fill:none;fill-rule:nonzero;stroke:rgb(0,0,255);stroke-width:1px;"/>
        <path d="M189.438,179.65L189.646,179.695L189.792,179.796L189.893,179.942L189.938,180.15L189.933,180.222L189.927,180.257L189.907,180.325L189.792,180.503L189.646,180.605L189.438,180.65L189.263,180.618L189.085,180.503L189.06,180.477L189.017,180.42L188.97,180.325L188.938,180.15L188.983,179.942L189.085,179.796L189.263,179.681L189.438,179.65Z" style="fill:none;fill-rule:nonzero;stroke:rgb(0,0,255);stroke-width:1px;"/>
        <path d="M150.188,176.452L150.395,176.497L150.541,176.599L150.588,176.653L150.608,176.682L150.627,176.713L150.642,176.745L150.688,176.952L150.642,177.16L150.541,177.306L150.395,177.407L150.188,177.452L150.013,177.421L149.834,177.306L149.719,177.127L149.688,176.952L149.719,176.777L149.834,176.599L150.013,176.484L150.188,176.452Z" style="fill:none;fill-rule:nonzero;stroke:rgb(0,0,255);stroke-width:1px;"/>
        <path d="M196.329,140.477L196.537,140.522L196.683,140.624L196.798,140.803L196.829,140.977L196.784,141.185L196.683,141.331L196.537,141.432L196.329,141.477L196.155,141.446L196.059,141.398L196.03,141.378L196.002,141.355L195.976,141.331L195.875,141.185L195.829,140.977L195.861,140.803L195.976,140.624L196.155,140.509L196.329,140.477Z" style="fill:none;fill-rule:nonzero;stroke:rgb(0,0,255);stroke-width:1px;"/>
        <path d="M160.275,171.456L160.482,171.501L160.628,171.602L160.653,171.628L160.675,171.656L160.696,171.686L160.743,171.781L160.775,171.956L160.743,172.13L160.628,172.309L160.482,172.41L160.275,172.456L160.1,172.424L159.921,172.309L159.854,172.226L159.836,172.195L159.82,172.163L159.806,172.13L159.775,171.956L159.806,171.781L159.921,171.602L160.1,171.487L160.275,171.456Z" style="fill:none;fill-rule:nonzero;stroke:rgb(0,0,255);stroke-width:1px;"/>
        <path d="M189.438,150.071L189.646,150.116L189.708,150.15L189.737,150.17L189.792,150.217L189.893,150.363L189.938,150.571L189.907,150.745L189.792,150.924L189.646,151.025L189.438,151.071L189.263,151.039L189.168,150.991L189.111,150.949L189.085,150.924L188.97,150.745L188.938,150.571L188.983,150.363L189.085,150.217L189.263,150.102L189.438,150.071Z" style="fill:none;fill-rule:nonzero;stroke:rgb(0,0,255);stroke-width:1px;"/>
        <path d="M169.963,165.06L170.17,165.105L170.316,165.207L170.363,165.261L170.384,165.29L170.402,165.321L170.418,165.353L170.463,165.56L170.431,165.735L170.316,165.914L170.137,166.029L169.963,166.06L169.755,166.015L169.609,165.914L169.585,165.887L169.562,165.859L169.542,165.83L169.494,165.735L169.463,165.56L169.508,165.353L169.609,165.207L169.755,165.105L169.963,165.06Z" style="fill:none;fill-rule:nonzero;stroke:rgb(0,0,255);stroke-width:1px;"/>
        <path d="M181.948,158.665L182.155,158.71L182.247,158.764L182.275,158.786L182.301,158.811L182.402,158.957L182.448,159.165L182.416,159.339L182.301,159.518L182.155,159.619L181.948,159.665L181.773,159.633L181.594,159.518L181.527,159.435L181.509,159.404L181.493,159.372L181.479,159.339L181.448,159.165L181.493,158.957L181.594,158.811L181.773,158.696L181.948,158.665Z" style="fill:none;fill-rule:nonzero;stroke:rgb(0,0,255);stroke-width:1px;"/>
        <path d="M172.06,156.466L172.268,156.511L172.414,156.613L172.515,156.759L172.56,156.966L172.528,157.141L172.414,157.32L172.359,157.367L172.33,157.387L172.268,157.421L172.06,157.466L171.885,157.435L171.706,157.32L171.592,157.141L171.56,156.966L171.605,156.759L171.706,156.613L171.885,156.498L172.06,156.466Z" style="fill:none;fill-rule:nonzero;stroke:rgb(0,0,255);stroke-width:1px;"/>
    </g>
</svg>
