<?xml version="1.0" encoding="UTF-8" standalone="no"?>
<!DOCTYPE svg PUBLIC "-//W3C//DTD SVG 1.1//EN" "http://www.w3.org/Graphics/SVG/1.1/DTD/svg11.dtd">
<svg width="100%" height="100%" viewBox="0 0 360 360" version="1.1" xmlns="http://www.w3.org/2000/svg" xmlns:xlink="http://www.w3.org/1999/xlink" xml:space="preserve" xmlns:serif="http://www.serif.com/" style="fill-rule:evenodd;clip-rule:evenodd;">
    <g id="_1" serif:id="1" transform="matrix(4.39529,0,0,4.39529,-611.153,-611.338)">
        <path d="M186.091,182.163L199.584,152.802" style="fill:none;fill-rule:nonzero;stroke:rgb(0,0,255);stroke-width:1px;"/>
        <path d="M198.994,140.808L199.584,152.802" style="fill:none;fill-rule:nonzero;stroke:rgb(0,0,255);stroke-width:1px;"/>
        <path d="M204.627,194.549L200.828,219.192" style="fill:none;fill-rule:nonzero;stroke:rgb(0,0,255);stroke-width:1px;"/>
        <path d="M204.627,194.549L155.373,193.763" style="fill:none;fill-rule:nonzero;stroke:rgb(0,0,255);stroke-width:1px;"/>
        <path d="M185.24,183.015L204.627,194.549" style="fill:none;fill-rule:nonzero;stroke:rgb(0,0,255);stroke-width:1px;"/>
        <path d="M186.943,181.311L204.627,194.549" style="fill:none;fill-rule:nonzero;stroke:rgb(0,0,255);stroke-width:1px;"/>
        <path d="M186.943,181.311L185.24,183.015" style="fill:none;fill-rule:nonzero;stroke:rgb(0,0,255);stroke-width:1px;"/>
        <path d="M187.336,145.265L178.166,142.25" style="fill:none;fill-rule:nonzero;stroke:rgb(0,0,255);stroke-width:1px;"/>
        <path d="M175.677,159.552L159.696,162.96" style="fill:none;fill-rule:nonzero;stroke:rgb(0,0,255);stroke-width:1px;"/>
        <path d="M199.518,155.096L187.336,145.265" style="fill:none;fill-rule:nonzero;stroke:rgb(0,0,255);stroke-width:1px;"/>
        <path d="M199.649,150.508L175.677,159.552" style="fill:none;fill-rule:nonzero;stroke:rgb(0,0,255);stroke-width:1px;"/>
        <path d="M199.649,150.508L199.518,155.096" style="fill:none;fill-rule:nonzero;stroke:rgb(0,0,255);stroke-width:1px;"/>
        <path d="M200.828,218.692L200.9,218.697L200.935,218.703L201.003,218.723L201.182,218.838L201.297,219.017L201.328,219.192L201.283,219.399L201.182,219.545L201.036,219.647L200.828,219.692L200.621,219.647L200.475,219.545L200.36,219.367L200.328,219.192L200.36,219.017L200.475,218.838L200.653,218.723L200.828,218.692Z" style="fill:none;fill-rule:nonzero;stroke:rgb(0,0,255);stroke-width:1px;"/>
        <path d="M155.373,193.263L155.548,193.295L155.727,193.409L155.841,193.588L155.873,193.763L155.872,193.799L155.868,193.835L155.841,193.938L155.727,194.117L155.548,194.231L155.373,194.263L155.165,194.218L155.019,194.117L154.918,193.971L154.873,193.763L154.918,193.555L155.019,193.409L155.198,193.295L155.373,193.263Z" style="fill:none;fill-rule:nonzero;stroke:rgb(0,0,255);stroke-width:1px;"/>
        <path d="M204.627,194.049L204.802,194.081L204.981,194.196L205.095,194.375L205.127,194.549L205.095,194.724L204.981,194.903L204.802,195.018L204.627,195.049L204.555,195.044L204.52,195.038L204.452,195.018L204.273,194.903L204.159,194.724L204.127,194.549L204.128,194.513L204.132,194.478L204.159,194.375L204.188,194.31L204.206,194.279L204.226,194.25L204.249,194.222L204.273,194.196L204.452,194.081L204.627,194.049Z" style="fill:none;fill-rule:nonzero;stroke:rgb(0,0,255);stroke-width:1px;"/>
        <path d="M204.627,194.049L204.802,194.081L204.981,194.196L205.095,194.375L205.127,194.549L205.095,194.724L204.981,194.903L204.802,195.018L204.627,195.049L204.555,195.044L204.52,195.038L204.452,195.018L204.273,194.903L204.159,194.724L204.127,194.549L204.128,194.513L204.132,194.478L204.159,194.375L204.188,194.31L204.206,194.279L204.226,194.25L204.249,194.222L204.273,194.196L204.452,194.081L204.627,194.049Z" style="fill:none;fill-rule:nonzero;stroke:rgb(0,0,255);stroke-width:1px;"/>
        <path d="M185.24,182.515L185.415,182.546L185.51,182.594L185.567,182.637L185.593,182.661L185.708,182.84L185.74,183.015L185.708,183.19L185.679,183.254L185.661,183.285L185.593,183.368L185.415,183.483L185.24,183.515L185.032,183.47L184.886,183.368L184.785,183.222L184.74,183.015L184.785,182.807L184.886,182.661L185.065,182.546L185.24,182.515Z" style="fill:none;fill-rule:nonzero;stroke:rgb(0,0,255);stroke-width:1px;"/>
        <path d="M186.943,180.811L187.15,180.856L187.296,180.957L187.411,181.136L187.443,181.311L187.411,181.486L187.364,181.581L187.343,181.61L187.321,181.638L187.296,181.664L187.118,181.779L186.943,181.811L186.768,181.779L186.673,181.732L186.616,181.689L186.589,181.664L186.474,181.486L186.454,181.417L186.448,181.382L186.443,181.311L186.474,181.136L186.589,180.957L186.643,180.91L186.673,180.89L186.703,180.872L186.735,180.856L186.943,180.811Z" style="fill:none;fill-rule:nonzero;stroke:rgb(0,0,255);stroke-width:1px;"/>
        <path d="M178.166,141.75L178.341,141.782L178.52,141.897L178.621,142.043L178.666,142.25L178.655,142.357L178.646,142.391L178.635,142.425L178.621,142.458L178.52,142.604L178.374,142.705L178.166,142.75L177.958,142.705L177.813,142.604L177.698,142.425L177.666,142.25L177.698,142.075L177.813,141.897L177.991,141.782L178.166,141.75Z" style="fill:none;fill-rule:nonzero;stroke:rgb(0,0,255);stroke-width:1px;"/>
        <path d="M159.696,162.46L159.871,162.492L160.049,162.607L160.151,162.753L160.184,162.853L160.191,162.889L160.195,162.924L160.196,162.96L160.151,163.168L160.049,163.314L159.871,163.429L159.696,163.46L159.521,163.429L159.342,163.314L159.227,163.135L159.196,162.96L159.227,162.785L159.342,162.607L159.521,162.492L159.696,162.46Z" style="fill:none;fill-rule:nonzero;stroke:rgb(0,0,255);stroke-width:1px;"/>
        <path d="M187.336,144.765L187.543,144.81L187.689,144.911L187.791,145.057L187.836,145.265L187.791,145.472L187.736,145.564L187.714,145.592L187.689,145.618L187.511,145.733L187.336,145.765L187.161,145.733L186.982,145.618L186.867,145.44L186.836,145.265L186.841,145.193L186.847,145.158L186.856,145.124L186.867,145.09L186.982,144.911L187.161,144.796L187.336,144.765Z" style="fill:none;fill-rule:nonzero;stroke:rgb(0,0,255);stroke-width:1px;"/>
        <path d="M175.677,159.052L175.852,159.084L176.031,159.199L176.098,159.282L176.116,159.313L176.132,159.345L176.146,159.377L176.177,159.552L176.146,159.727L176.031,159.906L175.885,160.007L175.677,160.052L175.47,160.007L175.324,159.906L175.209,159.727L175.189,159.659L175.182,159.624L175.177,159.552L175.209,159.377L175.324,159.199L175.502,159.084L175.677,159.052Z" style="fill:none;fill-rule:nonzero;stroke:rgb(0,0,255);stroke-width:1px;"/>
        <path d="M199.518,154.596L199.554,154.597L199.59,154.601L199.693,154.627L199.872,154.742L199.973,154.888L200.018,155.096L199.973,155.303L199.872,155.449L199.726,155.55L199.518,155.596L199.311,155.55L199.165,155.449L199.05,155.27L199.018,155.096L199.05,154.921L199.097,154.826L199.118,154.796L199.14,154.768L199.165,154.742L199.343,154.627L199.518,154.596Z" style="fill:none;fill-rule:nonzero;stroke:rgb(0,0,255);stroke-width:1px;"/>
        <path d="M199.649,150.008L199.824,150.039L200.003,150.154L200.118,150.333L200.149,150.508L200.118,150.683L200.003,150.861L199.824,150.976L199.649,151.008L199.613,151.007L199.578,151.003L199.542,150.996L199.508,150.988L199.474,150.976L199.296,150.861L199.228,150.778L199.21,150.747L199.194,150.716L199.181,150.683L199.149,150.508L199.181,150.333L199.296,150.154L199.379,150.087L199.41,150.069L199.442,150.053L199.474,150.039L199.649,150.008Z" style="fill:none;fill-rule:nonzero;stroke:rgb(0,0,255);stroke-width:1px;"/>
        <path d="M198.994,140.308L199.169,140.34L199.348,140.455L199.449,140.601L199.494,140.808L199.449,141.016L199.348,141.162L199.169,141.277L199.066,141.303L199.03,141.307L198.994,141.308L198.819,141.277L198.641,141.162L198.526,140.983L198.494,140.808L198.526,140.633L198.641,140.455L198.819,140.34L198.994,140.308Z" style="fill:none;fill-rule:nonzero;stroke:rgb(0,0,255);stroke-width:1px;"/>
    </g>
</svg>
