<?xml version="1.0" encoding="UTF-8" standalone="no"?>
<!DOCTYPE svg PUBLIC "-//W3C//DTD SVG 1.1//EN" "http://www.w3.org/Graphics/SVG/1.1/DTD/svg11.dtd">
<svg width="100%" height="100%" viewBox="0 0 360 360" version="1.1" xmlns="http://www.w3.org/2000/svg" xmlns:xlink="http://www.w3.org/1999/xlink" xml:space="preserve" xmlns:serif="http://www.serif.com/" style="fill-rule:evenodd;clip-rule:evenodd;">
    <g id="_1" serif:id="1" transform="matrix(5.22497,0,0,5.22497,-760.494,-760.281)">
        <g transform="matrix(0.997009,0,0,0.997009,0.53833,0.438524)">
            <path d="M166.678,187.318L185.401,177.601" style="fill:none;fill-rule:nonzero;stroke:rgb(0,0,255);stroke-width:1px;"/>
        </g>
        <g transform="matrix(0.997009,0,0,0.997009,0.53833,0.438524)">
            <path d="M196.802,184.319L185.401,177.601" style="fill:none;fill-rule:nonzero;stroke:rgb(0,0,255);stroke-width:1px;"/>
        </g>
        <g transform="matrix(0.997009,0,0,0.997009,0.53833,0.438524)">
            <path d="M181.2,193.077L176.76,212.872" style="fill:none;fill-rule:nonzero;stroke:rgb(0,0,255);stroke-width:1px;"/>
        </g>
        <g transform="matrix(0.997009,0,0,0.997009,0.53833,0.438524)">
            <path d="M183,192.957L176.28,147.128" style="fill:none;fill-rule:nonzero;stroke:rgb(0,0,255);stroke-width:1px;"/>
        </g>
        <g transform="matrix(0.997009,0,0,0.997009,0.53833,0.438524)">
            <path d="M161.158,187.318L181.2,193.077" style="fill:none;fill-rule:nonzero;stroke:rgb(0,0,255);stroke-width:1px;"/>
        </g>
        <g transform="matrix(0.997009,0,0,0.997009,0.53833,0.438524)">
            <path d="M172.199,187.318L183,192.957" style="fill:none;fill-rule:nonzero;stroke:rgb(0,0,255);stroke-width:1px;"/>
        </g>
        <g transform="matrix(0.997009,0,0,0.997009,0.53833,0.438524)">
            <path d="M172.199,187.318L161.158,187.318" style="fill:none;fill-rule:nonzero;stroke:rgb(0,0,255);stroke-width:1px;"/>
        </g>
        <g transform="matrix(0.997009,0,0,0.997009,0.53833,0.438524)">
            <path d="M192.001,194.876L198.842,192.957" style="fill:none;fill-rule:nonzero;stroke:rgb(0,0,255);stroke-width:1px;"/>
        </g>
        <g transform="matrix(0.997009,0,0,0.997009,0.53833,0.438524)">
            <path d="M181.08,161.165L176.52,147.968" style="fill:none;fill-rule:nonzero;stroke:rgb(0,0,255);stroke-width:1px;"/>
        </g>
        <g transform="matrix(0.997009,0,0,0.997009,0.53833,0.438524)">
            <path d="M183.84,182.04L192.001,194.876" style="fill:none;fill-rule:nonzero;stroke:rgb(0,0,255);stroke-width:1px;"/>
        </g>
        <g transform="matrix(0.997009,0,0,0.997009,0.53833,0.438524)">
            <path d="M186.961,173.162L181.08,161.165" style="fill:none;fill-rule:nonzero;stroke:rgb(0,0,255);stroke-width:1px;"/>
        </g>
        <g transform="matrix(0.997009,0,0,0.997009,0.53833,0.438524)">
            <path d="M186.961,173.162L183.84,182.04" style="fill:none;fill-rule:nonzero;stroke:rgb(0,0,255);stroke-width:1px;"/>
        </g>
        <g transform="matrix(0.997009,0,0,0.997009,0.53833,0.438524)">
            <path d="M176.76,212.372L176.831,212.377L176.866,212.383L176.901,212.392L176.934,212.403L177.113,212.518L177.228,212.697L177.26,212.872L177.228,213.047L177.113,213.225L176.967,213.327L176.76,213.372L176.552,213.327L176.406,213.225L176.305,213.08L176.26,212.872L176.305,212.664L176.406,212.518L176.585,212.403L176.76,212.372Z" style="fill:none;fill-rule:nonzero;stroke:rgb(0,0,255);stroke-width:1px;"/>
        </g>
        <g transform="matrix(0.997009,0,0,0.997009,0.53833,0.438524)">
            <path d="M176.28,146.628L176.454,146.66L176.633,146.775L176.734,146.92L176.78,147.128L176.734,147.336L176.68,147.427L176.658,147.455L176.633,147.482L176.487,147.583L176.386,147.617L176.351,147.623L176.316,147.627L176.28,147.628L176.173,147.617L176.138,147.608L176.072,147.583L175.926,147.482L175.811,147.303L175.78,147.128L175.811,146.953L175.926,146.775L176.105,146.66L176.28,146.628Z" style="fill:none;fill-rule:nonzero;stroke:rgb(0,0,255);stroke-width:1px;"/>
        </g>
        <g transform="matrix(0.997009,0,0,0.997009,0.53833,0.438524)">
            <path d="M181.2,192.577L181.375,192.608L181.554,192.723L181.655,192.869L181.7,193.077L181.655,193.284L181.554,193.43L181.375,193.545L181.2,193.577L181.129,193.572L181.093,193.565L181.059,193.556L181.025,193.545L180.847,193.43L180.732,193.252L180.7,193.077L180.705,193.005L180.712,192.97L180.72,192.936L180.732,192.902L180.847,192.723L181.025,192.608L181.2,192.577Z" style="fill:none;fill-rule:nonzero;stroke:rgb(0,0,255);stroke-width:1px;"/>
        </g>
        <g transform="matrix(0.997009,0,0,0.997009,0.53833,0.438524)">
            <path d="M183,192.457L183.175,192.488L183.354,192.603L183.469,192.782L183.5,192.957L183.469,193.132L183.354,193.31L183.208,193.412L183,193.457L182.793,193.412L182.647,193.31L182.532,193.132L182.5,192.957L182.532,192.782L182.545,192.749L182.561,192.717L182.579,192.687L182.647,192.603L182.826,192.488L182.894,192.468L182.929,192.462L183,192.457Z" style="fill:none;fill-rule:nonzero;stroke:rgb(0,0,255);stroke-width:1px;"/>
        </g>
        <g transform="matrix(0.997009,0,0,0.997009,0.53833,0.438524)">
            <path d="M161.158,186.818L161.333,186.85L161.511,186.965L161.626,187.143L161.653,187.247L161.656,187.282L161.658,187.318L161.656,187.354L161.653,187.39L161.646,187.425L161.637,187.459L161.626,187.493L161.511,187.672L161.333,187.787L161.158,187.818L160.95,187.773L160.804,187.672L160.703,187.526L160.658,187.318L160.703,187.111L160.804,186.965L160.983,186.85L161.158,186.818Z" style="fill:none;fill-rule:nonzero;stroke:rgb(0,0,255);stroke-width:1px;"/>
        </g>
        <g transform="matrix(0.997009,0,0,0.997009,0.53833,0.438524)">
            <path d="M172.199,186.818L172.374,186.85L172.553,186.965L172.668,187.143L172.699,187.318L172.668,187.493L172.654,187.526L172.638,187.558L172.62,187.588L172.553,187.672L172.407,187.773L172.199,187.818L171.991,187.773L171.846,187.672L171.744,187.526L171.711,187.425L171.7,187.354L171.699,187.318L171.7,187.282L171.711,187.211L171.744,187.111L171.846,186.965L172.024,186.85L172.199,186.818Z" style="fill:none;fill-rule:nonzero;stroke:rgb(0,0,255);stroke-width:1px;"/>
        </g>
        <g transform="matrix(0.997009,0,0,0.997009,0.53833,0.438524)">
            <path d="M198.842,192.457L199.017,192.488L199.196,192.603L199.311,192.782L199.342,192.957L199.311,193.132L199.196,193.31L199.017,193.425L198.842,193.457L198.635,193.412L198.489,193.31L198.387,193.164L198.363,193.098L198.354,193.064L198.342,192.957L198.387,192.749L198.489,192.603L198.667,192.488L198.842,192.457Z" style="fill:none;fill-rule:nonzero;stroke:rgb(0,0,255);stroke-width:1px;"/>
        </g>
        <g transform="matrix(0.997009,0,0,0.997009,0.53833,0.438524)">
            <path d="M176.52,147.468L176.626,147.479L176.661,147.488L176.727,147.513L176.873,147.614L176.988,147.793L177.02,147.968L176.988,148.143L176.873,148.321L176.694,148.436L176.661,148.448L176.626,148.456L176.591,148.463L176.52,148.468L176.484,148.467L176.448,148.463L176.345,148.436L176.166,148.321L176.051,148.143L176.02,147.968L176.051,147.793L176.099,147.698L176.141,147.641L176.166,147.614L176.312,147.513L176.345,147.499L176.378,147.488L176.413,147.479L176.52,147.468Z" style="fill:none;fill-rule:nonzero;stroke:rgb(0,0,255);stroke-width:1px;"/>
        </g>
        <g transform="matrix(0.997009,0,0,0.997009,0.53833,0.438524)">
            <path d="M192.001,194.376L192.209,194.421L192.355,194.523L192.456,194.669L192.481,194.735L192.49,194.77L192.501,194.876L192.47,195.051L192.355,195.23L192.176,195.345L192.001,195.376L191.827,195.345L191.648,195.23L191.533,195.051L191.501,194.876L191.533,194.702L191.648,194.523L191.702,194.476L191.731,194.455L191.762,194.437L191.794,194.421L192.001,194.376Z" style="fill:none;fill-rule:nonzero;stroke:rgb(0,0,255);stroke-width:1px;"/>
        </g>
        <g transform="matrix(0.997009,0,0,0.997009,0.53833,0.438524)">
            <path d="M181.08,160.665L181.255,160.696L181.434,160.811L181.549,160.99L181.58,161.165L181.549,161.339L181.434,161.518L181.379,161.565L181.35,161.585L181.319,161.604L181.288,161.619L181.08,161.665L180.873,161.619L180.727,161.518L180.625,161.372L180.58,161.165L180.612,160.99L180.727,160.811L180.905,160.696L180.939,160.685L180.973,160.676L181.009,160.67L181.08,160.665Z" style="fill:none;fill-rule:nonzero;stroke:rgb(0,0,255);stroke-width:1px;"/>
        </g>
        <g transform="matrix(0.997009,0,0,0.997009,0.53833,0.438524)">
            <path d="M183.84,181.539L183.912,181.545L183.947,181.551L183.982,181.56L184.015,181.571L184.194,181.686L184.309,181.865L184.34,182.04L184.309,182.214L184.194,182.393L184.14,182.44L184.11,182.46L184.08,182.478L184.048,182.494L183.84,182.54L183.633,182.494L183.487,182.393L183.372,182.214L183.34,182.04L183.372,181.865L183.487,181.686L183.666,181.571L183.84,181.539Z" style="fill:none;fill-rule:nonzero;stroke:rgb(0,0,255);stroke-width:1px;"/>
        </g>
        <g transform="matrix(0.997009,0,0,0.997009,0.53833,0.438524)">
            <path d="M186.961,172.662L187.136,172.693L187.314,172.808L187.429,172.987L187.461,173.162L187.429,173.337L187.314,173.515L187.136,173.63L186.961,173.662L186.889,173.657L186.854,173.65L186.82,173.641L186.786,173.63L186.607,173.515L186.506,173.369L186.461,173.162L186.506,172.954L186.607,172.808L186.691,172.741L186.721,172.723L186.753,172.707L186.786,172.693L186.961,172.662Z" style="fill:none;fill-rule:nonzero;stroke:rgb(0,0,255);stroke-width:1px;"/>
        </g>
        <g transform="matrix(0.997009,0,0,0.997009,0.53833,0.438524)">
            <path d="M196.802,183.819L196.977,183.851L197.156,183.965L197.27,184.144L197.302,184.319L197.257,184.527L197.156,184.672L197.01,184.774L196.802,184.819L196.594,184.774L196.448,184.672L196.334,184.494L196.302,184.319L196.334,184.144L196.363,184.08L196.381,184.049L196.448,183.965L196.627,183.851L196.802,183.819Z" style="fill:none;fill-rule:nonzero;stroke:rgb(0,0,255);stroke-width:1px;"/>
        </g>
    </g>
</svg>
